<svg width="217" height="215" viewBox="0 0 217 215" fill="none" xmlns="http://www.w3.org/2000/svg">
<path d="M91.5108 88.3995C90.745 75.399 85.7954 63.9267 78.4833 56.0548C71.9466 49.0178 68.3056 39.7334 68.5177 30.1405C68.54 29.1322 68.5216 28.1105 68.4609 27.0783C67.5398 11.443 57.2132 -0.667604 45.3956 0.0285723C33.5781 0.724672 24.7447 13.964 25.6657 29.5992C25.854 32.7963 26.436 35.8454 27.3437 38.6674C30.2405 47.6738 29.7846 57.4693 25.7129 66.0134C22.0742 73.6491 20.212 82.8188 20.7862 92.5656C21.6425 107.102 27.7296 119.729 36.5017 127.548C39.8197 130.505 42.5895 134.049 44.6266 137.995C48.0119 144.553 54.0549 148.776 60.6895 148.385C67.8469 147.963 73.6895 142.29 75.9781 134.512C77.2733 130.11 79.4185 126.02 82.1589 122.335C88.6282 113.638 92.2851 101.544 91.5108 88.3995Z" fill="#BDD0FB"/>
<path opacity="0.57" d="M50.5132 16.418C52.6657 26.6603 54.4874 36.9636 56.2014 47.2859C56.6311 49.8662 57.0192 52.4532 57.4156 55.0389L58.0097 58.9175L58.5713 62.8011C58.9357 65.3916 59.3359 67.9771 59.6709 70.5719L60.6766 78.3557C61.2808 83.5533 61.9291 88.7457 62.4365 93.9546C62.694 96.5585 63.0021 99.157 63.2066 101.766L63.8562 109.589C64.6169 120.028 65.1156 130.491 65.0839 140.959L64.6327 140.962L64.3583 133.13L64.2938 131.172L64.1806 129.216L63.9467 125.305L63.7202 121.394C63.6471 120.09 63.5255 118.789 63.4306 117.486C63.2232 114.882 63.0365 112.277 62.8124 109.675C61.8481 99.2706 60.7458 88.8793 59.4292 78.512C58.7312 73.3335 58.0778 68.1494 57.3439 62.9753L56.8041 59.0934L56.2318 55.216C55.8517 52.6308 55.4717 50.0455 55.0655 47.4642C54.2973 42.2947 53.4921 37.1303 52.6446 31.9726C51.8243 26.8106 50.9551 21.6549 50.0703 16.5043L50.5132 16.418Z" fill="white"/>
<path d="M49.9446 79.0741C47.6629 71.2586 43.0512 64.9568 37.5063 61.1777C32.5494 57.7993 29.0389 52.6485 27.8277 46.7735C27.7004 46.1559 27.5466 45.5359 27.3654 44.9154C24.6212 35.516 16.6516 29.5736 9.56472 31.6426C2.47786 33.7116 -1.04251 43.0087 1.70165 52.408C2.26271 54.33 3.04251 56.1069 3.98858 57.7003C7.00779 62.7852 8.09915 68.8177 6.81758 74.5909C5.67221 79.7502 5.82125 85.5972 7.53189 91.4566C10.0832 100.196 15.5477 107.043 21.9727 110.586C24.4029 111.926 26.5818 113.7 28.3714 115.821C31.3456 119.346 35.6091 121.078 39.5879 119.917C43.8801 118.664 46.6394 114.394 46.944 109.335C47.1164 106.472 47.8491 103.681 49.0004 101.055C51.718 94.8546 52.2516 86.9759 49.9446 79.0741Z" fill="#91B3FA"/>
<path opacity="0.57" d="M14.9642 40.918C17.7037 46.8597 20.2505 52.8846 22.7345 58.936C23.3563 60.4486 23.9536 61.971 24.5558 63.4913L25.4588 65.7722L26.3428 68.0606C26.9262 69.5885 27.5307 71.1083 28.0968 72.6428L29.7956 77.246C30.889 80.3293 32.0085 83.403 33.0447 86.5066C33.565 88.0574 34.1154 89.5979 34.6042 91.1595L36.092 95.8363C38.0128 102.092 39.7777 108.398 41.2207 114.781L40.9469 114.846L39.6858 110.111L39.3731 108.927L39.031 107.751L38.3424 105.4L37.6584 103.048C37.4317 102.264 37.1761 101.488 36.9364 100.707C36.4466 99.1496 35.9692 97.5881 35.4693 96.0335C33.4297 89.8279 31.3078 83.6491 29.0591 77.515C27.9113 74.4565 26.7899 71.3884 25.6208 68.3376L24.7504 66.0473L23.8608 63.7642C23.2686 62.2418 22.6764 60.7193 22.0689 59.2029C20.8797 56.1596 19.6686 53.1247 18.433 50.0998C17.2132 47.0684 15.9644 44.0477 14.707 41.0323L14.9642 40.918Z" fill="white"/>
<path d="M212.959 102.719C215.014 55.95 175.756 16.2382 125.274 14.0198C74.7922 11.8014 32.2022 47.9165 30.147 94.6851C28.0918 141.454 67.3496 181.166 117.832 183.384C168.314 185.602 210.904 149.487 212.959 102.719Z" fill="#7D97F4"/>
<path opacity="0.15" d="M116.598 160.4C156.25 160.4 188.395 130.033 188.395 92.5744C188.395 55.1155 156.25 24.749 116.598 24.749C76.9455 24.749 44.8008 55.1155 44.8008 92.5744C44.8008 130.033 76.9455 160.4 116.598 160.4Z" fill="white"/>
<g opacity="0.68">
<path d="M144.926 99.0995C144.904 114.05 143.879 129.031 141.244 143.77C140.577 147.452 139.804 151.116 138.882 154.745C137.958 158.373 136.891 161.969 135.585 165.485C134.267 168.992 132.739 172.449 130.665 175.608C129.62 177.176 128.435 178.678 126.973 179.914C126.242 180.528 125.439 181.073 124.556 181.472C123.675 181.868 122.712 182.119 121.735 182.137C120.758 182.165 119.781 181.974 118.882 181.612C117.98 181.254 117.158 180.734 116.409 180.14C114.912 178.943 113.701 177.457 112.637 175.901C110.527 172.764 108.977 169.315 107.646 165.813C106.324 162.303 105.246 158.71 104.314 155.084C103.383 151.457 102.602 147.795 101.93 144.114C100.588 136.752 99.6722 129.318 99.0544 121.865C98.4411 114.41 98.1337 106.931 98.0959 99.4508C98.0775 95.7113 98.1796 91.9724 98.3125 88.2359C98.4525 84.4994 98.6583 80.7654 98.9334 77.0364C99.4865 69.5793 100.313 62.1387 101.541 54.7593C102.157 51.0705 102.875 47.3972 103.74 43.7564C104.606 40.117 105.613 36.5063 106.862 32.974C107.49 31.2094 108.176 29.4638 108.959 27.7591C109.741 26.0548 110.616 24.3877 111.644 22.8115C112.674 21.2424 113.858 19.7445 115.333 18.5455C116.071 17.9512 116.883 17.4342 117.773 17.0838C118.659 16.729 119.621 16.5493 120.578 16.5857C121.535 16.6129 122.479 16.8516 123.35 17.2351C124.222 17.6204 125.023 18.1444 125.759 18.7385C127.23 19.934 128.448 21.3959 129.528 22.9308C131.676 26.0223 133.295 29.4315 134.697 32.9005C136.09 36.3789 137.239 39.9474 138.24 43.5528C139.238 47.1598 140.083 50.8071 140.814 54.4758C143.707 69.1636 144.883 84.1464 144.926 99.0995ZM143.819 99.0995C143.833 91.6501 143.55 84.1987 142.931 76.7751C142.32 69.3517 141.396 61.9497 140.018 54.6297C139.33 50.9702 138.529 47.3314 137.576 43.7329C136.619 40.1362 135.515 36.5762 134.171 33.1084C132.817 29.6503 131.246 26.2529 129.163 23.1835C128.115 21.6595 126.934 20.2122 125.516 19.0347C124.808 18.4495 124.038 17.9352 123.206 17.5565C122.374 17.1823 121.478 16.9371 120.568 16.9131C119.657 16.8843 118.748 17.0674 117.906 17.414C117.061 17.7571 116.285 18.2619 115.578 18.8448C114.162 20.0205 113.016 21.4993 112.019 23.0545C111.025 24.6164 110.178 26.2731 109.423 27.9686C108.666 29.6646 108.004 31.4033 107.4 33.1615C106.199 36.6814 105.237 40.2824 104.414 43.9127C103.594 47.5444 102.918 51.209 102.345 54.8889C101.202 62.2507 100.46 69.6728 99.9904 77.1086C99.5159 84.5453 99.352 91.999 99.3654 99.4493C99.3456 106.898 99.5945 114.35 100.148 121.779C100.706 129.206 101.561 136.615 102.84 143.951C103.481 147.619 104.23 151.267 105.127 154.878C106.025 158.488 107.068 162.064 108.351 165.55C109.642 169.027 111.151 172.447 113.19 175.528C114.216 177.056 115.384 178.505 116.799 179.653C117.506 180.223 118.276 180.716 119.108 181.054C119.937 181.393 120.827 181.581 121.718 181.551C122.61 181.528 123.488 181.292 124.303 180.918C125.12 180.542 125.873 180.024 126.565 179.433C127.949 178.245 129.092 176.778 130.1 175.237C132.104 172.132 133.591 168.704 134.867 165.221C136.133 161.728 137.164 158.15 138.053 154.538C138.94 150.924 139.68 147.274 140.315 143.606C141.585 136.268 142.429 128.858 142.991 121.43C143.56 114.003 143.822 106.551 143.819 99.0995Z" fill="white"/>
<path d="M182.642 99.0999C182.591 108.728 181.353 118.36 178.776 127.644C176.154 136.907 172.201 145.819 166.834 153.819C164.15 157.815 161.11 161.577 157.713 164.989C154.317 168.401 150.561 171.462 146.484 174.028C142.404 176.584 137.997 178.63 133.384 180.018C128.773 181.41 123.96 182.136 119.142 182.14C114.324 182.14 109.51 181.419 104.897 180.031C100.281 178.647 95.8703 176.604 91.7856 174.05C87.7048 171.487 83.9436 168.428 80.5423 165.018C77.1394 161.607 74.093 157.847 71.4032 153.851C66.0256 145.849 62.0642 136.934 59.4296 127.666C58.1328 123.024 57.1691 118.29 56.5307 113.513C55.8956 108.736 55.5766 103.919 55.5547 99.1C55.5796 94.2809 55.9017 89.464 56.5396 84.6878C57.1811 79.9124 58.1484 75.1798 59.4484 70.5392C62.0895 61.2752 66.0569 52.366 71.4381 44.3725C74.129 40.3803 77.1758 36.6239 80.5783 33.2173C83.9796 29.8123 87.738 26.7562 91.8182 24.2012C95.9016 21.6544 100.311 19.6268 104.919 18.243C109.524 16.8535 114.331 16.1287 119.142 16.124C123.953 16.1327 128.759 16.8616 133.361 18.2546C137.967 19.6422 142.373 21.6738 146.452 24.2233C150.527 26.7812 154.281 29.8398 157.676 33.2463C161.073 36.6544 164.114 40.4116 166.799 44.4039C172.169 52.3962 176.128 61.3016 178.757 70.5611C181.34 79.8418 182.584 89.4721 182.642 99.0999ZM181.374 99.0999C181.36 89.5814 180.174 80.0528 177.663 70.8645C175.137 61.6904 171.335 52.8336 166.1 44.8686C163.484 40.8903 160.513 37.1403 157.185 33.7317C153.856 30.3283 150.179 27.2491 146.157 24.6898C142.131 22.1448 137.783 20.0963 133.223 18.7108C128.666 17.3243 123.909 16.5953 119.142 16.5795C114.376 16.5994 109.619 17.3323 105.064 18.7224C100.507 20.1116 96.1631 22.1641 92.1409 24.7118C88.1237 27.274 84.452 30.3557 81.1284 33.7606C77.8063 37.1708 74.841 40.9215 72.231 44.8999C67.007 52.8639 63.2127 61.7168 60.6998 70.8863C59.4479 75.4763 58.5414 80.1567 57.9272 84.8718C57.3115 89.5875 57.0078 94.343 56.9972 99.1C57.0108 103.857 57.3176 108.612 57.9362 113.327C58.5535 118.041 59.4636 122.72 60.7185 127.308C63.238 136.474 67.0386 145.321 72.2661 153.277C74.877 157.251 77.8427 160.998 81.1645 164.404C84.488 167.803 88.1571 170.882 92.1736 173.436C96.1945 175.977 100.538 178.015 105.087 179.403C109.633 180.795 114.382 181.532 119.142 181.556C123.902 181.536 128.652 180.804 133.201 179.416C137.753 178.031 142.099 175.997 146.125 173.458C150.145 170.907 153.82 167.831 157.149 164.433C160.477 161.028 163.448 157.283 166.065 153.308C171.304 145.351 175.112 136.5 177.644 127.33C180.161 118.145 181.353 108.618 181.374 99.0999Z" fill="white"/>
<path d="M45.0398 66.2405L64.1098 66.0864L83.1798 65.9991L121.32 65.9287L159.46 66.0062L178.53 66.1016L197.6 66.2679C197.631 66.2682 197.656 66.2934 197.655 66.3244C197.655 66.355 197.63 66.3797 197.6 66.3799L178.53 66.5462L159.46 66.6415L121.32 66.7191L83.1798 66.6487L64.1098 66.5614L45.0398 66.4074C44.9938 66.407 44.9567 66.3693 44.957 66.3233C44.9574 66.2777 44.9944 66.2409 45.0398 66.2405Z" fill="white"/>
<path d="M67.1641 34.3001C71.6772 34.2285 76.1903 34.1979 80.7032 34.146L94.2423 34.0587C98.7554 34.0216 103.268 34.0255 107.782 34.0141L121.321 33.9883L148.399 34.0658L161.938 34.1611C166.451 34.2177 170.964 34.2508 175.477 34.3275C175.508 34.328 175.533 34.3535 175.532 34.3844C175.532 34.4146 175.507 34.4389 175.477 34.4394C170.964 34.516 166.451 34.5491 161.938 34.6057L148.399 34.7011L121.321 34.7786L107.782 34.7528C103.268 34.7413 98.7554 34.7454 94.2423 34.7081L80.7032 34.6208C76.1902 34.5689 71.6771 34.5382 67.1641 34.4668C67.1181 34.466 67.0814 34.4281 67.082 34.3821C67.0828 34.337 67.1193 34.3008 67.1641 34.3001Z" fill="white"/>
<path d="M38.4148 98.18L59.1416 98.0265L79.8684 97.9386L121.322 97.8682L162.775 97.9457L183.502 98.0412L204.229 98.2074C204.26 98.2077 204.285 98.233 204.284 98.2639C204.284 98.2945 204.259 98.3192 204.229 98.3194L183.502 98.4856L162.775 98.581L121.322 98.6585L79.8684 98.5881L59.1416 98.5002L38.4148 98.3467C38.3688 98.3464 38.3317 98.3088 38.332 98.2627C38.3323 98.2172 38.3693 98.1804 38.4148 98.18Z" fill="white"/>
<path d="M45.0398 130.121L64.1098 129.967L83.1798 129.88L121.32 129.81L159.46 129.887L178.53 129.982L197.6 130.149C197.631 130.149 197.656 130.174 197.655 130.205C197.655 130.236 197.63 130.261 197.6 130.261L178.53 130.427L159.46 130.522L121.32 130.6L83.1798 130.53L64.1098 130.442L45.0398 130.288C44.9938 130.288 44.9567 130.25 44.957 130.204C44.9574 130.159 44.9944 130.122 45.0398 130.121Z" fill="white"/>
<path d="M178.207 162.439H69.8939C69.7323 162.439 69.6016 162.308 69.6016 162.147C69.6016 161.985 69.7323 161.854 69.8939 161.854H178.207C178.368 161.854 178.499 161.985 178.499 162.147C178.499 162.308 178.368 162.439 178.207 162.439Z" fill="white"/>
</g>
<path d="M3.76953 207.336L127.317 207.336V182.608L3.76953 182.609C6.41399 182.609 6.41399 207.336 3.76953 207.336Z" fill="#91B3FA"/>
<path d="M127.315 201.15V189.833C127.315 185.844 124.873 182.61 121.861 182.61H4.28846C1.91997 182.61 0 180.69 0 178.322C0 177.602 0.583399 177.019 1.30299 177.019H129.801C132.748 177.019 137.426 181.652 137.426 187.367V203.172C137.426 208.561 132.884 212.929 130.106 212.929H1.97897C0.886077 212.929 7.70531e-05 212.043 7.70531e-05 210.95C7.70531e-05 208.955 1.61737 207.338 3.61233 207.338H122.643C125.223 207.337 127.315 204.567 127.315 201.15Z" fill="url(#paint0_linear_2194_28961)"/>
<path d="M123.889 187.942H8.04744C7.9046 187.942 7.78906 187.826 7.78906 187.683C7.78906 187.54 7.9046 187.425 8.04744 187.425H123.89C124.032 187.425 124.148 187.54 124.148 187.683C124.148 187.826 124.032 187.942 123.889 187.942Z" fill="white"/>
<path d="M123.889 191.612H8.04744C7.9046 191.612 7.78906 191.497 7.78906 191.354C7.78906 191.211 7.9046 191.096 8.04744 191.096H123.89C124.032 191.096 124.148 191.211 124.148 191.354C124.148 191.497 124.032 191.612 123.889 191.612Z" fill="white"/>
<path d="M123.889 195.282H8.04744C7.9046 195.282 7.78906 195.167 7.78906 195.024C7.78906 194.881 7.9046 194.766 8.04744 194.766H123.89C124.032 194.766 124.148 194.881 124.148 195.024C124.148 195.167 124.032 195.282 123.889 195.282Z" fill="white"/>
<path d="M123.889 198.951H8.04744C7.9046 198.951 7.78906 198.836 7.78906 198.693C7.78906 198.55 7.9046 198.435 8.04744 198.435H123.89C124.032 198.435 124.148 198.55 124.148 198.693C124.148 198.836 124.032 198.951 123.889 198.951Z" fill="white"/>
<path d="M123.889 202.622H8.04744C7.9046 202.622 7.78906 202.507 7.78906 202.364C7.78906 202.221 7.9046 202.105 8.04744 202.105H123.89C124.032 202.105 124.148 202.221 124.148 202.364C124.148 202.507 124.032 202.622 123.889 202.622Z" fill="white"/>
<path d="M17.5102 176.905H125.604C126.453 176.905 127.141 176.216 127.141 175.367V151.608C127.141 150.759 126.453 150.07 125.604 150.07H17.5102C16.661 150.07 15.9727 150.759 15.9727 151.608V175.367C15.9727 176.216 16.661 176.905 17.5102 176.905Z" fill="url(#paint1_linear_2194_28961)"/>
<path d="M102.074 173.821H114.025C114.331 173.821 114.579 173.573 114.579 173.267V153.708C114.579 153.402 114.331 153.154 114.025 153.154H102.074C101.768 153.154 101.52 153.402 101.52 153.708V173.267C101.52 173.573 101.768 173.821 102.074 173.821Z" fill="#91B3FA"/>
<path d="M94.976 173.821H99.3148C99.4698 173.821 99.5956 173.695 99.5956 173.54V153.435C99.5956 153.28 99.4698 153.154 99.3148 153.154H94.9761C94.821 153.154 94.6953 153.28 94.6953 153.435V173.54C94.6953 173.695 94.821 173.821 94.976 173.821Z" fill="#91B3FA"/>
<path d="M48.3009 106.031C48.3009 106.031 48.2981 106.879 45.5614 106.826C44.0354 106.796 41.2056 106.463 39.6068 108.85C38.7814 110.083 37.278 110.646 35.8674 110.186C32.3541 109.042 26.4748 108.203 22.8168 113.46C20.0247 117.472 21.402 120.222 23.4283 121.954C24.9166 123.227 25.2127 125.447 24.0049 126.989C22.8466 128.467 22.3797 130.616 24.471 133.555C29.1574 140.142 41.2539 132.006 41.2539 132.006L52.5491 112.847L48.3009 106.031Z" fill="url(#paint2_linear_2194_28961)"/>
<path d="M25.6212 119.851C25.4806 119.851 25.3399 119.719 25.2488 119.562C24.2464 117.837 24.4616 115.429 25.7724 113.707C26.5575 112.675 27.6172 111.977 28.7564 111.743C29.5653 111.576 30.3911 111.642 31.1676 111.725C32.4784 111.863 33.7969 112.068 35.0864 112.334C35.1924 112.356 35.2983 112.378 35.4043 112.4C36.1572 112.558 36.9358 112.721 37.7134 112.723C37.7185 112.723 37.7233 112.723 37.728 112.723C38.7185 112.723 39.5847 112.437 40.1688 111.916C40.5334 111.59 40.8064 111.163 41.0706 110.75C41.3943 110.243 41.7293 109.719 42.2355 109.382C42.2501 109.372 42.2703 109.375 42.2801 109.39C42.2902 109.405 42.2862 109.425 42.2713 109.435C41.7765 109.766 41.4453 110.284 41.1251 110.785C40.8586 111.201 40.5831 111.632 40.2117 111.963C39.616 112.496 38.7342 112.788 37.728 112.788C37.7232 112.788 37.7182 112.788 37.7134 112.788C36.929 112.786 36.1472 112.622 35.3912 112.463C35.2853 112.441 35.1793 112.419 35.0733 112.397C33.7858 112.132 32.4696 111.927 31.1608 111.789C30.3893 111.707 29.569 111.642 28.7695 111.806C27.6457 112.037 26.5994 112.726 25.8238 113.746C24.5284 115.448 24.315 117.826 25.3048 119.529C25.3777 119.655 25.5399 119.847 25.6944 119.768C25.71 119.759 25.7298 119.766 25.7378 119.781C25.7461 119.797 25.7401 119.817 25.7242 119.825C25.6904 119.843 25.6558 119.851 25.6212 119.851Z" fill="white"/>
<path d="M25.6073 119.03C25.5921 119.03 25.5785 119.019 25.5755 119.004C25.3608 117.865 25.4489 116.802 25.8306 115.932C26.2777 114.913 27.159 114.163 28.1312 113.976C28.1491 113.973 28.1657 113.984 28.169 114.002C28.1723 114.019 28.161 114.036 28.1433 114.04C27.1919 114.223 26.3285 114.958 25.8898 115.958C25.5136 116.816 25.4268 117.865 25.6393 118.992C25.6426 119.01 25.6309 119.027 25.6136 119.03C25.6113 119.03 25.6093 119.03 25.6073 119.03Z" fill="white"/>
<path d="M79.2735 166.224C79.2456 166.213 64.2415 139.938 62.214 137.465C61.8729 137.049 61.3451 136.837 60.8109 136.901L56.623 137.4L51.7031 148.043L59.8995 143.27C59.0885 148.879 69.6178 157.215 73.2289 160.257C73.5954 160.565 73.6255 161.118 73.2945 161.465L71.8529 162.974C74.2197 165.373 76.9509 166.913 80.0334 167.626L79.2735 166.224Z" fill="url(#paint3_linear_2194_28961)"/>
<path d="M72.6897 162.159C72.6897 162.159 71.7696 162.456 71.4581 163.276C71.309 163.668 71.4697 164.112 71.8107 164.356C73.3258 165.442 78.3233 168.946 80.6296 169.633C80.8186 169.689 80.9984 169.518 80.9559 169.325C80.8375 168.789 80.4547 167.72 79.2215 166.153L79.3321 166.377C79.4721 166.66 79.1637 166.955 78.8886 166.8C77.3459 165.929 74.2042 164.023 72.6897 162.159Z" fill="url(#paint4_linear_2194_28961)"/>
<path d="M73.4298 172.673C73.4046 172.657 71.1535 167.233 71.1284 167.217C69.0644 154.651 64.0287 143.888 62.5436 141.057C62.2937 140.58 61.8197 140.266 61.2837 140.22L57.0815 139.861L50.1094 149.289L59.1021 146.273C57.1727 151.602 65.7972 161.896 68.7181 165.606C69.0145 165.982 68.9321 166.53 68.5378 166.802L66.8206 167.988C68.6529 170.817 71.0158 172.878 73.8903 174.2L73.4298 172.673Z" fill="url(#paint5_linear_2194_28961)"/>
<path d="M67.8012 167.36C67.8012 167.36 66.84 167.465 66.3691 168.205C66.1438 168.559 66.2113 169.026 66.4957 169.334C67.7598 170.704 71.9447 175.147 74.0643 176.286C74.2381 176.379 74.4488 176.248 74.4461 176.051C74.4386 175.502 74.2803 174.377 73.3894 172.594L73.4524 172.835C73.5322 173.141 73.1705 173.367 72.9325 173.16C71.5982 171.995 68.9071 169.492 67.8012 167.36Z" fill="url(#paint6_linear_2194_28961)"/>
<path d="M37.4141 137.876C37.4141 137.876 33.6126 143.53 33.3007 146.109C32.9887 148.688 34.3518 149.58 38.3307 149.909C50.171 150.888 56.0078 147.339 56.0078 147.339C56.8178 142.175 57.3941 140.861 64.1587 138.053C64.1587 138.053 55.6026 138.732 53.8807 138.064C52.1588 137.396 37.4141 137.876 37.4141 137.876Z" fill="url(#paint7_linear_2194_28961)"/>
<path d="M47.6974 137.127C47.6974 137.127 52.1242 132.911 54.3033 130.12C55.4812 128.61 55.8511 126.624 55.3063 124.788C54.3115 121.437 52.5435 117.965 52.3822 117.425C52.1351 116.597 47.1715 116.631 47.1715 116.631C47.1715 116.631 37.4041 122.97 33.5664 133.708L37.8764 135.05C37.8764 135.05 40.4266 130.772 42.9465 128.051C42.9465 128.051 38.5862 133.811 38.4327 136.169L47.6974 137.127Z" fill="url(#paint8_linear_2194_28961)"/>
<path d="M52.9818 112.797C52.93 112.969 51.6344 117.264 51.5331 117.353C51.4318 117.443 48.6919 117.59 47.4023 116.709L50.0345 110.886L52.9818 112.797Z" fill="url(#paint9_linear_2194_28961)"/>
<path d="M56.1302 138.792L52.8039 135.173L48.9624 136.207C48.9624 136.207 44.4837 136.901 41.9205 136.207C39.3572 135.513 39.3572 135.513 39.3572 135.513L33.5648 133.71L32.655 136.281C32.424 136.934 32.6561 137.658 33.2205 138.06C33.7217 138.416 34.3091 138.807 34.6835 138.971C35.4463 139.305 52.2557 139.076 52.2557 139.076L56.1302 138.792Z" fill="url(#paint10_linear_2194_28961)"/>
<path d="M45.1153 140.223C45.127 140.224 45.1387 140.224 45.1505 140.224L60.45 140.208C60.8282 140.207 61.1345 139.9 61.1341 139.522C61.1338 139.144 60.8257 138.831 60.4485 138.838L45.1489 138.855C44.7707 138.855 44.4645 139.162 44.4648 139.54C44.4653 139.907 44.7534 140.206 45.1153 140.223Z" fill="url(#paint11_linear_2194_28961)"/>
<path d="M74.2034 126.332H61.4619C60.5219 126.332 59.6664 126.874 59.2654 127.725L53.375 140.215H69.2094C69.8151 140.215 70.3594 139.845 70.582 139.282L75.1498 127.724C75.4137 127.056 74.9215 126.332 74.2034 126.332Z" fill="url(#paint12_linear_2194_28961)"/>
<path d="M65.2286 132.736C64.9525 133.594 65.1564 134.427 65.6842 134.597C66.2119 134.767 66.8636 134.209 67.1397 133.351C67.4158 132.493 67.2118 131.66 66.6841 131.49C66.1563 131.321 65.5046 131.878 65.2286 132.736Z" fill="#91B3FA"/>
<path d="M55.4253 106.968C55.4253 106.968 56.5882 109.052 55.813 112.477C55.0378 115.902 53.2553 116.372 52.0256 115.668C50.7959 114.965 49.1611 113.651 48.6741 110.668C48.1872 107.685 53.8484 104.342 55.4253 106.968Z" fill="url(#paint13_linear_2194_28961)"/>
<path d="M50.8944 110.247C50.8944 110.247 52.4451 105.561 55.7287 108.053L56.0765 109.184C56.0765 109.184 58.8538 108.081 57.6534 105.585C56.4529 103.088 53.5375 102.103 50.6481 104.09C47.7589 106.077 46.2401 107.732 46.6418 110.074C47.0435 112.416 48.7302 111.431 48.7302 111.431C48.7302 111.431 48.8958 109.662 49.6953 109.271C50.4948 108.879 50.6091 110.194 50.6091 110.194L50.8944 110.247Z" fill="url(#paint14_linear_2194_28961)"/>
<path d="M50.2126 110.371C50.2126 110.371 51.0239 107.967 49.5551 108.031C48.0863 108.094 48.9119 110.334 49.2873 111.144L50.2126 110.371Z" fill="url(#paint15_linear_2194_28961)"/>
<path d="M88.9811 96.9585H148.061C149.738 96.9585 151.097 95.8325 151.097 94.4434V68.3608C151.097 66.9139 149.627 65.7654 147.884 65.8501L88.8033 68.7206C87.1985 68.7985 85.9453 69.8995 85.9453 71.2313V94.4434C85.9453 95.8325 87.3045 96.9585 88.9811 96.9585Z" fill="url(#paint16_linear_2194_28961)"/>
<path d="M101.238 96.9766L114.852 105.299V96.9766H101.238Z" fill="url(#paint17_linear_2194_28961)"/>
<path d="M100.448 77.416V81.8694H105.597V77.416H106.986V88.0603H105.597V83.0697H100.448V88.0603H99.0742V77.416H100.448Z" fill="white"/>
<path d="M114.883 83.0697H110.745V86.9075H115.356V88.0603H109.371V77.416H115.12V78.5688H110.745V81.9328H114.883V83.0697Z" fill="white"/>
<path d="M117.141 77.416H118.515V86.9075H123.063V88.0603H117.141V77.416H117.141Z" fill="white"/>
<path d="M124.594 77.416H125.968V86.9075H130.516V88.0603H124.594V77.416Z" fill="white"/>
<path d="M140.525 82.6276C140.525 86.2916 138.298 88.234 135.582 88.234C132.771 88.234 130.797 86.0546 130.797 82.8327C130.797 79.4531 132.897 77.2422 135.74 77.2422C138.646 77.2422 140.525 79.469 140.525 82.6276ZM132.266 82.8012C132.266 85.0755 133.497 87.1126 135.661 87.1126C137.84 87.1126 139.072 85.107 139.072 82.6907C139.072 80.5746 137.967 78.3635 135.677 78.3635C133.403 78.3635 132.266 80.4639 132.266 82.8012Z" fill="white"/>
<path d="M141.996 87.2548C141.996 86.6861 142.391 86.2756 142.928 86.2756C143.496 86.2756 143.86 86.6861 143.86 87.2548C143.86 87.8074 143.496 88.234 142.928 88.234C142.375 88.234 141.996 87.8074 141.996 87.2548ZM142.391 84.9965L142.17 77.416H143.686L143.465 84.9965H142.391Z" fill="white"/>
<path d="M149.127 53.8081H196.747C198.099 53.8081 199.194 52.6821 199.194 51.293V25.2104C199.194 23.7635 198.009 22.6149 196.604 22.6997L148.983 25.5703C147.69 25.6482 146.68 26.7492 146.68 28.081V51.2931C146.68 52.6821 147.775 53.8081 149.127 53.8081Z" fill="url(#paint18_linear_2194_28961)"/>
<path d="M161.973 53.8262L175.587 62.5325V53.8262H161.973Z" fill="url(#paint19_linear_2194_28961)"/>
<path d="M159.808 32.1233C159.758 32.277 159.588 32.3627 159.334 32.346C158.893 33.6466 158.366 34.9665 157.788 36.2201L158.434 36.3697C158.4 36.5411 158.264 36.6619 157.975 36.6985V47.5576L155.944 47.6049V39.5997C155.567 40.1885 155.173 40.7439 154.778 41.2309C154.503 40.7702 153.901 39.8651 153.539 39.4214C155.07 37.6149 156.577 34.4264 157.464 31.3887L159.808 32.1233ZM169.589 34.4708C169.589 34.5549 169.375 36.5269 168.864 38.6046L167.642 38.3979C168.584 40.1761 169.391 42.4737 169.688 44.0349L167.79 44.7792C167.559 43.2127 166.747 40.8084 165.85 39.026L167.575 38.3816L167.178 38.318C167.261 37.7934 167.344 37.066 167.443 36.3219L165.4 36.3366V45.1138C165.4 46.6728 165.067 47.4091 162.154 47.477C162.053 46.8836 161.75 45.9704 161.463 45.431C162.17 45.4337 162.893 45.419 163.128 45.4143C163.345 45.4098 163.412 45.3405 163.412 45.1197V36.351L161.615 36.3639C161.076 37.5613 160.468 38.6419 159.791 39.5032C159.436 39.1313 158.706 38.5237 158.247 38.22C159.504 36.7038 160.536 34.0337 161.093 31.44L163.446 32.0686C163.396 32.2046 163.245 32.3067 162.993 32.2899C162.809 33.0216 162.59 33.7536 162.338 34.4693L168.518 34.4417L169.589 34.4708ZM162.943 39.1772C162.909 39.3137 162.742 39.4006 162.523 39.4031C162.019 41.4013 161.16 43.6131 160.164 45.0136C159.775 44.7138 159.029 44.2664 158.57 44.0353C159.52 42.7875 160.299 40.6239 160.721 38.6222L162.943 39.1772Z" fill="white"/>
<path d="M177.297 34.6856L178.324 34.93L178.228 35.2629C178.036 38.0916 177.618 40.4259 176.878 42.3018C177.602 42.9058 178.244 43.5103 178.645 44.0348L177.49 45.6711C177.136 45.1957 176.62 44.6562 176.023 44.1007C175.264 45.4176 174.275 46.4417 173.056 47.2564C172.795 46.7596 172.289 46.0496 171.881 45.6892C172.974 45.063 173.869 44.1076 174.567 42.8574C174.275 42.6115 173.967 42.3992 173.674 42.1694L173.544 42.7074L171.946 41.878C172.322 40.48 172.73 38.5802 173.121 36.6158L171.832 36.6257V34.7626L173.463 34.7545C173.674 33.5817 173.869 32.443 174.032 31.4053L176.233 31.6386C176.217 31.7888 176.088 31.8889 175.814 31.9058C175.652 32.7738 175.474 33.7427 175.28 34.7454L176.975 34.737L177.297 34.6856ZM174.908 36.6021C174.648 37.858 174.373 39.1314 174.113 40.3056C174.502 40.5513 174.924 40.8296 175.345 41.1242C175.797 39.8328 176.12 38.3109 176.314 36.5912L174.908 36.6021ZM186.812 38.5955V40.4668L183.354 40.5139V44.7715C183.354 46.4052 182.816 47.0117 179.845 47.048C179.749 46.5026 179.429 45.6467 179.173 45.1042C179.765 45.1088 180.387 45.1125 180.769 45.1047C181.31 45.0937 181.437 45.0911 181.437 44.7932V40.54L178.036 40.5864V38.6904L181.437 38.6536V36.1051L182.025 36.1339C182.563 35.5518 183.101 34.7892 183.559 34.0609L178.613 34.0806V32.2361L184.93 32.2282L185.244 32.1289L186.702 33.0467C186.64 33.162 186.483 33.2445 186.327 33.2778C185.59 34.4311 184.442 35.9684 183.354 37.0651V38.6328L186.812 38.5955Z" fill="white"/>
<path d="M189.242 44.0152C189.242 43.1321 189.816 42.5009 190.605 42.4876C191.408 42.4742 191.963 43.0839 191.963 43.9634C191.963 44.8104 191.439 45.4569 190.605 45.4746C189.769 45.4925 189.242 44.8495 189.242 44.0152ZM191.5 41.3153L189.708 41.3423L189.397 32.7452L191.809 32.7402L191.5 41.3153Z" fill="white"/>
<path d="M66.0674 77.8729H18.4469C17.0955 77.8729 16 76.8763 16 75.6469V52.562C16 51.2814 17.1849 50.2649 18.5902 50.3398L66.2107 52.8805C67.5042 52.9495 68.5144 53.9239 68.5144 55.1027V75.6469C68.5143 76.8763 67.4188 77.8729 66.0674 77.8729Z" fill="url(#paint20_linear_2194_28961)"/>
<path d="M53.2194 77.6299L39.6055 85.3356V77.6299H53.2194Z" fill="url(#paint21_linear_2194_28961)"/>
<path d="M25.9952 60.3105V64.764H31.1435V60.3105H32.5331V70.9548H31.1435V65.9642H25.9952V70.9548H24.6211V60.3105H25.9952Z" fill="white"/>
<path d="M44.0136 65.5221C44.0136 69.1861 41.7867 71.1286 39.0704 71.1286C36.2592 71.1286 34.2852 68.9491 34.2852 65.7272C34.2852 62.3477 36.3859 60.1367 39.2283 60.1367C42.1344 60.1366 44.0136 62.3635 44.0136 65.5221ZM35.7541 65.6956C35.7541 67.9699 36.9859 70.0071 39.1494 70.0071C41.3288 70.0071 42.5608 68.0015 42.5608 65.5852C42.5608 63.4691 41.4552 61.2579 39.1653 61.2579C36.891 61.2579 35.7541 63.3583 35.7541 65.6956Z" fill="white"/>
<path d="M45.7969 60.3105H47.1709V69.802H51.7195V70.9548H45.7969V60.3105Z" fill="white"/>
<path d="M54.9722 67.6067L53.8666 70.9548H52.4453L56.0618 60.3105H57.72L61.3525 70.9548H59.8835L58.7466 67.6067H54.9722ZM58.4623 66.5329L57.4201 63.4692C57.1831 62.7741 57.0252 62.1425 56.8673 61.5267H56.8357C56.6778 62.1582 56.5042 62.8059 56.2988 63.4532L55.2563 66.5329H58.4623Z" fill="white"/>
<path d="M62.5977 70.1494C62.5977 69.5807 62.9925 69.1702 63.5294 69.1702C64.0979 69.1702 64.4612 69.5807 64.4612 70.1494C64.4612 70.702 64.0978 71.1286 63.5294 71.1286C62.9766 71.1286 62.5977 70.702 62.5977 70.1494ZM62.9925 67.8911L62.7715 60.3105H64.2873L64.0663 67.8911H62.9925Z" fill="white"/>
<path d="M163.329 112.966C163.696 112.609 163.679 112.015 163.293 111.68L117.662 70.9663C117.534 70.8522 117.35 70.826 117.195 70.9001C116.923 71.03 116.869 71.3932 117.091 71.5969L162.129 112.983C162.47 113.296 162.997 113.289 163.329 112.966Z" fill="url(#paint22_linear_2194_28961)"/>
<path d="M190.012 213.203C190.011 213.138 190.015 213.073 190.032 213.007C191.008 209.135 195.856 206.723 195.856 206.723L197.777 206.873C198.882 210.286 198.74 212.38 198.563 213.312C198.558 213.338 198.55 213.363 198.543 213.388C196.958 213.53 193.696 213.622 190.012 213.203Z" fill="url(#paint23_linear_2194_28961)"/>
<path d="M198.543 213.388C198.457 213.7 198.227 213.942 197.933 214.004C195.679 214.478 192.096 214.097 190.592 213.9C190.26 213.857 190.017 213.55 190.012 213.203C193.696 213.622 196.958 213.53 198.543 213.388Z" fill="url(#paint24_linear_2194_28961)"/>
<path d="M206.149 144.653C207.335 145.92 209.082 147.014 210.311 147.696C208.476 149.966 205.991 152.238 202.703 154.462L201.762 156.574L198.746 152.96C198.746 152.96 204.157 150.267 206.149 144.653Z" fill="url(#paint25_linear_2194_28961)"/>
<path d="M198.548 204.012L197.734 207.928C197.675 208.215 197.454 208.43 197.187 208.455C196.86 208.486 196.395 208.504 195.927 208.435C195.507 208.374 195.214 207.947 195.289 207.489L195.855 204.012H198.548Z" fill="url(#paint26_linear_2194_28961)"/>
<path d="M181.688 213.349C183.81 213.289 184.907 213.04 185.475 212.808C185.476 213.019 185.475 213.233 185.468 213.456C185.461 213.693 185.285 213.883 185.068 213.882L173.419 213.806C173.047 213.804 172.83 213.373 172.991 213.032C174.519 213.158 178.409 213.441 181.688 213.349Z" fill="url(#paint27_linear_2194_28961)"/>
<path d="M172.992 213.031C173.006 213.001 173.018 212.971 173.038 212.943C174.067 211.506 176.687 208.643 181.865 207.402L184.349 207.323C184.349 207.323 185.455 209.246 185.476 212.806C184.908 213.038 183.811 213.288 181.689 213.348C178.41 213.439 174.52 213.157 172.992 213.031Z" fill="url(#paint28_linear_2194_28961)"/>
<path d="M184.812 203.559C184.785 203.745 184.444 206.559 184.313 207.649C184.281 207.909 184.094 208.109 183.857 208.138C183.434 208.188 182.749 208.234 182.151 208.111C181.828 208.045 181.594 207.735 181.594 207.374V202.957L184.812 203.559Z" fill="url(#paint29_linear_2194_28961)"/>
<path d="M186.806 152.207C186.806 152.207 180.815 174.974 180.923 203.625C180.925 204.147 181.292 204.598 181.803 204.706C182.556 204.864 183.664 205.053 184.58 205.027C185.07 205.013 185.479 204.65 185.561 204.168C186.401 199.242 191.222 171.49 193.968 166.985C193.968 166.985 195.775 191.702 195.198 204.525C195.183 204.843 195.417 205.12 195.734 205.157C196.215 205.212 196.984 205.254 197.963 205.15C198.335 205.111 198.635 204.83 198.688 204.46C199.286 200.291 202.73 175.475 202.584 157.598C202.575 156.59 199.918 152.207 199.918 152.207H186.806Z" fill="url(#paint30_linear_2194_28961)"/>
<path d="M177.619 121.544C178.668 118.862 180.437 117.026 182.217 114.905C188.886 116.115 199.818 117.194 204.376 117.768C205.799 117.947 207.101 118.649 208.039 119.734C211.758 124.038 219.92 135.823 210.314 147.697C209.084 147.015 207.337 145.92 206.151 144.654C207.214 141.658 207.301 137.829 205.073 133.134C204.997 133.507 204.903 133.875 204.789 134.238C201.719 143.963 201.555 152.057 201.562 153.922C201.563 154.175 201.411 154.403 201.176 154.498C197.135 156.117 189.358 155.153 186.747 154.764C186.268 154.693 185.946 154.247 186.012 153.767C187.294 144.484 180.718 129.213 178.981 125.388C178.727 124.829 178.279 124.379 177.719 124.126C177.438 123.999 177.163 123.869 176.891 123.738C177.098 122.998 177.336 122.265 177.619 121.544Z" fill="url(#paint31_linear_2194_28961)"/>
<path d="M197.389 108.837L197.864 117.136C197.878 117.381 197.719 117.602 197.481 117.662C196.428 117.927 193.517 118.456 190.983 117.014C190.655 116.827 190.503 116.434 190.606 116.07L192.725 108.613L197.389 108.837Z" fill="url(#paint32_linear_2194_28961)"/>
<path d="M192.198 99.7685C192.091 99.87 187.652 108.586 187.652 108.586L192.683 111.014L198.117 103.378C198.117 103.378 194.002 98.071 192.198 99.7685Z" fill="url(#paint33_linear_2194_28961)"/>
<path d="M195.89 103.589C195.98 103.821 195.958 104.08 195.83 104.294L193.321 108.476C193.283 108.54 193.237 108.597 193.183 108.648C192.885 108.925 191.863 109.734 191.073 108.633C190.399 107.695 189.768 106.842 189.091 106.49C188.695 106.285 188.209 106.449 188.008 106.846C187.595 107.666 186.794 109.336 186.291 110.92C186.165 111.316 186.37 111.743 186.756 111.899C187.774 112.312 189.788 113.058 191.574 113.305C191.868 113.345 192.158 113.221 192.333 112.982C193.101 111.929 195.268 108.987 196.007 108.25C196.694 107.566 197.962 107.824 198.533 107.988C198.75 108.05 198.981 108.02 199.174 107.904C199.754 107.555 200.765 106.685 199.84 105.214C199.61 104.848 199.727 104.36 200.088 104.123C200.735 103.697 201.437 102.898 200.768 101.604C200.091 100.294 198.882 100.177 198.058 100.277C197.694 100.322 197.324 100.131 197.184 99.7914C197.122 99.6404 196.999 99.5117 196.77 99.4653C196.338 99.3777 196.055 98.9829 196.14 98.5507C196.285 97.8095 196.175 96.8467 194.992 96.1959C192.821 95.0026 190.92 96.947 190.437 98.5885C189.953 100.23 192.38 101.39 193.907 101.584C195.028 101.726 195.643 102.949 195.89 103.589Z" fill="url(#paint34_linear_2194_28961)"/>
<path d="M195.066 109.787C195.066 109.787 196.032 106.963 197.267 107.066C198.502 107.17 199.475 108.401 197.944 109.784C196.039 111.505 195.066 109.787 195.066 109.787Z" fill="url(#paint35_linear_2194_28961)"/>
<path d="M205.479 132.407C207.108 127.95 206.517 122.568 206.511 122.515L206.062 122.566C206.068 122.619 206.646 127.897 205.055 132.251L205.479 132.407Z" fill="url(#paint36_linear_2194_28961)"/>
<path d="M194.187 166.405C194.287 166.405 194.379 166.337 194.405 166.235C194.902 164.319 198.622 162.214 198.66 162.192C198.769 162.132 198.807 161.994 198.746 161.885C198.685 161.776 198.548 161.737 198.439 161.799C198.279 161.888 194.513 164.02 193.968 166.122C193.937 166.243 194.009 166.366 194.13 166.397C194.149 166.402 194.168 166.405 194.187 166.405Z" fill="url(#paint37_linear_2194_28961)"/>
<path d="M162.36 117.479C168.701 119.797 182.215 114.904 182.215 114.904L183.144 125.945C172.323 129.366 165.281 128.37 160.702 125.499C160.418 122.235 161.398 119.395 162.36 117.479Z" fill="url(#paint38_linear_2194_28961)"/>
<path d="M152.264 106.085L154.917 105.56C154.917 105.56 155.641 114.004 161.552 117.125C161.805 117.259 162.076 117.376 162.36 117.48C161.398 119.396 160.418 122.236 160.702 125.499C151.397 119.665 152.264 106.085 152.264 106.085Z" fill="url(#paint39_linear_2194_28961)"/>
<path d="M154.786 106.295L154.921 105.559C154.921 105.559 155.474 103.761 154.01 101.991C151.894 99.433 150.344 100.374 150.344 100.374C150.344 100.374 150.454 100.921 150.447 101.406C150.441 101.798 149.972 101.996 149.683 101.731L146.229 98.5566C146.229 98.5566 145.262 103.598 152.67 107.063L154.786 106.295Z" fill="url(#paint40_linear_2194_28961)"/>
<defs>
<linearGradient id="paint0_linear_2194_28961" x1="170.387" y1="25.442" x2="116.131" y2="114.318" gradientUnits="userSpaceOnUse">
<stop stop-color="#09005D"/>
<stop offset="1" stop-color="#1A0F91"/>
</linearGradient>
<linearGradient id="paint1_linear_2194_28961" x1="72.3123" y1="132.894" x2="71.0027" y2="185.933" gradientUnits="userSpaceOnUse">
<stop stop-color="#4F52FF"/>
<stop offset="1" stop-color="#4042E2"/>
</linearGradient>
<linearGradient id="paint2_linear_2194_28961" x1="58.0105" y1="108.746" x2="23.4961" y2="126.574" gradientUnits="userSpaceOnUse">
<stop stop-color="#09005D"/>
<stop offset="1" stop-color="#1A0F91"/>
</linearGradient>
<linearGradient id="paint3_linear_2194_28961" x1="82.8699" y1="144.213" x2="59.215" y2="157.715" gradientUnits="userSpaceOnUse">
<stop stop-color="#FEBBBA"/>
<stop offset="1" stop-color="#FF928E"/>
</linearGradient>
<linearGradient id="paint4_linear_2194_28961" x1="79.2427" y1="294.261" x2="82.1315" y2="414.862" gradientUnits="userSpaceOnUse">
<stop stop-color="#09005D"/>
<stop offset="1" stop-color="#1A0F91"/>
</linearGradient>
<linearGradient id="paint5_linear_2194_28961" x1="80.5821" y1="147.58" x2="161.517" y2="96.9133" gradientUnits="userSpaceOnUse">
<stop stop-color="#FEBBBA"/>
<stop offset="1" stop-color="#FF928E"/>
</linearGradient>
<linearGradient id="paint6_linear_2194_28961" x1="-94.5017" y1="1078.85" x2="-116.084" y2="1197.54" gradientUnits="userSpaceOnUse">
<stop stop-color="#09005D"/>
<stop offset="1" stop-color="#1A0F91"/>
</linearGradient>
<linearGradient id="paint7_linear_2194_28961" x1="55.3832" y1="129.473" x2="26.247" y2="182.142" gradientUnits="userSpaceOnUse">
<stop stop-color="#09005D"/>
<stop offset="1" stop-color="#1A0F91"/>
</linearGradient>
<linearGradient id="paint8_linear_2194_28961" x1="101.964" y1="67.4466" x2="68.2493" y2="103.874" gradientUnits="userSpaceOnUse">
<stop stop-color="#FF928E"/>
<stop offset="1" stop-color="#FE7062"/>
</linearGradient>
<linearGradient id="paint9_linear_2194_28961" x1="48.8629" y1="123.282" x2="50.47" y2="112.969" gradientUnits="userSpaceOnUse">
<stop stop-color="#FEBBBA"/>
<stop offset="1" stop-color="#FF928E"/>
</linearGradient>
<linearGradient id="paint10_linear_2194_28961" x1="41.4434" y1="136.431" x2="17.8796" y2="136.431" gradientUnits="userSpaceOnUse">
<stop stop-color="#FEBBBA"/>
<stop offset="1" stop-color="#FF928E"/>
</linearGradient>
<linearGradient id="paint11_linear_2194_28961" x1="42.5196" y1="136.158" x2="54.6648" y2="140.142" gradientUnits="userSpaceOnUse">
<stop stop-color="#4F52FF"/>
<stop offset="1" stop-color="#4042E2"/>
</linearGradient>
<linearGradient id="paint12_linear_2194_28961" x1="59.2033" y1="128.195" x2="67.9498" y2="137.439" gradientUnits="userSpaceOnUse">
<stop stop-color="#09005D"/>
<stop offset="1" stop-color="#1A0F91"/>
</linearGradient>
<linearGradient id="paint13_linear_2194_28961" x1="51.097" y1="118.86" x2="54.8168" y2="94.3249" gradientUnits="userSpaceOnUse">
<stop stop-color="#FEBBBA"/>
<stop offset="1" stop-color="#FF928E"/>
</linearGradient>
<linearGradient id="paint14_linear_2194_28961" x1="57.7945" y1="104.321" x2="21.7438" y2="122.943" gradientUnits="userSpaceOnUse">
<stop stop-color="#09005D"/>
<stop offset="1" stop-color="#1A0F91"/>
</linearGradient>
<linearGradient id="paint15_linear_2194_28961" x1="48.1647" y1="118.414" x2="51.8844" y2="93.8796" gradientUnits="userSpaceOnUse">
<stop stop-color="#FEBBBA"/>
<stop offset="1" stop-color="#FF928E"/>
</linearGradient>
<linearGradient id="paint16_linear_2194_28961" x1="4.87367" y1="627.831" x2="16.2414" y2="573.317" gradientUnits="userSpaceOnUse">
<stop stop-color="#FF928E"/>
<stop offset="1" stop-color="#FE7062"/>
</linearGradient>
<linearGradient id="paint17_linear_2194_28961" x1="-1.50855" y1="626.5" x2="9.85926" y2="571.986" gradientUnits="userSpaceOnUse">
<stop stop-color="#FF928E"/>
<stop offset="1" stop-color="#FE7062"/>
</linearGradient>
<linearGradient id="paint18_linear_2194_28961" x1="-293.108" y1="918.517" x2="-329.279" y2="986.724" gradientUnits="userSpaceOnUse">
<stop stop-color="#FF928E"/>
<stop offset="1" stop-color="#FE7062"/>
</linearGradient>
<linearGradient id="paint19_linear_2194_28961" x1="-288.7" y1="920.858" x2="-324.871" y2="989.066" gradientUnits="userSpaceOnUse">
<stop stop-color="#FF928E"/>
<stop offset="1" stop-color="#FE7062"/>
</linearGradient>
<linearGradient id="paint20_linear_2194_28961" x1="42.2572" y1="47.0475" x2="42.2572" y2="110.604" gradientUnits="userSpaceOnUse">
<stop stop-color="#FF928E"/>
<stop offset="1" stop-color="#FE7062"/>
</linearGradient>
<linearGradient id="paint21_linear_2194_28961" x1="46.4124" y1="47.0468" x2="46.4124" y2="110.603" gradientUnits="userSpaceOnUse">
<stop stop-color="#FF928E"/>
<stop offset="1" stop-color="#FE7062"/>
</linearGradient>
<linearGradient id="paint22_linear_2194_28961" x1="134.916" y1="80.4587" x2="191.229" y2="199.268" gradientUnits="userSpaceOnUse">
<stop stop-color="#09005D"/>
<stop offset="1" stop-color="#1A0F91"/>
</linearGradient>
<linearGradient id="paint23_linear_2194_28961" x1="198.684" y1="210.115" x2="190.012" y2="210.115" gradientUnits="userSpaceOnUse">
<stop stop-color="#09005D"/>
<stop offset="1" stop-color="#1A0F91"/>
</linearGradient>
<linearGradient id="paint24_linear_2194_28961" x1="176.973" y1="199.885" x2="208.523" y2="224.657" gradientUnits="userSpaceOnUse">
<stop stop-color="#4F52FF"/>
<stop offset="1" stop-color="#4042E2"/>
</linearGradient>
<linearGradient id="paint25_linear_2194_28961" x1="210.311" y1="150.614" x2="198.746" y2="150.614" gradientUnits="userSpaceOnUse">
<stop stop-color="#FEBBBA"/>
<stop offset="1" stop-color="#FF928E"/>
</linearGradient>
<linearGradient id="paint26_linear_2194_28961" x1="196.27" y1="200.242" x2="197.927" y2="214.699" gradientUnits="userSpaceOnUse">
<stop stop-color="#FEBBBA"/>
<stop offset="1" stop-color="#FF928E"/>
</linearGradient>
<linearGradient id="paint27_linear_2194_28961" x1="171.365" y1="207.022" x2="202.915" y2="231.795" gradientUnits="userSpaceOnUse">
<stop stop-color="#4F52FF"/>
<stop offset="1" stop-color="#4042E2"/>
</linearGradient>
<linearGradient id="paint28_linear_2194_28961" x1="185.476" y1="210.344" x2="172.992" y2="210.344" gradientUnits="userSpaceOnUse">
<stop stop-color="#09005D"/>
<stop offset="1" stop-color="#1A0F91"/>
</linearGradient>
<linearGradient id="paint29_linear_2194_28961" x1="182.779" y1="201.788" x2="184.435" y2="216.245" gradientUnits="userSpaceOnUse">
<stop stop-color="#FEBBBA"/>
<stop offset="1" stop-color="#FF928E"/>
</linearGradient>
<linearGradient id="paint30_linear_2194_28961" x1="163.097" y1="135.678" x2="216.079" y2="217.892" gradientUnits="userSpaceOnUse">
<stop stop-color="#4F52FF"/>
<stop offset="1" stop-color="#4042E2"/>
</linearGradient>
<linearGradient id="paint31_linear_2194_28961" x1="-1623.87" y1="1261.03" x2="-1540.17" y2="1209.1" gradientUnits="userSpaceOnUse">
<stop stop-color="#FF928E"/>
<stop offset="1" stop-color="#FE7062"/>
</linearGradient>
<linearGradient id="paint32_linear_2194_28961" x1="192.583" y1="106.571" x2="199.378" y2="135.938" gradientUnits="userSpaceOnUse">
<stop stop-color="#FEBBBA"/>
<stop offset="1" stop-color="#FF928E"/>
</linearGradient>
<linearGradient id="paint33_linear_2194_28961" x1="193.66" y1="101.416" x2="190.543" y2="119.761" gradientUnits="userSpaceOnUse">
<stop stop-color="#FEBBBA"/>
<stop offset="1" stop-color="#FF928E"/>
</linearGradient>
<linearGradient id="paint34_linear_2194_28961" x1="196.938" y1="110.099" x2="187.751" y2="100.339" gradientUnits="userSpaceOnUse">
<stop stop-color="#09005D"/>
<stop offset="1" stop-color="#1A0F91"/>
</linearGradient>
<linearGradient id="paint35_linear_2194_28961" x1="196.366" y1="121.44" x2="196.921" y2="108.558" gradientUnits="userSpaceOnUse">
<stop stop-color="#FEBBBA"/>
<stop offset="1" stop-color="#FF928E"/>
</linearGradient>
<linearGradient id="paint36_linear_2194_28961" x1="251.054" y1="73.088" x2="171.478" y2="168.682" gradientUnits="userSpaceOnUse">
<stop stop-color="#E1473D"/>
<stop offset="1" stop-color="#E9605A"/>
</linearGradient>
<linearGradient id="paint37_linear_2194_28961" x1="188.109" y1="78.5418" x2="193.534" y2="134.732" gradientUnits="userSpaceOnUse">
<stop stop-color="#09005D"/>
<stop offset="1" stop-color="#1A0F91"/>
</linearGradient>
<linearGradient id="paint38_linear_2194_28961" x1="-1634.96" y1="1243.16" x2="-1551.26" y2="1191.23" gradientUnits="userSpaceOnUse">
<stop stop-color="#FF928E"/>
<stop offset="1" stop-color="#FE7062"/>
</linearGradient>
<linearGradient id="paint39_linear_2194_28961" x1="151.688" y1="96.086" x2="158.531" y2="118.451" gradientUnits="userSpaceOnUse">
<stop stop-color="#FEBBBA"/>
<stop offset="1" stop-color="#FF928E"/>
</linearGradient>
<linearGradient id="paint40_linear_2194_28961" x1="149.027" y1="96.9007" x2="155.87" y2="119.265" gradientUnits="userSpaceOnUse">
<stop stop-color="#FEBBBA"/>
<stop offset="1" stop-color="#FF928E"/>
</linearGradient>
</defs>
</svg>
