<svg width="220" height="221" viewBox="0 0 220 221" fill="none" xmlns="http://www.w3.org/2000/svg">
<path d="M210.549 149.055C188.921 200.852 130.568 223.643 84.6148 220.375C72.0676 219.483 46.8224 217.688 26.924 199.402C-11.2894 164.285 -6.28589 89.942 29.4358 45.8107C34.036 40.1275 65.8918 2.03928 116.189 1.98833C153.013 1.95102 179.086 22.3307 182.257 24.8704C186.263 28.0788 195.104 35.7105 203.131 47.884C221.991 76.4874 224.065 116.686 210.549 149.055Z" fill="url(#paint0_linear_2194_29859)"/>
<path d="M5.88987 64.6258H80.8494C83.8882 64.6258 86.4283 62.314 86.7134 59.2886L91.4377 9.16686C91.7593 5.75532 89.112 2.79046 85.6859 2.72525L6.00205 1.20812C2.70586 1.14537 1.78522e-09 3.80014 1.78522e-09 7.09696V58.7359C-7.9226e-05 61.9889 2.63693 64.6258 5.88987 64.6258Z" fill="url(#paint1_linear_2194_29859)"/>
<path d="M86.6479 13.6343L83.2974 56.9752C83.1518 58.8579 81.5918 60.3173 79.7036 60.337L7.75905 61.0907C5.73232 61.1119 4.07812 59.4749 4.07812 57.4482V10.7874C4.07812 8.72688 5.78564 7.07649 7.84501 7.14669L83.1401 9.71287C85.2122 9.78346 86.8077 11.567 86.6479 13.6343Z" fill="url(#paint2_linear_2194_29859)"/>
<path d="M48.2365 13.2373L7.66597 12.0238C7.2501 12.0113 6.90625 12.345 6.90625 12.7611V13.4144C6.90625 13.8178 7.23037 14.1464 7.6338 14.152L48.2043 14.7122C48.6157 14.7179 48.9523 14.386 48.9523 13.9746C48.9522 13.5758 48.6352 13.2492 48.2365 13.2373Z" fill="#91B3FA"/>
<path d="M48.9522 17.3764V17.6548C48.9522 18.0622 48.6219 18.3925 48.2145 18.3925H7.64394C7.23655 18.3925 6.90625 18.0622 6.90625 17.6548V17.3764C6.90625 16.969 7.23655 16.6387 7.64394 16.6387H48.2145C48.6219 16.6387 48.9522 16.969 48.9522 17.3764Z" fill="#91B3FA"/>
<path d="M36.6383 21.013V21.1353C36.6383 21.5427 36.308 21.873 35.9006 21.873H7.64394C7.23655 21.873 6.90625 21.5427 6.90625 21.1353V20.5609C6.90625 20.1489 7.24376 19.8168 7.65575 19.8233L35.9124 20.2755C36.3152 20.2819 36.6383 20.6102 36.6383 21.013Z" fill="#91B3FA"/>
<path d="M17.6637 43.4186C17.557 43.4186 17.4504 43.3812 17.3651 43.3067L10.6512 37.4388C10.4626 37.2737 10.4433 36.9873 10.6082 36.7985C10.773 36.6098 11.0597 36.5909 11.2484 36.7554L17.6743 42.372L29.7473 32.564C29.9075 32.4337 30.1352 32.4284 30.3014 32.5501L42.1619 41.2367L58.7984 21.2786C58.8768 21.1844 58.9897 21.1262 59.1116 21.1167C59.2308 21.1067 59.354 21.1472 59.4459 21.2278C59.4459 21.2278 73.7561 33.7754 75.5316 35.3287C75.7203 35.4935 75.7394 35.7803 75.5745 35.9687C75.4094 36.1571 75.1227 36.1764 74.9343 36.0116C73.3238 34.6028 61.4016 24.1494 59.1976 22.2167L42.586 42.1449C42.4326 42.3289 42.1628 42.362 41.9695 42.2205L30.0477 33.489L17.9497 43.3171C17.8663 43.385 17.7649 43.4186 17.6637 43.4186Z" fill="url(#paint3_linear_2194_29859)"/>
<path d="M58.8962 53.9907C58.7292 53.9907 58.5938 53.8554 58.5938 53.6883V52.7809C58.5938 52.6138 58.7292 52.4785 58.8962 52.4785C59.0632 52.4785 59.1986 52.6138 59.1986 52.7809V53.6883C59.1986 53.8554 59.0632 53.9907 58.8962 53.9907ZM58.8962 50.9664C58.7292 50.9664 58.5938 50.8312 58.5938 50.664V49.7567C58.5938 49.5895 58.7292 49.4543 58.8962 49.4543C59.0632 49.4543 59.1986 49.5895 59.1986 49.7567V50.664C59.1986 50.8312 59.0632 50.9664 58.8962 50.9664ZM58.8962 47.9421C58.7292 47.9421 58.5938 47.8069 58.5938 47.6397V46.7324C58.5938 46.5652 58.7292 46.43 58.8962 46.43C59.0632 46.43 59.1986 46.5652 59.1986 46.7324V47.6397C59.1986 47.8068 59.0632 47.9421 58.8962 47.9421ZM58.8962 44.9178C58.7292 44.9178 58.5938 44.7825 58.5938 44.6153V43.708C58.5938 43.5409 58.7292 43.4056 58.8962 43.4056C59.0632 43.4056 59.1986 43.5409 59.1986 43.708V44.6153C59.1986 44.7825 59.0632 44.9178 58.8962 44.9178ZM58.8962 41.8935C58.7292 41.8935 58.5938 41.7582 58.5938 41.5911V40.6837C58.5938 40.5166 58.7292 40.3813 58.8962 40.3813C59.0632 40.3813 59.1986 40.5166 59.1986 40.6837V41.5911C59.1986 41.7582 59.0632 41.8935 58.8962 41.8935ZM58.8962 38.8692C58.7292 38.8692 58.5938 38.734 58.5938 38.5668V37.6595C58.5938 37.4923 58.7292 37.357 58.8962 37.357C59.0632 37.357 59.1986 37.4923 59.1986 37.6595V38.5668C59.1986 38.7339 59.0632 38.8692 58.8962 38.8692ZM58.8962 35.8448C58.7292 35.8448 58.5938 35.7096 58.5938 35.5424V34.6351C58.5938 34.4679 58.7292 34.3327 58.8962 34.3327C59.0632 34.3327 59.1986 34.4679 59.1986 34.6351V35.5424C59.1986 35.7096 59.0632 35.8448 58.8962 35.8448ZM58.8962 32.8206C58.7292 32.8206 58.5938 32.6853 58.5938 32.5181V31.6108C58.5938 31.4437 58.7292 31.3084 58.8962 31.3084C59.0632 31.3084 59.1986 31.4437 59.1986 31.6108V32.5181C59.1986 32.6853 59.0632 32.8206 58.8962 32.8206ZM58.8962 29.7963C58.7292 29.7963 58.5938 29.661 58.5938 29.4939V28.5865C58.5938 28.4194 58.7292 28.2841 58.8962 28.2841C59.0632 28.2841 59.1986 28.4194 59.1986 28.5865V29.4939C59.1986 29.6609 59.0632 29.7963 58.8962 29.7963ZM58.8962 26.7719C58.7292 26.7719 58.5938 26.6367 58.5938 26.4695V25.5622C58.5938 25.395 58.7292 25.2598 58.8962 25.2598C59.0632 25.2598 59.1986 25.395 59.1986 25.5622V26.4695C59.1986 26.6367 59.0632 26.7719 58.8962 26.7719Z" fill="url(#paint4_linear_2194_29859)"/>
<path d="M42.2399 53.2482C42.0729 53.2482 41.9375 53.1129 41.9375 52.9457V52.0384C41.9375 51.8712 42.0729 51.736 42.2399 51.736C42.4069 51.736 42.5423 51.8712 42.5423 52.0384V52.9457C42.5423 53.1128 42.4069 53.2482 42.2399 53.2482ZM42.2399 50.2238C42.0729 50.2238 41.9375 50.0886 41.9375 49.9214V49.0141C41.9375 48.8469 42.0729 48.7116 42.2399 48.7116C42.4069 48.7116 42.5423 48.8469 42.5423 49.0141V49.9214C42.5423 50.0886 42.4069 50.2238 42.2399 50.2238ZM42.2399 47.1995C42.0729 47.1995 41.9375 47.0643 41.9375 46.8971V45.9898C41.9375 45.8226 42.0729 45.6874 42.2399 45.6874C42.4069 45.6874 42.5423 45.8226 42.5423 45.9898V46.8971C42.5423 47.0643 42.4069 47.1995 42.2399 47.1995ZM42.2399 44.1752C42.0729 44.1752 41.9375 44.04 41.9375 43.8728V42.9655C41.9375 42.7983 42.0729 42.6631 42.2399 42.6631C42.4069 42.6631 42.5423 42.7983 42.5423 42.9655V43.8728C42.5423 44.0399 42.4069 44.1752 42.2399 44.1752Z" fill="url(#paint5_linear_2194_29859)"/>
<path d="M29.5994 54.224C29.5963 54.224 29.5931 54.224 29.5898 54.224C29.423 54.2187 29.2919 54.079 29.297 53.9122L29.3252 53.0052C29.3302 52.8383 29.4594 52.7086 29.637 52.7122C29.8038 52.7175 29.935 52.8572 29.9298 53.0241L29.9016 53.9311C29.8965 54.0946 29.7622 54.224 29.5994 54.224ZM29.6932 51.2011C29.6902 51.2011 29.6869 51.2011 29.6837 51.2011C29.5168 51.1958 29.3857 51.0562 29.3908 50.8892L29.419 49.9822C29.424 49.8157 29.5541 49.6919 29.7308 49.6892C29.8977 49.6945 30.0288 49.8342 30.0236 50.0012L29.9954 50.9082C29.9903 51.0718 29.856 51.2011 29.6932 51.2011ZM29.787 48.1784C29.784 48.1784 29.7807 48.1784 29.7775 48.1784C29.6106 48.173 29.4795 48.0334 29.4846 47.8664L29.5128 46.9594C29.5178 46.7926 29.649 46.6594 29.8246 46.6665C29.9915 46.6718 30.1226 46.8114 30.1174 46.9784L30.0892 47.8854C30.0842 48.049 29.9498 48.1784 29.787 48.1784ZM29.8809 45.1555C29.8778 45.1555 29.8746 45.1555 29.8715 45.1555C29.7045 45.1502 29.5734 45.0108 29.5785 44.8436L29.6066 43.9366C29.6116 43.7697 29.7516 43.6427 29.9182 43.6436C30.0852 43.6489 30.2163 43.7884 30.2112 43.9555L30.1831 44.8625C30.178 45.0261 30.0437 45.1555 29.8809 45.1555ZM29.9747 42.1327C29.9716 42.1327 29.9684 42.1327 29.9651 42.1327C29.7983 42.1273 29.6672 41.9877 29.6723 41.8207L29.7005 40.9137C29.7055 40.7469 29.8385 40.6104 30.0123 40.6207C30.1791 40.6261 30.3103 40.7657 30.3051 40.9326L30.2769 41.8396C30.2718 42.0033 30.1374 42.1327 29.9747 42.1327ZM30.0685 39.1099C30.0654 39.1099 30.0621 39.1099 30.0589 39.1099C29.892 39.1046 29.7609 38.9649 29.766 38.798L29.7943 37.891C29.7994 37.7241 29.9332 37.5939 30.106 37.598C30.2729 37.6033 30.404 37.743 30.3988 37.9098L30.3706 38.8168C30.3656 38.9805 30.2312 39.1099 30.0685 39.1099ZM30.1623 36.087C30.1592 36.087 30.1559 36.087 30.1527 36.087C29.9858 36.0817 29.8547 35.942 29.8599 35.7752L29.8881 34.8682C29.8932 34.7016 30.0201 34.5773 30.1998 34.5752C30.3667 34.5805 30.4978 34.7202 30.4926 34.8871L30.4644 35.7941C30.4594 35.9576 30.325 36.087 30.1623 36.087Z" fill="url(#paint6_linear_2194_29859)"/>
<path d="M17.5055 54.0372C17.3385 54.0372 17.2031 53.902 17.2031 53.7348V52.8275C17.2031 52.6603 17.3385 52.5251 17.5055 52.5251C17.6726 52.5251 17.808 52.6603 17.808 52.8275V53.7348C17.808 53.902 17.6726 54.0372 17.5055 54.0372ZM17.5055 51.0129C17.3385 51.0129 17.2031 50.8777 17.2031 50.7105V49.8032C17.2031 49.636 17.3385 49.5008 17.5055 49.5008C17.6726 49.5008 17.808 49.636 17.808 49.8032V50.7105C17.808 50.8777 17.6726 51.0129 17.5055 51.0129ZM17.5055 47.9886C17.3385 47.9886 17.2031 47.8534 17.2031 47.6862V46.7789C17.2031 46.6118 17.3385 46.4765 17.5055 46.4765C17.6726 46.4765 17.808 46.6118 17.808 46.7789V47.6862C17.808 47.8533 17.6726 47.9886 17.5055 47.9886ZM17.5055 44.9643C17.3385 44.9643 17.2031 44.829 17.2031 44.6619V43.7546C17.2031 43.5874 17.3385 43.4521 17.5055 43.4521C17.6726 43.4521 17.808 43.5874 17.808 43.7546V44.6619C17.808 44.829 17.6726 44.9643 17.5055 44.9643Z" fill="url(#paint7_linear_2194_29859)"/>
<path d="M76.6572 57.6639C76.6445 57.6639 76.6316 57.6633 76.6186 57.6624C76.3688 57.6412 76.1837 57.4217 76.2048 57.1718L79.6061 17.0011C79.6271 16.7515 79.8454 16.5684 80.0963 16.5873C80.3461 16.6085 80.5312 16.828 80.5101 17.0779L77.1088 57.2486C77.0888 57.4852 76.8905 57.6639 76.6572 57.6639Z" fill="url(#paint8_linear_2194_29859)"/>
<path d="M78.3711 18.7111L80.0336 17.3072L81.4364 18.9706L81.5466 17.6691L80.1437 16.0068L78.4813 17.4097L78.3711 18.7111Z" fill="url(#paint9_linear_2194_29859)"/>
<path d="M79.2337 55.7745H9.31303C9.06244 55.7745 8.85938 55.5713 8.85938 55.3209C8.85938 55.0704 9.06244 54.8672 9.31303 54.8672H79.2336C79.4842 54.8672 79.6872 55.0704 79.6872 55.3209C79.6872 55.5713 79.4842 55.7745 79.2337 55.7745Z" fill="url(#paint10_linear_2194_29859)"/>
<path d="M11.1215 53.7842L9.58246 55.3223L11.1215 56.8604H9.81547L8.27734 55.3223L9.81547 53.7842H11.1215Z" fill="url(#paint11_linear_2194_29859)"/>
<path d="M108.719 204.079C108.719 204.079 109.357 207.69 109.67 211.265C109.792 212.662 108.715 213.875 107.314 213.934C102.553 214.132 92.3698 214.518 88.7159 214.354C88.1666 214.33 87.8074 213.768 88.0107 213.257C88.1811 212.829 88.5096 212.482 88.9283 212.29L105.749 204.559L108.719 204.079Z" fill="url(#paint12_linear_2194_29859)"/>
<path d="M109.245 201.957L108.732 206.277C108.732 206.277 105.786 207.648 103.773 206.104L104.994 201.29L109.245 201.957Z" fill="url(#paint13_linear_2194_29859)"/>
<path d="M108.857 120.748C109.078 121.876 110.045 177.039 104.149 201.76C104.052 202.164 104.257 202.579 104.641 202.736C105.545 203.106 107.318 203.641 109.443 203.712C110.101 203.734 110.691 203.307 110.877 202.675C112.562 196.939 120.639 168.202 121.693 140.751C122.87 110.076 121.693 139.706 121.693 139.706L121.002 120.745L108.857 120.748Z" fill="url(#paint14_linear_2194_29859)"/>
<path d="M128.069 205.964C128.069 205.964 129.084 207.787 130.067 212.631C130.245 213.506 129.633 214.344 128.745 214.431C127.173 214.586 124.753 214.784 122.815 214.771C121.921 214.765 121.224 213.987 121.331 213.1C121.546 211.331 122.215 208.43 124.281 206.169L128.069 205.964Z" fill="url(#paint15_linear_2194_29859)"/>
<path d="M128.962 200.407L127.765 206.939C127.765 206.939 126.581 207.82 124.238 207.182L124.81 200.153L128.962 200.407Z" fill="url(#paint16_linear_2194_29859)"/>
<path d="M132.198 122.44C137.02 151.545 131.152 194.375 129.172 202.758C129.051 203.271 128.637 203.664 128.117 203.751C127.233 203.897 125.779 204.016 124.345 203.6C123.851 203.457 123.504 203.011 123.483 202.497C123.218 195.719 123.696 154.113 119.202 137.67C118.974 136.837 118.466 136.11 117.761 135.61L109.04 129.409L108.371 119.387L132.198 122.44Z" fill="url(#paint17_linear_2194_29859)"/>
<path d="M101.465 67.2923C115.917 67.0535 131.864 71.087 131.864 71.087C136.172 96.224 132.617 125.218 132.617 125.218C121.428 128.152 108.807 123.424 108.807 123.424C106.947 112.917 98.2705 83.3479 98.2705 83.3479C91.2091 82.4716 85.392 80.4342 80.6016 77.7407C84.2556 73.5051 85.9782 68.1156 86.7264 64.9297C91.8363 66.5177 97.0069 67.3659 101.465 67.2923Z" fill="url(#paint18_linear_2194_29859)"/>
<path d="M58.7734 46.0055C60.1932 44.2907 61.9901 45.1019 61.9901 45.1019C64.1169 54.0857 75.2686 61.3701 86.7254 64.9306C85.9772 68.1165 84.2546 73.506 80.6005 77.7415C61.5869 67.0511 58.7734 46.0055 58.7734 46.0055Z" fill="url(#paint19_linear_2194_29859)"/>
<path d="M59.1193 46.4401C58.9706 46.9123 60.691 47.6314 61.7038 45.7C61.7393 44.7743 62.3022 40.8084 61.7491 40.0543C58.8031 36.0379 53.0913 31.0029 53.0913 31.0029C52.126 31.9554 52.9213 32.8912 52.9213 32.8912L55.6921 35.7777C55.1126 36.825 54.4056 37.7091 54.0743 38.9759C53.8233 39.9352 53.9768 40.9604 54.4614 41.8336C54.9478 42.7098 55.6114 43.8489 56.2387 44.7403C57.4261 46.4274 59.1193 46.4401 59.1193 46.4401Z" fill="url(#paint20_linear_2194_29859)"/>
<path d="M56.9061 37.6504L59.4312 39.791L60.2239 41.9221L57.9726 44.4197C57.9726 44.4197 57.2157 40.1911 56.6531 39.2758C56.0905 38.3606 56.3823 37.918 56.9061 37.6504Z" fill="url(#paint21_linear_2194_29859)"/>
<path d="M126.32 85.0822L131.864 71.0879C131.864 71.0879 145.363 80.2602 147.583 91.8896C145.032 92.0775 140.391 92.741 135.848 95.0349C134.85 89.5436 126.32 85.0822 126.32 85.0822Z" fill="url(#paint22_linear_2194_29859)"/>
<path d="M114.525 98.2494C114.525 98.2494 129.682 106.815 134.796 99.501C135.858 97.9822 136.111 96.4729 135.85 95.034C140.393 92.74 145.035 92.0765 147.585 91.8887C148.255 95.3947 147.901 99.1233 145.841 102.892C136.883 119.279 112.52 101.986 112.52 101.986L114.525 98.2494Z" fill="url(#paint23_linear_2194_29859)"/>
<path d="M116.348 109.086L108.076 80.1989C107.982 79.871 107.703 79.6318 107.364 79.5923C105.865 79.4176 101.522 78.9267 96.5084 78.5026C90.4687 77.9917 83.4549 77.5777 79.2637 77.9299C78.6678 77.9799 78.3078 78.6102 78.5728 79.1462C80.9562 83.9681 90.7599 103.582 95.6692 110.008C95.832 110.221 96.0834 110.345 96.3513 110.343L115.543 110.164C116.102 110.159 116.502 109.623 116.348 109.086Z" fill="url(#paint24_linear_2194_29859)"/>
<path d="M95.6513 75.9985L89.6541 74.9992C89.3346 74.9461 89.073 75.2512 89.1746 75.5587L89.7682 77.3577C89.82 77.5143 89.9565 77.6275 90.1199 77.6494L95.8911 78.4204C96.1896 78.4601 96.4358 78.1889 96.3672 77.8956L95.9997 76.325C95.9601 76.1559 95.8226 76.0271 95.6513 75.9985Z" fill="#7D97F4"/>
<path d="M100.138 81.0754L99.644 78.502C99.5945 78.2438 99.3814 78.0489 99.1199 78.0223L87.0069 76.7932C86.5992 76.7518 86.2727 77.1254 86.3684 77.5239L87.1386 80.7307C87.2003 80.9873 87.4235 81.1727 87.6871 81.1858L99.524 81.7817C99.9092 81.8011 100.211 81.4542 100.138 81.0754Z" fill="#91B3FA"/>
<path d="M114.351 102.106C114.351 102.106 115.503 97.3679 115.039 95.6869C114.574 94.0059 113.673 91.8446 110.672 92.3249C107.67 92.8052 104.129 94.0697 104.129 94.0697C104.129 94.0697 104.308 96.2593 106.589 95.5529L105.174 96.6475C105.174 96.6475 105.377 98.4006 107.304 97.4641L105.988 98.9158C105.988 98.9158 106.815 100.356 108.233 99.4322C109.651 98.5085 110.331 102.677 114.351 102.106Z" fill="url(#paint25_linear_2194_29859)"/>
<path d="M116.106 55.5586L120.705 68.8574C120.781 69.0776 120.69 69.3216 120.486 69.4344C119.233 70.1275 114.717 72.1307 109.274 68.6801C108.707 68.3207 108.321 67.7345 108.235 67.0686L106.746 55.5586H116.106Z" fill="url(#paint26_linear_2194_29859)"/>
<path d="M106.1 43.2432C106.1 43.2432 101.051 52.7487 101.698 56.5884C102.345 60.4281 108.604 60.1525 114.068 57.0339L117.887 46.7701L106.1 43.2432Z" fill="url(#paint27_linear_2194_29859)"/>
<path d="M113.827 51.9928C113.605 51.8944 113.523 51.6226 113.656 51.4194C114.061 50.8013 114.819 49.5404 115.061 48.4365C115.061 48.4365 115.969 47.8551 112.751 47.0848C109.533 46.3145 104.733 45.1188 103.725 42.3795C102.741 39.7087 105.325 32.992 109.448 38.3438C109.605 38.5474 109.912 38.5518 110.069 38.3481C110.745 37.4684 112.522 35.6426 114.988 36.7495C117.297 37.7853 117.557 39.477 117.525 40.3297C117.516 40.5805 117.74 40.7755 117.987 40.7285C119.154 40.5059 121.955 40.3147 123.262 43.1879C124.339 45.5546 123.639 46.8944 123.002 47.5497C122.795 47.762 122.886 48.1115 123.169 48.1981C123.936 48.433 124.927 49.0834 124.827 50.8806C124.69 53.3652 121.913 53.1463 121.122 53.0331C120.992 53.0146 120.862 53.059 120.774 53.1561C120.096 53.9066 117.04 57.093 113.733 57.4771C113.447 57.5103 113.225 57.2276 113.319 56.955L114.75 52.7949C114.817 52.6018 114.724 52.3898 114.537 52.307L113.827 51.9928Z" fill="url(#paint28_linear_2194_29859)"/>
<path d="M113.25 52.5839C113.25 52.5839 116.845 50.117 117.108 52.1944C117.371 54.2717 113.87 55.2034 112.137 54.4289L113.25 52.5839Z" fill="url(#paint29_linear_2194_29859)"/>
<path d="M40.9506 136.158C35.8074 136.468 35.6369 130.492 35.953 127.152C36.0408 126.224 35.0834 125.558 34.2431 125.961L26.6036 129.619C26.6036 129.619 26.2444 138.429 35.0487 141.556C37.2762 142.347 39.3121 142.382 41.112 141.995C40.3445 139.757 40.5005 137.748 40.9506 136.158Z" fill="url(#paint30_linear_2194_29859)"/>
<path d="M54.445 132.804C51.845 130.995 48.8996 132.804 48.8996 132.804C45.4232 135.077 42.8513 136.044 40.9541 136.159C40.504 137.749 40.3479 139.758 41.1154 141.996C45.01 141.159 47.7962 138.34 49.0068 136.894C49.4427 136.373 50.2146 136.283 50.7475 136.704C51.2889 137.131 51.8146 137.716 51.7193 138.333C51.5313 139.547 52.9411 139.934 53.0475 139.493C53.1538 139.053 52.5652 136.44 52.5652 136.44C52.5652 136.44 55.3849 139.276 56.4856 140.365C57.5863 141.455 58.9705 140.365 58.9705 140.365C58.9705 140.365 57.045 134.612 54.445 132.804Z" fill="url(#paint31_linear_2194_29859)"/>
<path d="M44.9883 143.265L47.0858 142.983L53.4266 142.34C54.1899 142.262 54.9525 142.493 55.5451 142.98L60.4172 146.986L45.795 145.101L44.9883 143.265Z" fill="url(#paint32_linear_2194_29859)"/>
<path d="M52.8766 214.469C47.6935 214.469 45.4003 214.025 44.375 213.619C44.5743 214.47 45.3323 215.142 46.2903 215.142H64.6262C65.2437 215.142 65.6335 214.551 65.4859 214.016C63.3958 214.184 58.9565 214.469 52.8766 214.469Z" fill="url(#paint33_linear_2194_29859)"/>
<path d="M65.4837 214.017C65.454 213.909 65.4102 213.803 65.3335 213.705C63.9368 211.921 61.1311 209.121 57.3144 209.175C51.7231 209.253 49.7738 209.86 45.4288 209.209L44.4038 212.606C44.2994 212.953 44.2975 213.298 44.3727 213.62C45.398 214.025 47.6914 214.47 52.8744 214.47C58.9543 214.47 63.3936 214.185 65.4837 214.017Z" fill="url(#paint34_linear_2194_29859)"/>
<path d="M46.684 205.547L45.4258 209.826C45.4258 209.826 48.2132 211.095 50.6648 210.076L51.1462 206.369L46.684 205.547Z" fill="url(#paint35_linear_2194_29859)"/>
<path d="M84.6847 211.775C80.6443 215.021 78.5795 216.113 77.5273 216.44C78.2133 216.976 79.2231 217.022 79.9699 216.422L94.2635 204.938C94.7448 204.551 94.6802 203.848 94.2316 203.525C92.7071 204.965 89.4243 207.967 84.6847 211.775Z" fill="url(#paint36_linear_2194_29859)"/>
<path d="M94.2324 203.526C94.1419 203.461 94.0416 203.406 93.9207 203.378C91.7203 202.869 87.7873 202.454 84.8455 204.886C80.536 208.449 79.3945 210.141 75.6016 212.357L76.9205 215.635C77.0549 215.969 77.2692 216.239 77.5281 216.441C78.5801 216.113 80.645 215.022 84.6854 211.775C89.425 207.967 92.7079 204.965 94.2324 203.526Z" fill="url(#paint37_linear_2194_29859)"/>
<path d="M19.7708 156.793C19.7708 156.793 50.8016 159.327 57.1674 162.323C63.5331 165.32 51.9726 207.32 51.9726 207.32C51.9726 207.32 50.2396 208.154 46.3835 206.955C46.3835 206.955 50.3377 175.961 47.3953 169.24L13.7969 163.745L19.7708 156.793Z" fill="url(#paint38_linear_2194_29859)"/>
<path d="M72.5234 206.457C72.8115 206.719 75.6066 212.356 75.6066 212.356C75.6066 212.356 78.7183 211.683 79.3529 209.714L76.553 204.626L72.5234 206.457Z" fill="url(#paint39_linear_2194_29859)"/>
<path d="M1.08059 156.533C1.08059 156.533 0.0693275 158.967 0.110605 162.2C0.167728 166.672 3.76276 170.301 8.22939 170.524L44.9129 172.196C45.6875 172.232 46.343 172.768 46.5371 173.519C47.3991 176.853 51.6126 187.092 72.2092 207.524C72.7571 208.067 73.6108 208.16 74.2634 207.748L77.1953 205.896C77.5031 205.701 77.6013 205.298 77.4174 204.984L56.0584 168.51C54.9365 166.659 53.1332 165.321 51.0359 164.785L19.0421 152.481L1.08059 156.533Z" fill="url(#paint40_linear_2194_29859)"/>
<path d="M27.1957 95.4424C27.1957 95.4424 24.4971 102.955 21.1172 106.95L30.0606 110.104C30.0606 110.104 30.6564 102.539 34.4942 99.6948L27.1957 95.4424Z" fill="url(#paint41_linear_2194_29859)"/>
<path d="M0.584003 158.078C0.584003 158.078 10.7527 158.782 19.6613 154.806C19.6613 154.806 21.834 140.365 25.9011 134.808C25.9011 134.808 24.3183 156.307 49.7487 145.584C49.0493 145.228 49.0472 145.013 48.8514 144.337C48.7681 144.05 48.9109 142.659 48.6122 142.679C45.3143 142.901 31.291 145.396 35.9254 126.63C37.7542 119.224 32.8459 110.23 28.4013 108.28C25.6298 107.065 23.9479 106.199 23.0745 105.719C22.597 105.457 22.0103 105.521 21.5998 105.879C17.8056 109.187 0.20989 126.262 0.584003 158.078Z" fill="url(#paint42_linear_2194_29859)"/>
<path d="M33.9513 86.2178C33.9513 86.2178 37.0784 92.9341 37.3666 96.4935C37.6548 100.053 38.4811 102.346 34.3779 103.168C30.2748 103.989 26.7513 102.023 24.7811 98.5203C24.7811 98.5203 21.6965 93.1237 22.3012 90.8666C22.9059 88.6095 33.9513 86.2178 33.9513 86.2178Z" fill="url(#paint43_linear_2194_29859)"/>
<path d="M26.124 95.9317L26.645 95.9186C26.645 95.9186 24.3876 91.5695 26.2542 90.7484C28.1209 89.9274 35.5541 88.2157 37.0993 85.5241C38.589 82.9293 37.12 79.6628 35.0232 78.7911C34.8906 78.736 34.7374 78.8016 34.6735 78.9303L34.5099 79.2596C34.3979 79.4852 34.0683 79.4597 33.9923 79.2196C33.9201 78.9918 33.6096 78.9497 33.4885 79.1555C33.015 79.9607 31.7113 81.2835 28.1443 82.0351C23.0828 83.1015 19.7729 85.2441 19.7787 88.7604C19.7791 88.9832 19.5442 89.112 19.3511 89.0009C18.97 88.7815 18.3666 88.6893 17.5807 89.3847C16.2139 90.5938 16.8619 93.6249 19.9858 96.0532C20.1342 96.1686 20.1388 96.3957 19.9838 96.5022C19.438 96.8774 18.6327 97.7577 20.8048 98.8495C23.0268 99.9662 24.3211 99.8058 24.8076 99.6682C24.9386 99.6311 25.0241 99.5088 25.0123 99.3732L24.7415 96.2638C24.7274 96.1029 24.852 95.9636 25.0133 95.9595L26.124 95.9317Z" fill="url(#paint44_linear_2194_29859)"/>
<path d="M26.2672 96.5806C26.2672 96.5806 25.0303 92.2711 23.116 93.5362C21.2018 94.8015 24.2477 98.3713 25.8153 98.4942L26.2672 96.5806Z" fill="url(#paint45_linear_2194_29859)"/>
<g opacity="0.3">
<path d="M158.794 30.1867C158.466 30.1867 158.183 29.9383 158.148 29.6042C158.072 28.8736 158.026 28.1288 158.012 27.3906C158.005 27.0314 158.29 26.7347 158.65 26.7278C158.654 26.7278 158.658 26.7278 158.662 26.7278C159.016 26.7278 159.306 27.0108 159.312 27.3657C159.326 28.0671 159.369 28.7745 159.442 29.4686C159.479 29.8257 159.22 30.1458 158.863 30.1832C158.84 30.1857 158.817 30.1867 158.794 30.1867ZM158.836 24.5213C158.811 24.5213 158.785 24.5198 158.759 24.5168C158.403 24.4746 158.147 24.1512 158.19 23.7945C158.276 23.0619 158.395 22.3257 158.543 21.6066C158.615 21.2547 158.958 21.0289 159.311 21.1003C159.663 21.1727 159.889 21.5166 159.817 21.8682C159.677 22.5519 159.564 23.2512 159.481 23.9475C159.442 24.2782 159.161 24.5213 158.836 24.5213ZM160.125 19.006C160.052 19.006 159.979 18.9938 159.906 18.9681C159.568 18.8475 159.392 18.4756 159.512 18.1372C159.759 17.4436 160.039 16.7522 160.345 16.0821C160.494 15.7554 160.88 15.6119 161.207 15.7604C161.533 15.9095 161.677 16.2954 161.528 16.6221C161.238 17.2585 160.972 17.9149 160.737 18.5736C160.642 18.8398 160.392 19.006 160.125 19.006ZM162.614 13.9162C162.495 13.9162 162.374 13.8832 162.265 13.8141C161.962 13.621 161.874 13.219 162.067 12.9161C162.463 12.2951 162.891 11.6836 163.338 11.0988C163.557 10.8141 163.964 10.7596 164.25 10.9777C164.535 11.1959 164.589 11.6041 164.371 11.8894C163.946 12.4447 163.54 13.0255 163.163 13.6158C163.039 13.8101 162.829 13.9162 162.614 13.9162ZM166.176 9.5096C166.009 9.5096 165.841 9.44503 165.714 9.31628C165.461 9.06069 165.464 8.64895 165.72 8.39668C166.242 7.88028 166.795 7.37876 167.361 6.9068C167.637 6.67665 168.047 6.71373 168.277 6.98984C168.507 7.26571 168.47 7.67571 168.194 7.90587C167.655 8.35446 167.13 8.83109 166.633 9.32183C166.507 9.44709 166.342 9.5096 166.176 9.5096ZM170.625 6.00092C170.407 6.00092 170.195 5.89222 170.072 5.69407C169.882 5.38896 169.975 4.98807 170.28 4.79832C170.905 4.4097 171.555 4.0428 172.211 3.70854C172.531 3.54541 172.923 3.67273 173.086 3.99281C173.249 4.31257 173.122 4.70435 172.802 4.8674C172.178 5.18519 171.561 5.53347 170.967 5.90283C170.86 5.96938 170.742 6.00092 170.625 6.00092ZM194.455 4.45257C194.365 4.45257 194.274 4.43379 194.186 4.39418C193.55 4.10508 192.893 3.8399 192.233 3.60618C191.894 3.48631 191.717 3.11465 191.837 2.77627C191.956 2.43765 192.328 2.26034 192.667 2.38021C193.362 2.62637 194.054 2.90557 194.724 3.20988C195.051 3.35851 195.196 3.74411 195.047 4.07101C194.938 4.31083 194.702 4.45257 194.455 4.45257ZM175.736 3.5668C175.466 3.5668 175.214 3.39765 175.121 3.12835C175.004 2.78871 175.185 2.41863 175.524 2.30146C176.22 2.0614 176.935 1.84875 177.649 1.66945C177.998 1.58357 178.351 1.79313 178.438 2.14165C178.526 2.48994 178.314 2.84329 177.966 2.93092C177.288 3.1011 176.609 3.30305 175.948 3.53099C175.878 3.55508 175.806 3.5668 175.736 3.5668ZM189.066 2.70536C189.023 2.70536 188.979 2.70132 188.936 2.69237C188.251 2.55292 187.55 2.44137 186.854 2.3604C186.498 2.31873 186.242 1.99587 186.284 1.63919C186.325 1.28251 186.648 1.02518 187.005 1.06843C187.737 1.15376 188.474 1.27118 189.195 1.41775C189.547 1.48937 189.774 1.83282 189.702 2.18467C189.64 2.49279 189.369 2.70536 189.066 2.70536ZM181.263 2.33552C180.935 2.33552 180.653 2.08786 180.617 1.75431C180.579 1.39715 180.838 1.07683 181.195 1.03841C181.926 0.960446 182.671 0.91291 183.408 0.897698C183.412 0.89746 183.417 0.897461 183.422 0.897461C183.774 0.897461 184.064 1.17967 184.071 1.53406C184.079 1.89327 183.794 2.19046 183.435 2.19783C182.735 2.21256 182.028 2.2578 181.333 2.33196C181.31 2.33425 181.286 2.33552 181.263 2.33552Z" fill="#91B3FA"/>
<path d="M198.425 6.71005C198.297 6.71005 198.168 6.6725 198.055 6.59374C197.78 6.40225 197.496 6.21345 197.211 6.03209C196.908 5.83925 196.819 5.43717 197.012 5.13436C197.205 4.83132 197.607 4.74163 197.91 4.93519C198.209 5.12573 198.508 5.32436 198.797 5.52583C199.092 5.73087 199.165 6.13628 198.96 6.43093C198.834 6.61276 198.631 6.71005 198.425 6.71005Z" fill="#91B3FA"/>
</g>
<g opacity="0.3">
<path d="M208.992 23.4875C208.678 23.4875 208.402 23.2599 208.35 22.94C208.297 22.609 208.236 22.2735 208.169 21.9429C208.098 21.5908 208.325 21.2476 208.677 21.1762C209.031 21.1046 209.373 21.3325 209.444 21.6843C209.515 22.0323 209.579 22.3857 209.635 22.7343C209.691 23.0889 209.45 23.4224 209.095 23.4793C209.061 23.4849 209.026 23.4875 208.992 23.4875Z" fill="#91B3FA"/>
<path d="M184.012 52.8424C183.712 52.8424 183.412 52.8374 183.111 52.8272C182.752 52.815 182.471 52.5143 182.483 52.1553C182.495 51.7963 182.797 51.5139 183.154 51.527C183.85 51.5504 184.545 51.5456 185.228 51.512C185.587 51.495 185.892 51.7709 185.909 52.1296C185.927 52.4886 185.65 52.7937 185.292 52.8112C184.869 52.832 184.439 52.8424 184.012 52.8424ZM179.695 52.4774C179.659 52.4774 179.622 52.4743 179.585 52.4679C178.87 52.3458 178.152 52.1918 177.451 52.0104C177.103 51.9205 176.894 51.5656 176.984 51.218C177.074 50.8703 177.43 50.6604 177.777 50.7514C178.442 50.9236 179.124 51.0696 179.804 51.186C180.158 51.2465 180.396 51.5826 180.335 51.9364C180.281 52.2535 180.006 52.4774 179.695 52.4774ZM188.69 52.4068C188.384 52.4068 188.111 52.189 188.052 51.8769C187.985 51.5238 188.218 51.1839 188.571 51.1173C189.246 50.9903 189.925 50.8326 190.589 50.6482C190.935 50.5526 191.293 50.7549 191.389 51.1009C191.485 51.4471 191.283 51.8055 190.937 51.9015C190.237 52.0956 189.522 52.2617 188.811 52.3956C188.771 52.4032 188.73 52.4068 188.69 52.4068ZM174.335 50.9382C174.253 50.9382 174.169 50.9222 174.088 50.8889C173.418 50.6128 172.751 50.3046 172.107 49.9731C171.787 49.8088 171.662 49.4168 171.826 49.0975C171.991 48.7779 172.382 48.6522 172.702 48.8168C173.314 49.1315 173.946 49.4242 174.583 49.6863C174.915 49.823 175.074 50.2033 174.937 50.5353C174.833 50.7863 174.591 50.9382 174.335 50.9382ZM194.018 50.7759C193.766 50.7759 193.527 50.6291 193.421 50.3834C193.278 50.0537 193.43 49.6708 193.76 49.5283C194.39 49.256 195.018 48.9527 195.625 48.627C195.942 48.4573 196.336 48.5762 196.506 48.8929C196.675 49.2095 196.556 49.6035 196.24 49.7732C195.6 50.1161 194.939 50.4354 194.276 50.7222C194.192 50.7586 194.104 50.7759 194.018 50.7759ZM198.859 48.0153C198.658 48.0153 198.46 47.9224 198.332 47.7474C198.121 47.4568 198.186 47.05 198.476 46.839C199.033 46.434 199.58 46.0009 200.101 45.5517C200.373 45.3168 200.783 45.347 201.018 45.6193C201.253 45.8914 201.222 46.3019 200.951 46.5366C200.402 47.0094 199.827 47.4651 199.241 47.8911C199.125 47.9749 198.992 48.0153 198.859 48.0153ZM202.983 44.2651C202.83 44.2651 202.677 44.2115 202.553 44.1023C202.284 43.8648 202.258 43.4537 202.496 43.1844C202.952 42.6675 203.391 42.1259 203.802 41.5741C204.016 41.286 204.423 41.2258 204.711 41.4405C205 41.6549 205.06 42.0621 204.845 42.3504C204.413 42.9308 203.951 43.5012 203.471 44.045C203.342 44.1906 203.163 44.2651 202.983 44.2651ZM206.191 39.705C206.085 39.705 205.978 39.6791 205.878 39.6245C205.563 39.4515 205.449 39.0562 205.621 38.7415C205.953 38.1376 206.263 37.513 206.543 36.8846C206.688 36.5563 207.073 36.4085 207.401 36.5541C207.729 36.6999 207.877 37.0843 207.731 37.4124C207.437 38.0745 207.111 38.7324 206.761 39.3679C206.643 39.5833 206.42 39.705 206.191 39.705ZM208.32 34.5499C208.26 34.5499 208.2 34.5415 208.14 34.5243C207.795 34.4249 207.595 34.0645 207.695 33.7196C207.885 33.059 208.049 32.3818 208.184 31.7061C208.254 31.3538 208.597 31.1254 208.948 31.195C209.301 31.2649 209.529 31.6073 209.459 31.9597C209.318 32.6709 209.145 33.384 208.945 34.0793C208.863 34.3642 208.603 34.5499 208.32 34.5499ZM209.264 29.0568C209.251 29.0568 209.237 29.0562 209.224 29.0555C208.866 29.0336 208.593 28.7253 208.615 28.3669C208.645 27.8608 208.661 27.3479 208.661 26.8419C208.661 26.6587 208.659 26.4758 208.655 26.2937C208.647 25.9345 208.932 25.6371 209.291 25.6295C209.654 25.6145 209.947 25.9064 209.955 26.2653C209.96 26.4571 209.962 26.6491 209.962 26.8419C209.962 27.3741 209.945 27.9139 209.913 28.4461C209.892 28.791 209.605 29.0568 209.264 29.0568Z" fill="#91B3FA"/>
<path d="M169.433 48.2472C169.304 48.2472 169.173 48.2088 169.06 48.129C168.772 47.9266 168.483 47.7142 168.2 47.4977C167.915 47.2792 167.861 46.8711 168.08 46.586C168.298 46.3009 168.706 46.2466 168.991 46.4653C169.259 46.6708 169.534 46.8726 169.808 47.0648C170.101 47.2711 170.172 47.6768 169.966 47.9707C169.839 48.1509 169.638 48.2472 169.433 48.2472Z" fill="#91B3FA"/>
</g>
<path d="M170.308 40.7027C170.39 40.8031 170.526 40.8405 170.648 40.7958L174.12 39.5189C175.489 40.573 177.035 41.4165 178.717 41.9944L179.564 45.5931C179.593 45.7194 179.7 45.8128 179.829 45.8258L184.243 46.2731C184.372 46.2861 184.496 46.2159 184.55 46.0982L186.101 42.7425C187.864 42.5134 189.549 41.9973 191.101 41.239L194.247 43.1862C194.357 43.2544 194.498 43.2452 194.599 43.1632L198.037 40.3578C198.137 40.2757 198.174 40.139 198.13 40.0173L196.853 36.5453C197.907 35.1766 198.75 33.6299 199.328 31.9486L202.927 31.1017C203.053 31.072 203.147 30.9655 203.16 30.8365L203.607 26.4217C203.62 26.2927 203.55 26.1696 203.432 26.1153L200.077 24.564C199.848 22.8008 199.331 21.1165 198.573 19.5642L200.52 16.4187C200.589 16.3084 200.579 16.167 200.497 16.0666L197.692 12.6286C197.61 12.5281 197.473 12.4908 197.351 12.5355L193.879 13.8124C192.511 12.7582 190.964 11.9147 189.283 11.3369L188.436 7.73814C188.406 7.61193 188.3 7.51845 188.171 7.50537L183.756 7.05821C183.627 7.04506 183.504 7.11533 183.449 7.23307L181.898 10.5888C180.135 10.8177 178.451 11.334 176.898 12.0923L173.753 10.1452C173.643 10.0769 173.501 10.0861 173.401 10.1681L169.963 12.9736C169.862 13.0556 169.825 13.1923 169.87 13.314L171.146 16.786C170.092 18.1547 169.249 19.7014 168.671 21.3827L165.072 22.2295C164.946 22.2592 164.852 22.3657 164.839 22.4948L164.392 26.9095C164.379 27.0385 164.449 27.1616 164.567 27.216L167.923 28.7673C168.152 30.5304 168.668 32.2148 169.426 33.7671L167.479 36.9126C167.411 37.0229 167.42 37.1642 167.502 37.2647L170.308 40.7027Z" fill="#91B3FA"/>
<path d="M183.997 31.127C181.823 31.127 179.913 29.5304 179.587 27.3168C179.229 24.8835 180.916 22.6124 183.349 22.2537C184.528 22.0798 185.704 22.3757 186.66 23.0862C187.616 23.7967 188.239 24.8372 188.412 26.016C188.771 28.4494 187.083 30.7203 184.65 31.079C184.431 31.1112 184.212 31.127 183.997 31.127ZM184.007 23.246C183.839 23.246 183.67 23.2582 183.501 23.2831C181.636 23.5579 180.342 25.2996 180.616 27.1649C180.891 29.0305 182.632 30.3253 184.498 30.0497C186.364 29.7748 187.658 28.0332 187.383 26.1678C187.25 25.264 186.773 24.4663 186.039 23.9214C185.444 23.4787 184.736 23.246 184.007 23.246Z" fill="#BDD0FB"/>
<path d="M184.089 37.5681C183.716 37.5681 183.34 37.5493 182.964 37.5112C182.845 37.4992 182.727 37.4853 182.609 37.4695C182.026 37.3915 181.451 37.2673 180.892 37.0989C180.884 37.0966 180.877 37.0943 180.869 37.0921C180.847 37.0855 180.826 37.0788 180.804 37.072C180.762 37.059 180.72 37.0455 180.678 37.0322C180.568 36.9966 180.498 36.8947 180.498 36.785C180.498 36.7583 180.503 36.7311 180.511 36.7045C180.555 36.5678 180.702 36.4934 180.839 36.5373C181.542 36.7652 182.275 36.9186 183.016 36.9935C186.699 37.3672 190.136 35.7698 192.276 33.0598C193.466 31.5527 194.255 29.7011 194.463 27.6525C194.499 27.2933 194.517 26.9349 194.517 26.5788C194.517 24.1817 193.699 21.8769 192.163 19.9948C190.399 17.8327 187.898 16.4871 185.122 16.206C179.388 15.6258 174.256 19.816 173.675 25.5469C173.639 25.9003 173.622 26.2542 173.622 26.607C173.622 28.136 173.957 29.648 174.608 31.0332C174.624 31.069 174.632 31.1066 174.632 31.1437C174.632 31.2412 174.577 31.335 174.483 31.3792C174.352 31.4399 174.198 31.3848 174.137 31.2542C173.453 29.7999 173.102 28.2124 173.102 26.6072C173.101 26.2368 173.12 25.8655 173.158 25.4945C173.767 19.4776 179.16 15.079 185.174 15.6882C188.089 15.9834 190.714 17.396 192.566 19.6658C194.179 21.6417 195.037 24.0613 195.038 26.5777C195.038 26.9517 195.019 27.3279 194.981 27.7049C194.685 30.6197 193.273 33.2448 191.003 35.0969C189.027 36.7096 186.606 37.5681 184.089 37.5681Z" fill="#BDD0FB"/>
<g opacity="0.3">
<path d="M136.601 47.3247C136.427 47.3247 136.267 47.2114 136.215 47.0361C136.119 46.7089 136.032 46.3743 135.956 46.0417C135.906 45.8255 136.041 45.6102 136.257 45.5604C136.473 45.5098 136.689 45.6458 136.739 45.862C136.811 46.1789 136.895 46.4978 136.986 46.8101C137.049 47.0227 136.927 47.2458 136.714 47.3086C136.676 47.3197 136.638 47.3247 136.601 47.3247Z" fill="#91B3FA"/>
<path d="M136.008 44.2932C135.805 44.2932 135.63 44.139 135.609 43.9323C135.55 43.3483 135.52 42.7544 135.52 42.1676C135.52 42.0441 135.521 41.9201 135.523 41.7958C135.528 41.5738 135.724 41.4063 135.934 41.4024C136.155 41.407 136.331 41.5907 136.327 41.8123C136.324 41.9311 136.323 42.0496 136.323 42.1677C136.323 42.7274 136.352 43.2938 136.408 43.8508C136.431 44.0716 136.27 44.2686 136.05 44.2913C136.036 44.2923 136.022 44.2932 136.008 44.2932ZM136.097 40.1235C136.078 40.1235 136.058 40.1223 136.039 40.1197C135.819 40.0879 135.667 39.8843 135.698 39.6647C135.8 38.9602 135.946 38.2557 136.132 37.5712C136.19 37.3571 136.412 37.2316 136.625 37.2892C136.839 37.3477 136.965 37.5681 136.907 37.7823C136.729 38.4354 136.59 39.1074 136.493 39.7792C136.465 39.9793 136.293 40.1235 136.097 40.1235ZM137.193 36.0999C137.142 36.0999 137.091 36.0901 137.041 36.0697C136.836 35.9853 136.738 35.7503 136.822 35.5452C137.093 34.8882 137.407 34.2406 137.758 33.6212C137.867 33.4278 138.111 33.36 138.305 33.4694C138.498 33.5785 138.566 33.8237 138.457 34.0166C138.123 34.6073 137.823 35.2243 137.565 35.8512C137.501 36.0061 137.351 36.0999 137.193 36.0999ZM139.246 32.4689C139.163 32.4689 139.079 32.443 139.007 32.39C138.829 32.2578 138.791 32.006 138.924 31.8279C139.348 31.2561 139.811 30.7057 140.301 30.1919C140.454 30.0314 140.709 30.026 140.869 30.1786C141.029 30.3315 141.036 30.5857 140.882 30.7465C140.415 31.2361 139.973 31.7613 139.569 32.3065C139.49 32.4128 139.369 32.4689 139.246 32.4689ZM142.123 29.4493C142.007 29.4493 141.891 29.399 141.812 29.3021C141.671 29.1308 141.696 28.8777 141.868 28.7369C142.418 28.2862 143.001 27.8649 143.6 27.4853C143.788 27.366 144.036 27.4221 144.155 27.6097C144.273 27.7972 144.218 28.0454 144.03 28.1639C143.458 28.5263 142.902 28.928 142.377 29.3583C142.303 29.4195 142.212 29.4493 142.123 29.4493ZM145.645 27.2198C145.495 27.2198 145.35 27.1346 145.282 26.9896C145.187 26.7891 145.273 26.5498 145.473 26.4549C146.116 26.1513 146.784 25.885 147.458 25.6638C147.67 25.5951 147.896 25.7097 147.965 25.9203C148.035 26.131 147.92 26.358 147.709 26.427C147.066 26.6381 146.429 26.8919 145.816 27.1813C145.761 27.2076 145.702 27.2198 145.645 27.2198ZM149.604 25.9194C149.416 25.9194 149.248 25.7865 149.211 25.5951C149.168 25.3774 149.31 25.1664 149.528 25.1236C150.223 24.9875 150.936 24.8934 151.647 24.8435C151.869 24.8318 152.061 24.9953 152.076 25.2165C152.092 25.4377 151.925 25.6296 151.703 25.6452C151.025 25.6923 150.345 25.7821 149.682 25.912C149.656 25.9171 149.63 25.9194 149.604 25.9194ZM155.84 25.8685C155.817 25.8685 155.794 25.8665 155.77 25.8622C155.193 25.7599 154.601 25.6873 154.009 25.6465C153.92 25.6398 153.832 25.6343 153.744 25.63C153.522 25.6183 153.352 25.4296 153.363 25.208C153.375 24.9859 153.565 24.8095 153.785 24.8274C153.879 24.8325 153.973 24.838 154.067 24.8451C154.685 24.8879 155.306 24.9639 155.91 25.0715C156.129 25.1103 156.274 25.3186 156.235 25.5371C156.201 25.7316 156.032 25.8685 155.84 25.8685Z" fill="#91B3FA"/>
</g>
<g opacity="0.3">
<path d="M153.102 59.4965C152.883 59.4965 152.703 59.32 152.701 59.1C152.698 58.8784 152.875 58.6959 153.097 58.6933C153.765 58.6846 154.438 58.6352 155.097 58.5462C155.316 58.5187 155.519 58.6705 155.549 58.8906C155.578 59.1106 155.424 59.3127 155.204 59.3424C154.513 59.4354 153.807 59.4876 153.107 59.4966C153.106 59.4965 153.104 59.4965 153.102 59.4965ZM151.049 59.3996C151.035 59.3996 151.02 59.3989 151.006 59.3973C150.31 59.3228 149.613 59.2051 148.932 59.0478C148.716 58.9976 148.581 58.7822 148.631 58.5661C148.681 58.3496 148.898 58.2158 149.113 58.2649C149.762 58.4151 150.428 58.5273 151.092 58.5987C151.312 58.6222 151.472 58.8203 151.448 59.0407C151.426 59.2471 151.252 59.3996 151.049 59.3996ZM157.166 58.9473C156.988 58.9473 156.825 58.8281 156.778 58.6477C156.722 58.4335 156.85 58.2138 157.064 58.1574C157.711 57.9871 158.352 57.7765 158.97 57.5305C159.177 57.4493 159.41 57.5494 159.492 57.7557C159.574 57.9616 159.473 58.1954 159.267 58.2773C158.618 58.535 157.946 58.7558 157.269 58.9339C157.234 58.9431 157.2 58.9473 157.166 58.9473ZM147.052 58.4732C147.006 58.4732 146.96 58.4653 146.914 58.4488C146.257 58.2092 145.607 57.9263 144.985 57.6082C144.787 57.5074 144.709 57.2654 144.81 57.0677C144.91 56.8709 145.152 56.7924 145.35 56.8928C145.944 57.196 146.563 57.4655 147.189 57.6942C147.398 57.7703 147.505 58.0009 147.429 58.2092C147.37 58.3719 147.216 58.4732 147.052 58.4732ZM160.977 57.4321C160.835 57.4321 160.697 57.3564 160.624 57.223C160.518 57.0281 160.589 56.7841 160.784 56.6778C161.369 56.3585 161.941 56 162.483 55.6117C162.663 55.4822 162.914 55.5242 163.043 55.7047C163.172 55.8851 163.131 56.1362 162.95 56.2652C162.382 56.672 161.782 57.0482 161.169 57.3831C161.108 57.4164 161.042 57.4321 160.977 57.4321ZM164.313 55.0469C164.204 55.0469 164.096 55.0029 164.017 54.9166C163.867 54.7531 163.878 54.4989 164.041 54.3491C164.534 53.8976 165.004 53.4124 165.437 52.9072C165.581 52.7385 165.835 52.7192 166.003 52.8636C166.172 53.0079 166.191 53.2613 166.047 53.4296C165.593 53.9595 165.101 54.4683 164.584 54.9413C164.507 55.0119 164.41 55.0469 164.313 55.0469ZM166.982 51.9308C166.905 51.9308 166.828 51.9092 166.76 51.8633C166.575 51.7405 166.525 51.4911 166.648 51.3064C167.018 50.7505 167.358 50.1668 167.656 49.5718C167.756 49.3742 167.997 49.2938 168.196 49.3933C168.394 49.4929 168.474 49.7342 168.374 49.9326C168.061 50.5563 167.705 51.1687 167.317 51.7519C167.239 51.868 167.112 51.9308 166.982 51.9308Z" fill="#91B3FA"/>
<path d="M143.383 56.5975C143.306 56.5975 143.228 56.5751 143.159 56.5285C142.874 56.3359 142.594 56.1338 142.325 55.9283C142.149 55.7934 142.116 55.5411 142.251 55.365C142.386 55.1897 142.638 55.1559 142.814 55.2905C143.07 55.4867 143.337 55.6792 143.609 55.8632C143.793 55.9875 143.841 56.2374 143.716 56.4209C143.639 56.5355 143.512 56.5975 143.383 56.5975Z" fill="#91B3FA"/>
</g>
<path d="M143.717 51.4079C143.772 51.4751 143.863 51.5002 143.945 51.4702L146.268 50.6158C147.184 51.3212 148.219 51.8856 149.344 52.2723L149.911 54.6804C149.931 54.7648 150.002 54.8273 150.088 54.8361L153.043 55.1354C153.129 55.1441 153.211 55.0971 153.248 55.0184L154.286 52.7728C155.466 52.6196 156.593 52.2742 157.631 51.7668L159.736 53.0697C159.81 53.1154 159.905 53.1092 159.972 53.0544L162.272 51.1771C162.34 51.1222 162.365 51.0307 162.335 50.9493L161.48 48.626C162.186 47.7101 162.75 46.6751 163.137 45.5501L165.545 44.9834C165.629 44.9636 165.692 44.8923 165.701 44.806L166 41.8518C166.009 41.7655 165.962 41.6831 165.883 41.6467L163.637 40.6086C163.484 39.4289 163.139 38.3018 162.631 37.263L163.934 35.1582C163.98 35.0844 163.974 34.9898 163.919 34.9226L162.041 32.6221C161.987 32.5548 161.895 32.5299 161.814 32.5598L159.49 33.4142C158.574 32.7088 157.539 32.1444 156.414 31.7577L155.848 29.3496C155.828 29.2651 155.757 29.2025 155.67 29.1938L152.716 28.8946C152.63 28.8859 152.547 28.9329 152.511 29.0116L151.473 31.2572C150.293 31.4104 149.166 31.7557 148.127 32.2632L146.022 30.9603C145.949 30.9146 145.854 30.9208 145.787 30.9757L143.486 32.853C143.419 32.9079 143.394 32.9993 143.424 33.0807L144.278 35.404C143.573 36.3199 143.009 37.3549 142.622 38.48L140.214 39.0466C140.129 39.0664 140.067 39.1377 140.058 39.2241L139.759 42.1781C139.75 42.2645 139.797 42.3468 139.876 42.3833L142.121 43.4213C142.275 44.6011 142.62 45.7282 143.127 46.7669L141.824 48.8718C141.779 48.9455 141.785 49.0401 141.84 49.1074L143.717 51.4079Z" fill="#91B3FA"/>
<path d="M152.872 45.0533C152.224 45.0533 151.595 44.8466 151.066 44.4531C150.415 43.9691 149.991 43.2603 149.873 42.4573C149.628 40.8004 150.778 39.2534 152.435 39.0087C154.095 38.7671 155.64 39.9144 155.884 41.5716C156.002 42.3746 155.801 43.1755 155.317 43.8267C154.833 44.4783 154.124 44.9022 153.321 45.0203C153.171 45.0424 153.021 45.0533 152.872 45.0533ZM152.88 39.7795C152.771 39.7795 152.662 39.7873 152.552 39.8034C151.333 39.9834 150.488 41.1214 150.667 42.3405C150.754 42.9308 151.066 43.4525 151.545 43.8082C152.024 44.1644 152.613 44.3119 153.204 44.2256C153.795 44.1385 154.316 43.8267 154.672 43.3478C155.028 42.8684 155.176 42.2793 155.089 41.6885C154.926 40.5797 153.969 39.7795 152.88 39.7795Z" fill="#BDD0FB"/>
<path d="M152.932 49.5385C152.678 49.5385 152.421 49.5255 152.163 49.4997C151.651 49.4479 151.143 49.344 150.653 49.1903C150.631 49.1832 150.609 49.1762 150.587 49.169C150.417 49.1141 150.309 48.9569 150.309 48.7874C150.309 48.7462 150.316 48.7043 150.329 48.6631C150.397 48.452 150.624 48.3375 150.835 48.405C151.291 48.5529 151.765 48.6521 152.244 48.7003H152.244C152.271 48.7031 152.297 48.7054 152.323 48.7078C153.458 48.8117 154.575 48.6289 155.594 48.1896C156.148 47.9511 156.672 47.6365 157.154 47.2501C157.158 47.247 157.162 47.2439 157.166 47.2407C157.178 47.2309 157.19 47.2214 157.202 47.2116C158.601 46.0694 159.473 44.4506 159.655 42.6533C159.678 42.4207 159.69 42.1889 159.69 41.9583C159.69 40.4065 159.16 38.9144 158.166 37.6957C157.024 36.2961 155.405 35.4253 153.608 35.2433C151.812 35.0621 150.05 35.5901 148.65 36.7319C147.251 37.8742 146.379 39.4929 146.197 41.2902C146.174 41.5189 146.163 41.748 146.163 41.9763C146.163 42.9663 146.38 43.945 146.801 44.8417C146.827 44.897 146.839 44.9551 146.839 45.0123C146.839 45.163 146.754 45.3077 146.608 45.376C146.407 45.4697 146.168 45.3842 146.074 45.183C145.602 44.1797 145.36 43.0845 145.359 41.9772C145.359 41.7215 145.372 41.4653 145.398 41.2096C145.602 39.1985 146.576 37.3875 148.142 36.1096C149.708 34.8321 151.677 34.239 153.689 34.4441C155.699 34.6476 157.51 35.622 158.788 37.1882C159.901 38.5513 160.493 40.2207 160.493 41.9568C160.493 42.2145 160.48 42.4741 160.454 42.7342C160.059 46.6272 156.764 49.5385 152.932 49.5385Z" fill="#BDD0FB"/>
<g opacity="0.3">
<path d="M206.766 77.8448C206.772 78.0184 206.664 78.1821 206.49 78.2393C206.166 78.346 205.835 78.4445 205.505 78.5318C205.29 78.5885 205.071 78.4607 205.014 78.2461C204.956 78.0316 205.085 77.8119 205.299 77.7552C205.614 77.6721 205.93 77.5783 206.239 77.4764C206.449 77.4069 206.676 77.5214 206.746 77.732C206.758 77.7694 206.765 77.8073 206.766 77.8448Z" fill="#91B3FA"/>
<path d="M203.756 78.5383C203.763 78.7417 203.614 78.9212 203.408 78.949C202.827 79.0278 202.234 79.0776 201.648 79.0969C201.524 79.1009 201.4 79.1036 201.276 79.1052C201.054 79.1077 200.88 78.9179 200.869 78.7083C200.866 78.4864 201.044 78.3046 201.266 78.3018C201.385 78.3003 201.503 78.2979 201.621 78.294C202.181 78.2755 202.746 78.2281 203.3 78.1531C203.52 78.1233 203.723 78.2774 203.753 78.4971C203.754 78.511 203.755 78.5247 203.756 78.5383ZM199.586 78.5874C199.586 78.6064 199.586 78.6258 199.584 78.6451C199.559 78.8657 199.361 79.0247 199.14 79.0004C198.433 78.9224 197.724 78.7998 197.033 78.6359C196.818 78.5848 196.685 78.3672 196.735 78.1524C196.787 77.9364 197.003 77.8032 197.219 77.8543C197.878 78.0106 198.554 78.1275 199.229 78.2019C199.429 78.2242 199.579 78.3909 199.586 78.5874ZM195.528 77.6237C195.53 77.6746 195.522 77.7267 195.503 77.7774C195.425 77.9852 195.194 78.0905 194.986 78.013C194.32 77.7641 193.663 77.4711 193.032 77.1413C192.835 77.0385 192.759 76.7965 192.862 76.5992C192.965 76.4028 193.208 76.3267 193.404 76.4293C194.006 76.7437 194.632 77.0233 195.267 77.2604C195.424 77.3192 195.523 77.4659 195.528 77.6237ZM191.831 75.6919C191.834 75.775 191.811 75.8596 191.76 75.9333C191.634 76.1156 191.384 76.1614 191.201 76.0351C190.616 75.63 190.051 75.1851 189.521 74.7124C189.355 74.5645 189.342 74.3104 189.489 74.1453C189.636 73.9797 189.89 73.9653 190.056 74.1131C190.561 74.5637 191.1 74.9882 191.658 75.3745C191.767 75.4497 191.827 75.569 191.831 75.6919ZM188.719 72.9159C188.723 73.032 188.676 73.1489 188.582 73.2315C188.415 73.3777 188.162 73.3609 188.015 73.1942C187.547 72.6594 187.106 72.0907 186.707 71.5038C186.582 71.3203 186.63 71.0705 186.813 70.9457C186.997 70.8209 187.247 70.8685 187.371 71.0517C187.752 71.6118 188.172 72.1542 188.619 72.6644C188.683 72.7372 188.716 72.8263 188.719 72.9159ZM186.374 69.4691C186.379 69.6194 186.299 69.7665 186.156 69.8398C185.959 69.9411 185.717 69.8631 185.616 69.6659C185.291 69.0334 185.003 68.3745 184.759 67.7079C184.684 67.4987 184.791 67.2689 184.999 67.1928C185.207 67.1166 185.438 67.2241 185.514 67.4323C185.746 68.0681 186.021 68.696 186.33 69.299C186.359 69.3536 186.373 69.4116 186.374 69.4691ZM184.944 65.5547C184.951 65.7428 184.823 65.9152 184.633 65.9589C184.417 66.0086 184.201 65.8736 184.152 65.6575C183.993 64.9669 183.875 64.2572 183.802 63.5481C183.783 63.3266 183.94 63.13 184.161 63.1074C184.381 63.0847 184.578 63.2451 184.601 63.4657C184.671 64.1422 184.783 64.819 184.934 65.4775C184.94 65.5034 184.944 65.5291 184.944 65.5547ZM184.688 59.3236C184.689 59.3467 184.688 59.3705 184.684 59.3943C184.601 59.9739 184.548 60.5683 184.527 61.1611C184.523 61.2508 184.52 61.339 184.519 61.427C184.514 61.649 184.331 61.8253 184.109 61.821C183.887 61.8172 183.704 61.6325 183.715 61.4119C183.717 61.318 183.72 61.2244 183.724 61.1303C183.746 60.511 183.802 59.8879 183.889 59.2801C183.921 59.0604 184.124 58.9081 184.344 58.9397C184.539 58.9677 184.682 59.1325 184.688 59.3236Z" fill="#91B3FA"/>
</g>
<g opacity="0.3">
<path d="M218.39 60.951C218.397 61.1701 218.226 61.3551 218.006 61.3652C217.785 61.3755 217.597 61.2041 217.587 60.9825C217.556 60.3153 217.485 59.6444 217.374 58.9883C217.339 58.7707 217.484 58.5622 217.703 58.5254C217.922 58.4886 218.129 58.6362 218.166 58.8548C218.282 59.5428 218.357 60.2462 218.389 60.9455C218.389 60.9472 218.39 60.9492 218.39 60.951ZM218.36 63.0057C218.361 63.0202 218.36 63.0345 218.359 63.0492C218.308 63.7466 218.213 64.4479 218.078 65.1336C218.035 65.3513 217.824 65.493 217.607 65.4501C217.389 65.4075 217.248 65.1951 217.29 64.9787C217.419 64.3243 217.509 63.6551 217.558 62.9896C217.575 62.7685 217.767 62.6025 217.988 62.6189C218.195 62.6343 218.354 62.8034 218.36 63.0057ZM217.707 56.9069C217.713 57.085 217.599 57.2515 217.42 57.3049C217.208 57.3682 216.984 57.2475 216.921 57.0348C216.729 56.3946 216.498 55.7607 216.231 55.1505C216.144 54.9464 216.236 54.7104 216.439 54.6219C216.643 54.5332 216.879 54.6262 216.968 54.8296C217.247 55.4692 217.49 56.1338 217.69 56.805C217.7 56.8391 217.706 56.8733 217.707 56.9069ZM217.566 67.0316C217.567 67.0772 217.561 67.124 217.546 67.17C217.328 67.835 217.067 68.4931 216.77 69.126C216.675 69.3268 216.436 69.4131 216.235 69.3188C216.035 69.2246 215.949 68.9853 216.043 68.7846C216.326 68.1811 216.575 67.5537 216.783 66.9197C216.852 66.7091 217.079 66.594 217.29 66.6632C217.454 66.7172 217.561 66.8678 217.566 67.0316ZM216.067 53.1482C216.072 53.2903 216.001 53.4307 215.87 53.5078C215.678 53.6207 215.432 53.5569 215.319 53.366C214.981 52.7918 214.604 52.2324 214.198 51.7032C214.063 51.5269 214.096 51.2748 214.272 51.1399C214.449 51.0049 214.701 51.0382 214.836 51.2143C215.261 51.7694 215.657 52.3559 216.012 52.9578C216.047 53.0178 216.065 53.0833 216.067 53.1482ZM213.573 49.8924C213.577 50.0012 213.536 50.1109 213.453 50.1929C213.294 50.3481 213.04 50.3455 212.885 50.1869C212.417 49.7094 211.917 49.2561 211.398 48.8397C211.224 48.7008 211.197 48.4478 211.335 48.2751C211.474 48.102 211.727 48.0742 211.9 48.2129C212.444 48.6494 212.969 49.1245 213.459 49.6249C213.532 49.6996 213.57 49.7956 213.573 49.8924ZM210.371 47.3277C210.373 47.4041 210.354 47.4821 210.311 47.552C210.194 47.7407 209.946 47.7988 209.758 47.6821C209.19 47.33 208.595 47.0102 207.991 46.7312C207.79 46.6382 207.702 46.3995 207.795 46.1983C207.888 45.9968 208.126 45.9089 208.328 46.002C208.962 46.2946 209.585 46.6301 210.181 46.999C210.3 47.0726 210.367 47.1979 210.371 47.3277Z" fill="#91B3FA"/>
<path d="M215.811 70.762C215.814 70.8394 215.794 70.9184 215.75 70.9889C215.567 71.2799 215.374 71.5667 215.177 71.8416C215.048 72.0218 214.797 72.0637 214.617 71.9346C214.437 71.8053 214.395 71.5547 214.524 71.3741C214.711 71.112 214.895 70.8383 215.07 70.5607C215.188 70.3729 215.436 70.3167 215.624 70.4349C215.741 70.5089 215.807 70.6332 215.811 70.762Z" fill="#91B3FA"/>
</g>
<path d="M210.614 70.5995C210.68 70.5425 210.702 70.4503 210.669 70.3699L209.739 68.0759C210.413 67.1373 210.944 66.0843 211.293 64.9471L213.681 64.3015C213.765 64.2789 213.825 64.2056 213.831 64.119L214.033 61.1566C214.039 61.07 213.989 60.9893 213.909 60.9555L211.631 59.992C211.439 58.8178 211.056 57.7027 210.515 56.6813L211.748 54.5347C211.791 54.4594 211.782 54.3651 211.725 54.2997L209.773 52.0623C209.716 51.997 209.623 51.9749 209.543 52.0076L207.249 52.938C206.311 52.2632 205.258 51.7331 204.12 51.3837L203.475 48.9956C203.452 48.9119 203.379 48.8517 203.292 48.8458L200.33 48.644C200.243 48.6381 200.162 48.6878 200.129 48.7677L199.165 51.0462C197.991 51.2382 196.876 51.6205 195.854 52.1618L193.708 50.9289C193.633 50.8857 193.538 50.895 193.473 50.952L191.235 52.9041C191.17 52.9612 191.148 53.0534 191.18 53.1338L192.111 55.4278C191.436 56.3663 190.906 57.4193 190.557 58.5565L188.168 59.2022C188.085 59.2248 188.025 59.298 188.019 59.3846L187.817 62.3471C187.811 62.4337 187.861 62.5144 187.941 62.5483L190.219 63.5118C190.411 64.6859 190.793 65.801 191.335 66.8225L190.102 68.969C190.059 69.0443 190.068 69.1387 190.125 69.204L192.077 71.4414C192.134 71.5068 192.226 71.5288 192.307 71.4962L194.601 70.5658C195.539 71.2407 196.592 71.7706 197.729 72.1201L198.375 74.5082C198.398 74.5919 198.471 74.6522 198.558 74.658L201.52 74.8599C201.607 74.8657 201.687 74.816 201.721 74.7362L202.685 72.4577C203.859 72.2657 204.974 71.8834 205.995 71.3421L208.142 72.575C208.217 72.6182 208.312 72.6089 208.377 72.5519L210.614 70.5995Z" fill="#91B3FA"/>
<path d="M203.962 61.6594C203.983 62.307 203.797 62.9418 203.422 63.484C202.959 64.1509 202.265 64.5979 201.466 64.7424C199.818 65.0412 198.234 63.9434 197.935 62.2949C197.639 60.6437 198.735 59.0621 200.383 58.7634C201.182 58.6186 201.989 58.7935 202.655 59.2559C203.323 59.7182 203.77 60.4127 203.914 61.2115C203.941 61.3608 203.957 61.5106 203.962 61.6594ZM198.691 61.8254C198.694 61.9334 198.706 62.0423 198.725 62.1518C198.945 63.3643 200.111 64.1718 201.323 63.9521C201.91 63.8457 202.422 63.517 202.761 63.0265C203.101 62.5356 203.23 61.9421 203.124 61.3546C203.017 60.7673 202.688 60.2563 202.198 59.9163C201.707 59.5761 201.114 59.4475 200.526 59.554C199.423 59.7538 198.655 60.7365 198.691 61.8254Z" fill="#BDD0FB"/>
<path d="M208.442 61.4524C208.45 61.7064 208.446 61.9628 208.428 62.2217C208.393 62.7356 208.306 63.2465 208.169 63.7414C208.162 63.7636 208.156 63.7858 208.15 63.808C208.101 63.9796 207.947 64.0927 207.778 64.0985C207.736 64.0999 207.694 64.0948 207.653 64.0828C207.439 64.0215 207.318 63.7987 207.378 63.5857C207.511 63.1249 207.594 62.6477 207.627 62.1674V62.1673C207.629 62.1409 207.63 62.1144 207.632 62.0882C207.698 60.9508 207.479 59.8399 207.006 58.8356C206.75 58.2906 206.418 57.7768 206.016 57.3074C206.013 57.3036 206.009 57.2998 206.006 57.2959C205.996 57.2843 205.986 57.2726 205.976 57.2612C204.788 55.9001 203.142 55.0826 201.339 54.9599C201.106 54.9438 200.874 54.9399 200.643 54.9475C199.092 54.9988 197.619 55.5772 196.433 56.6112C195.072 57.7989 194.255 59.4455 194.132 61.2476C194.01 63.0487 194.596 64.7921 195.783 66.1535C196.971 67.5146 198.618 68.3321 200.42 68.4548C200.649 68.4706 200.879 68.4745 201.107 68.467C202.096 68.4342 203.067 68.1854 203.95 67.7348C204.004 67.7071 204.062 67.6928 204.119 67.6912C204.269 67.6862 204.417 67.7667 204.49 67.9099C204.59 68.1077 204.513 68.3493 204.315 68.4504C203.327 68.9544 202.241 69.233 201.134 69.2699C200.878 69.2783 200.622 69.274 200.366 69.2565C198.349 69.1191 196.507 68.2047 195.178 66.6816C193.85 65.1587 193.192 63.2105 193.331 61.1932C193.468 59.1768 194.382 57.3347 195.905 56.006C197.231 54.8491 198.88 54.2022 200.615 54.1448C200.873 54.1363 201.133 54.1407 201.394 54.1584C205.298 54.4246 208.316 57.6226 208.442 61.4524Z" fill="#BDD0FB"/>
<path d="M196.381 180.514H193.074V216.275H196.381V180.514Z" fill="#91B3FA"/>
<path d="M209.209 216.965H180.246V213.699C180.246 213.592 180.333 213.505 180.44 213.505H209.016C209.122 213.505 209.209 213.592 209.209 213.699V216.965Z" fill="#91B3FA"/>
<path d="M213.505 177.965C213.505 179.921 211.905 181.521 209.949 181.521H180.646C178.69 181.521 177.09 179.921 177.09 177.965V174.75C177.09 172.794 178.69 171.193 180.646 171.193H209.949C211.905 171.193 213.505 172.794 213.505 174.75V177.965Z" fill="#91B3FA"/>
<path d="M19.3108 179.379H16.0039V215.14H19.3108V179.379Z" fill="#91B3FA"/>
<path d="M32.1428 215.83H3.17969V212.564C3.17969 212.457 3.26637 212.37 3.37332 212.37H31.9492C32.0561 212.37 32.1428 212.457 32.1428 212.564V215.83Z" fill="#91B3FA"/>
<path d="M36.439 176.83C36.439 178.786 34.8386 180.386 32.8827 180.386H3.57958C1.62368 180.386 0.0234375 178.786 0.0234375 176.83V173.615C0.0234375 171.659 1.62376 170.059 3.57958 170.059H32.8827C34.8387 170.059 36.439 171.659 36.439 173.615V176.83Z" fill="#91B3FA"/>
<path d="M179.121 88.2468C179.121 88.2468 181.567 83.4061 183.699 85.7334C185.832 88.0608 181.152 90.1678 179.344 90.8127L179.121 88.2468Z" fill="url(#paint46_linear_2194_29859)"/>
<path d="M170.308 155.362C170.308 155.362 165.394 156.124 159.87 159.817C159 160.398 158.523 161.412 158.654 162.449C159.316 167.689 162.036 184.65 171.005 201.216C171.478 202.089 171.614 203.106 171.405 204.077L169.847 211.329L166.957 214.039H174.401L179.357 200.627L177.237 199.957C175.594 199.437 174.467 197.926 174.437 196.203L174.189 181.816C174.401 175.406 170.258 170.983 170.258 170.983L182.146 170.405L170.308 155.362Z" fill="url(#paint47_linear_2194_29859)"/>
<path d="M164.052 215.346C163.374 216.233 171.348 217.404 175.377 215.464C175.377 215.464 180.961 205.747 180.961 200.745C180.961 200.745 180.518 199.725 177.239 199.956C177.239 199.956 175.364 211.46 173.384 212.749C171.404 214.038 167.845 212.88 167.845 212.88C167.845 212.88 165.053 214.037 164.052 215.346Z" fill="url(#paint48_linear_2194_29859)"/>
<path d="M180.644 171.194C180.581 171.084 167.846 169.663 167.846 169.663C167.846 169.663 168.262 173.535 166.96 178.865C165.657 184.196 146.959 207.29 146.959 207.29L148.919 213.505C142.858 215.617 136.895 215.954 131.027 214.582L143.178 207.29C143.178 207.29 154.549 168.539 161.514 161.626L174.28 157.209L180.644 171.194Z" fill="url(#paint49_linear_2194_29859)"/>
<path d="M209.205 148.646C209.205 148.646 216.542 159.559 217.144 164.537C217.746 169.516 215.134 171.538 207.436 171.872C199.737 172.205 179.184 172.2 179.184 172.2L163.384 158.697C162.609 158.035 162.837 156.782 163.797 156.438C167.588 155.08 175.28 152.316 177.75 151.357C181.073 150.068 209.205 148.646 209.205 148.646Z" fill="url(#paint50_linear_2194_29859)"/>
<path d="M148.177 211.412C148.177 211.412 150.288 213.457 148.862 215.731C148.862 215.731 132.141 218.695 127.602 217.35C127.602 217.35 128.544 215.199 133.656 212.75L133.279 213.039C132.802 213.406 133.082 214.169 133.682 214.135C137.051 213.943 144.022 213.326 148.177 211.412Z" fill="url(#paint51_linear_2194_29859)"/>
<path d="M199.173 126.795C203.869 131.866 208.623 139.841 208.623 139.841L216.656 137.34C209.503 117.325 191.298 105.509 191.298 105.509C191.298 105.509 182.046 105.445 181.585 106.989C181.285 107.996 177.989 114.466 176.135 120.714C175.119 124.134 175.809 127.838 178.004 130.651C181.505 135.135 188.112 141.586 189.873 143.285L191.475 147.952C192.64 151.347 196.04 153.446 199.597 152.967L210.991 151.433C209.769 148.09 208.499 144.943 207.188 141.968L199.173 126.795Z" fill="url(#paint52_linear_2194_29859)"/>
<path d="M179.23 97.7685C179.327 98.0894 182.977 106.687 183.166 106.854C183.355 107.02 188.462 107.294 190.865 105.651L185.714 91.7207L179.23 97.7685Z" fill="url(#paint53_linear_2194_29859)"/>
<path d="M179.092 81.7535C179.092 81.7535 174.342 83.1072 170.431 89.3271C166.52 95.5471 168.413 98.8947 171.23 99.6832C174.046 100.472 178.348 100.96 183.439 97.2719C188.529 93.5838 185.238 80.2154 179.092 81.7535Z" fill="url(#paint54_linear_2194_29859)"/>
<path d="M180.446 93.0555C180.446 93.0555 184.568 84.1804 176.441 83.3212L174.439 84.5485C174.439 84.5485 173.455 78.8239 178.579 76.8471C183.703 74.8703 192.25 80.4055 193.726 87.1993C195.202 93.9932 187.606 99.3435 186.264 98.4205C185.738 98.0585 183.914 94.3687 183.914 94.3687C183.914 94.3687 184.127 94.9244 183.504 93.2729C182.881 91.6215 180.931 93.3652 180.931 93.3652L180.446 93.0555Z" fill="url(#paint55_linear_2194_29859)"/>
<path d="M193.302 94.0307C192.25 92.959 192.93 91.145 194.414 90.9113C199.203 90.1568 206.507 90.908 209.591 101.157C213.064 112.703 215.322 118.474 217.632 119.485C219.149 120.148 219.25 122.252 217.74 122.933C216.624 123.436 215.026 123.616 212.737 123.116C195.079 119.26 199.474 100.317 193.302 94.0307Z" fill="url(#paint56_linear_2194_29859)"/>
<path d="M175.121 142.713L180.893 137.149L188.878 140.523C188.878 140.523 196.827 141.754 201.376 140.523C205.925 139.291 205.925 139.291 205.925 139.291L216.205 136.091L217.819 140.654C218.229 141.812 217.817 143.098 216.816 143.81C215.926 144.442 214.884 145.137 214.219 145.427C212.866 146.02 180.847 145.018 180.847 145.018L175.121 142.713Z" fill="url(#paint57_linear_2194_29859)"/>
<path d="M196.624 147.809C196.6 147.81 196.576 147.811 196.552 147.811L165.532 147.777C164.765 147.776 164.144 147.154 164.145 146.387C164.145 145.62 164.77 144.986 165.535 145L196.555 145.034C197.322 145.035 197.943 145.657 197.942 146.424C197.942 147.167 197.357 147.773 196.624 147.809Z" fill="url(#paint58_linear_2194_29859)"/>
<path d="M137.647 119.645H163.481C165.387 119.645 167.122 120.744 167.935 122.468L179.878 147.793H147.773C146.545 147.793 145.441 147.042 144.99 145.9L135.728 122.466C135.193 121.112 136.191 119.645 137.647 119.645Z" fill="url(#paint59_linear_2194_29859)"/>
<path d="M155.847 132.629C156.407 134.369 155.993 136.058 154.923 136.402C153.853 136.747 152.532 135.616 151.972 133.877C151.412 132.137 151.826 130.448 152.896 130.104C153.966 129.759 155.287 130.89 155.847 132.629Z" fill="url(#paint60_linear_2194_29859)"/>
<path d="M200.817 148.817C200.92 148.358 200.78 147.883 200.436 147.523C200.092 147.162 199.579 146.953 199.038 146.953H15.8004C15.089 146.953 14.4267 147.266 14.0434 147.784C13.6602 148.302 13.6088 148.953 13.9071 149.511L15.8928 153.225C16.3474 154.075 17.3326 154.62 18.4168 154.62H197.781C198.789 154.62 199.656 154.002 199.848 153.146L200.817 148.817Z" fill="#7D97F4"/>
<path d="M24.1527 218.925C23.8946 218.925 23.6324 218.889 23.38 218.814C22.3868 218.518 21.9279 217.721 22.3551 217.033L63.4156 150.929C63.8427 150.241 64.9936 149.923 65.9878 150.219C66.981 150.515 67.4398 151.312 67.0126 152L25.9522 218.104C25.6335 218.618 24.9114 218.925 24.1527 218.925Z" fill="#7D97F4"/>
<path d="M70.4103 218.925C69.6516 218.925 68.9295 218.618 68.6109 218.105L27.5505 152C27.1232 151.313 27.582 150.515 28.5753 150.219C29.5678 149.923 30.7198 150.241 31.1475 150.929L72.2079 217.033C72.6352 217.721 72.1763 218.518 71.1831 218.814C70.931 218.889 70.6684 218.925 70.4103 218.925Z" fill="#7D97F4"/>
<path d="M141.45 219.668C141.177 219.668 140.9 219.632 140.632 219.557C139.581 219.261 139.096 218.464 139.548 217.776L182.997 151.672C183.449 150.984 184.666 150.667 185.719 150.962C186.77 151.258 187.255 152.055 186.803 152.743L143.354 218.848C143.017 219.361 142.253 219.668 141.45 219.668Z" fill="#7D97F4"/>
<path d="M190.393 219.668C189.59 219.668 188.826 219.361 188.489 218.848L145.04 152.744C144.588 152.056 145.074 151.258 146.125 150.962C147.175 150.666 148.394 150.984 148.846 151.672L192.295 217.776C192.748 218.464 192.262 219.262 191.211 219.558C190.944 219.633 190.666 219.668 190.393 219.668Z" fill="#7D97F4"/>
<path d="M39.7992 147.431C39.8229 147.433 39.8467 147.433 39.8705 147.433L70.8913 147.399C71.6581 147.399 72.279 146.776 72.2783 146.009C72.2776 145.242 71.653 144.609 70.8883 144.622L39.8675 144.656C39.1007 144.657 38.4798 145.279 38.4805 146.046C38.4813 146.789 39.0656 147.395 39.7992 147.431Z" fill="url(#paint61_linear_2194_29859)"/>
<path d="M98.7776 119.266H72.9434C71.0375 119.266 69.3029 120.365 68.49 122.089L56.5469 147.414H88.652C89.8801 147.414 90.9836 146.664 91.435 145.521L100.696 122.087C101.231 120.733 100.234 119.266 98.7776 119.266Z" fill="url(#paint62_linear_2194_29859)"/>
<path d="M80.5778 132.252C80.0179 133.991 80.4315 135.68 81.5015 136.024C82.5714 136.369 83.8927 135.238 84.4525 133.499C85.0124 131.759 84.5988 130.07 83.5288 129.726C82.4589 129.381 81.1376 130.512 80.5778 132.252Z" fill="url(#paint63_linear_2194_29859)"/>
<defs>
<linearGradient id="paint0_linear_2194_29859" x1="233.724" y1="247.979" x2="70.7819" y2="76.0104" gradientUnits="userSpaceOnUse">
<stop stop-color="#DAE3FE"/>
<stop offset="1" stop-color="#E9EFFD"/>
</linearGradient>
<linearGradient id="paint1_linear_2194_29859" x1="91.4643" y1="32.9164" x2="-4.90653e-05" y2="32.9164" gradientUnits="userSpaceOnUse">
<stop stop-color="#4F52FF"/>
<stop offset="1" stop-color="#4042E2"/>
</linearGradient>
<linearGradient id="paint2_linear_2194_29859" x1="4.07804" y1="34.1177" x2="86.6589" y2="34.1177" gradientUnits="userSpaceOnUse">
<stop stop-color="#DAE3FE"/>
<stop offset="1" stop-color="#E9EFFD"/>
</linearGradient>
<linearGradient id="paint3_linear_2194_29859" x1="75.6867" y1="32.267" x2="10.4961" y2="32.267" gradientUnits="userSpaceOnUse">
<stop stop-color="#4F52FF"/>
<stop offset="1" stop-color="#4042E2"/>
</linearGradient>
<linearGradient id="paint4_linear_2194_29859" x1="59.1986" y1="39.6252" x2="58.5937" y2="39.6252" gradientUnits="userSpaceOnUse">
<stop stop-color="#4F52FF"/>
<stop offset="1" stop-color="#4042E2"/>
</linearGradient>
<linearGradient id="paint5_linear_2194_29859" x1="42.5423" y1="47.9556" x2="41.9375" y2="47.9556" gradientUnits="userSpaceOnUse">
<stop stop-color="#4F52FF"/>
<stop offset="1" stop-color="#4042E2"/>
</linearGradient>
<linearGradient id="paint6_linear_2194_29859" x1="30.4927" y1="44.3996" x2="29.2969" y2="44.3996" gradientUnits="userSpaceOnUse">
<stop stop-color="#4F52FF"/>
<stop offset="1" stop-color="#4042E2"/>
</linearGradient>
<linearGradient id="paint7_linear_2194_29859" x1="17.808" y1="48.7447" x2="17.2031" y2="48.7447" gradientUnits="userSpaceOnUse">
<stop stop-color="#4F52FF"/>
<stop offset="1" stop-color="#4042E2"/>
</linearGradient>
<linearGradient id="paint8_linear_2194_29859" x1="80.5993" y1="37.1249" x2="76.2031" y2="37.1249" gradientUnits="userSpaceOnUse">
<stop stop-color="#4F52FF"/>
<stop offset="1" stop-color="#4042E2"/>
</linearGradient>
<linearGradient id="paint9_linear_2194_29859" x1="80.5974" y1="17.4887" x2="76.2012" y2="17.4887" gradientUnits="userSpaceOnUse">
<stop stop-color="#4F52FF"/>
<stop offset="1" stop-color="#4042E2"/>
</linearGradient>
<linearGradient id="paint10_linear_2194_29859" x1="79.6873" y1="55.3208" x2="7.82247" y2="55.3208" gradientUnits="userSpaceOnUse">
<stop stop-color="#4F52FF"/>
<stop offset="1" stop-color="#4042E2"/>
</linearGradient>
<linearGradient id="paint11_linear_2194_29859" x1="79.6887" y1="55.3223" x2="7.82368" y2="55.3223" gradientUnits="userSpaceOnUse">
<stop stop-color="#4F52FF"/>
<stop offset="1" stop-color="#4042E2"/>
</linearGradient>
<linearGradient id="paint12_linear_2194_29859" x1="89.2483" y1="199.088" x2="150.845" y2="266.088" gradientUnits="userSpaceOnUse">
<stop stop-color="#09005D"/>
<stop offset="1" stop-color="#1A0F91"/>
</linearGradient>
<linearGradient id="paint13_linear_2194_29859" x1="109.245" y1="204.064" x2="103.773" y2="204.064" gradientUnits="userSpaceOnUse">
<stop stop-color="#FEBBBA"/>
<stop offset="1" stop-color="#FF928E"/>
</linearGradient>
<linearGradient id="paint14_linear_2194_29859" x1="84.3986" y1="123.319" x2="136.811" y2="194.358" gradientUnits="userSpaceOnUse">
<stop stop-color="#09005D"/>
<stop offset="1" stop-color="#1A0F91"/>
</linearGradient>
<linearGradient id="paint15_linear_2194_29859" x1="103.067" y1="186.385" x2="164.663" y2="253.385" gradientUnits="userSpaceOnUse">
<stop stop-color="#09005D"/>
<stop offset="1" stop-color="#1A0F91"/>
</linearGradient>
<linearGradient id="paint16_linear_2194_29859" x1="128.962" y1="203.784" x2="124.238" y2="203.784" gradientUnits="userSpaceOnUse">
<stop stop-color="#FEBBBA"/>
<stop offset="1" stop-color="#FF928E"/>
</linearGradient>
<linearGradient id="paint17_linear_2194_29859" x1="93.7417" y1="116.426" x2="146.155" y2="187.465" gradientUnits="userSpaceOnUse">
<stop stop-color="#09005D"/>
<stop offset="1" stop-color="#1A0F91"/>
</linearGradient>
<linearGradient id="paint18_linear_2194_29859" x1="-834.676" y1="-654.018" x2="-805" y2="-630.674" gradientUnits="userSpaceOnUse">
<stop stop-color="#FF928E"/>
<stop offset="1" stop-color="#FE7062"/>
</linearGradient>
<linearGradient id="paint19_linear_2194_29859" x1="63.0837" y1="28.7589" x2="72.7371" y2="56.3401" gradientUnits="userSpaceOnUse">
<stop stop-color="#FEBBBA"/>
<stop offset="1" stop-color="#FF928E"/>
</linearGradient>
<linearGradient id="paint20_linear_2194_29859" x1="54.834" y1="31.6452" x2="64.4874" y2="59.2264" gradientUnits="userSpaceOnUse">
<stop stop-color="#FEBBBA"/>
<stop offset="1" stop-color="#FF928E"/>
</linearGradient>
<linearGradient id="paint21_linear_2194_29859" x1="62.252" y1="49.2667" x2="54.9805" y2="34.5984" gradientUnits="userSpaceOnUse">
<stop stop-color="#FEBBBA"/>
<stop offset="1" stop-color="#FF928E"/>
</linearGradient>
<linearGradient id="paint22_linear_2194_29859" x1="-822.592" y1="-669.38" x2="-792.916" y2="-646.035" gradientUnits="userSpaceOnUse">
<stop stop-color="#FF928E"/>
<stop offset="1" stop-color="#FE7062"/>
</linearGradient>
<linearGradient id="paint23_linear_2194_29859" x1="147.893" y1="100.918" x2="112.52" y2="100.918" gradientUnits="userSpaceOnUse">
<stop stop-color="#FEBBBA"/>
<stop offset="1" stop-color="#FF928E"/>
</linearGradient>
<linearGradient id="paint24_linear_2194_29859" x1="172.011" y1="18.3374" x2="145.897" y2="44.8477" gradientUnits="userSpaceOnUse">
<stop stop-color="#4F52FF"/>
<stop offset="1" stop-color="#4042E2"/>
</linearGradient>
<linearGradient id="paint25_linear_2194_29859" x1="115.149" y1="97.2083" x2="104.129" y2="97.2083" gradientUnits="userSpaceOnUse">
<stop stop-color="#FEBBBA"/>
<stop offset="1" stop-color="#FF928E"/>
</linearGradient>
<linearGradient id="paint26_linear_2194_29859" x1="120.731" y1="63.1013" x2="106.746" y2="63.1013" gradientUnits="userSpaceOnUse">
<stop stop-color="#FEBBBA"/>
<stop offset="1" stop-color="#FF928E"/>
</linearGradient>
<linearGradient id="paint27_linear_2194_29859" x1="103.42" y1="54.2036" x2="118.797" y2="44.8247" gradientUnits="userSpaceOnUse">
<stop stop-color="#FEBBBA"/>
<stop offset="1" stop-color="#FF928E"/>
</linearGradient>
<linearGradient id="paint28_linear_2194_29859" x1="126.937" y1="34.9376" x2="107.072" y2="50.628" gradientUnits="userSpaceOnUse">
<stop stop-color="#09005D"/>
<stop offset="1" stop-color="#1A0F91"/>
</linearGradient>
<linearGradient id="paint29_linear_2194_29859" x1="107.457" y1="57.7011" x2="121.292" y2="49.2628" gradientUnits="userSpaceOnUse">
<stop stop-color="#FEBBBA"/>
<stop offset="1" stop-color="#FF928E"/>
</linearGradient>
<linearGradient id="paint30_linear_2194_29859" x1="45.0436" y1="151.599" x2="31.0743" y2="129.734" gradientUnits="userSpaceOnUse">
<stop stop-color="#E1473D"/>
<stop offset="1" stop-color="#E9605A"/>
</linearGradient>
<linearGradient id="paint31_linear_2194_29859" x1="40.5781" y1="136.998" x2="58.9705" y2="136.998" gradientUnits="userSpaceOnUse">
<stop stop-color="#FEBBBA"/>
<stop offset="1" stop-color="#FF928E"/>
</linearGradient>
<linearGradient id="paint32_linear_2194_29859" x1="45.008" y1="143.11" x2="60.6569" y2="145.101" gradientUnits="userSpaceOnUse">
<stop stop-color="#FEBBBA"/>
<stop offset="1" stop-color="#FF928E"/>
</linearGradient>
<linearGradient id="paint33_linear_2194_29859" x1="44.375" y1="214.381" x2="65.5172" y2="214.381" gradientUnits="userSpaceOnUse">
<stop stop-color="#09005D"/>
<stop offset="1" stop-color="#1A0F91"/>
</linearGradient>
<linearGradient id="paint34_linear_2194_29859" x1="60.6619" y1="173.728" x2="54.8853" y2="213.639" gradientUnits="userSpaceOnUse">
<stop stop-color="#09005D"/>
<stop offset="1" stop-color="#1A0F91"/>
</linearGradient>
<linearGradient id="paint35_linear_2194_29859" x1="45.4258" y1="208.01" x2="51.1463" y2="208.01" gradientUnits="userSpaceOnUse">
<stop stop-color="#FEBBBA"/>
<stop offset="1" stop-color="#FF928E"/>
</linearGradient>
<linearGradient id="paint36_linear_2194_29859" x1="77.5273" y1="210.191" x2="94.5972" y2="210.191" gradientUnits="userSpaceOnUse">
<stop stop-color="#09005D"/>
<stop offset="1" stop-color="#1A0F91"/>
</linearGradient>
<linearGradient id="paint37_linear_2194_29859" x1="89.2695" y1="177.869" x2="83.493" y2="217.78" gradientUnits="userSpaceOnUse">
<stop stop-color="#09005D"/>
<stop offset="1" stop-color="#1A0F91"/>
</linearGradient>
<linearGradient id="paint38_linear_2194_29859" x1="13.7968" y1="182.198" x2="59.0805" y2="182.198" gradientUnits="userSpaceOnUse">
<stop stop-color="#09005D"/>
<stop offset="1" stop-color="#1A0F91"/>
</linearGradient>
<linearGradient id="paint39_linear_2194_29859" x1="72.5235" y1="208.491" x2="79.3529" y2="208.491" gradientUnits="userSpaceOnUse">
<stop stop-color="#FEBBBA"/>
<stop offset="1" stop-color="#FF928E"/>
</linearGradient>
<linearGradient id="paint40_linear_2194_29859" x1="96.7767" y1="127.427" x2="90.8416" y2="132.966" gradientUnits="userSpaceOnUse">
<stop stop-color="#09005D"/>
<stop offset="1" stop-color="#1A0F91"/>
</linearGradient>
<linearGradient id="paint41_linear_2194_29859" x1="26.7355" y1="108.403" x2="28.6183" y2="99.465" gradientUnits="userSpaceOnUse">
<stop stop-color="#FEBBBA"/>
<stop offset="1" stop-color="#FF928E"/>
</linearGradient>
<linearGradient id="paint42_linear_2194_29859" x1="88.408" y1="53.9577" x2="64.2718" y2="86.4031" gradientUnits="userSpaceOnUse">
<stop stop-color="#FF928E"/>
<stop offset="1" stop-color="#FE7062"/>
</linearGradient>
<linearGradient id="paint43_linear_2194_29859" x1="34.7215" y1="92.1799" x2="18.1471" y2="105.535" gradientUnits="userSpaceOnUse">
<stop stop-color="#FEBBBA"/>
<stop offset="1" stop-color="#FF928E"/>
</linearGradient>
<linearGradient id="paint44_linear_2194_29859" x1="22.5914" y1="82.2702" x2="38.3892" y2="101.589" gradientUnits="userSpaceOnUse">
<stop stop-color="#09005D"/>
<stop offset="1" stop-color="#1A0F91"/>
</linearGradient>
<linearGradient id="paint45_linear_2194_29859" x1="32.554" y1="89.4934" x2="15.9798" y2="102.848" gradientUnits="userSpaceOnUse">
<stop stop-color="#FEBBBA"/>
<stop offset="1" stop-color="#FF928E"/>
</linearGradient>
<linearGradient id="paint46_linear_2194_29859" x1="169.042" y1="101.284" x2="182.741" y2="86.5492" gradientUnits="userSpaceOnUse">
<stop stop-color="#FEBBBA"/>
<stop offset="1" stop-color="#FF928E"/>
</linearGradient>
<linearGradient id="paint47_linear_2194_29859" x1="206.598" y1="135.669" x2="162.017" y2="193.441" gradientUnits="userSpaceOnUse">
<stop stop-color="#FEBBBA"/>
<stop offset="1" stop-color="#FF928E"/>
</linearGradient>
<linearGradient id="paint48_linear_2194_29859" x1="173.021" y1="200.021" x2="169.563" y2="253.049" gradientUnits="userSpaceOnUse">
<stop stop-color="#09005D"/>
<stop offset="1" stop-color="#1A0F91"/>
</linearGradient>
<linearGradient id="paint49_linear_2194_29859" x1="158.788" y1="195.938" x2="191.499" y2="249.489" gradientUnits="userSpaceOnUse">
<stop stop-color="#FEBBBA"/>
<stop offset="1" stop-color="#FF928E"/>
</linearGradient>
<linearGradient id="paint50_linear_2194_29859" x1="179.552" y1="200.94" x2="188.466" y2="168.071" gradientUnits="userSpaceOnUse">
<stop stop-color="#09005D"/>
<stop offset="1" stop-color="#1A0F91"/>
</linearGradient>
<linearGradient id="paint51_linear_2194_29859" x1="139.648" y1="197.845" x2="136.189" y2="250.873" gradientUnits="userSpaceOnUse">
<stop stop-color="#09005D"/>
<stop offset="1" stop-color="#1A0F91"/>
</linearGradient>
<linearGradient id="paint52_linear_2194_29859" x1="259.241" y1="95.2065" x2="228.379" y2="111.825" gradientUnits="userSpaceOnUse">
<stop stop-color="#FF928E"/>
<stop offset="1" stop-color="#FE7062"/>
</linearGradient>
<linearGradient id="paint53_linear_2194_29859" x1="188.02" y1="120.781" x2="184.261" y2="96.6614" gradientUnits="userSpaceOnUse">
<stop stop-color="#FEBBBA"/>
<stop offset="1" stop-color="#FF928E"/>
</linearGradient>
<linearGradient id="paint54_linear_2194_29859" x1="170.5" y1="101.35" x2="179.902" y2="89.6103" gradientUnits="userSpaceOnUse">
<stop stop-color="#FEBBBA"/>
<stop offset="1" stop-color="#FF928E"/>
</linearGradient>
<linearGradient id="paint55_linear_2194_29859" x1="209.62" y1="64.6042" x2="173.95" y2="95.461" gradientUnits="userSpaceOnUse">
<stop stop-color="#09005D"/>
<stop offset="1" stop-color="#1A0F91"/>
</linearGradient>
<linearGradient id="paint56_linear_2194_29859" x1="227.105" y1="84.7968" x2="191.654" y2="121.791" gradientUnits="userSpaceOnUse">
<stop stop-color="#09005D"/>
<stop offset="1" stop-color="#1A0F91"/>
</linearGradient>
<linearGradient id="paint57_linear_2194_29859" x1="201.832" y1="140.853" x2="244.687" y2="140.853" gradientUnits="userSpaceOnUse">
<stop stop-color="#FEBBBA"/>
<stop offset="1" stop-color="#FF928E"/>
</linearGradient>
<linearGradient id="paint58_linear_2194_29859" x1="201.887" y1="139.567" x2="177.261" y2="147.644" gradientUnits="userSpaceOnUse">
<stop stop-color="#09005D"/>
<stop offset="1" stop-color="#1A0F91"/>
</linearGradient>
<linearGradient id="paint59_linear_2194_29859" x1="168.061" y1="123.421" x2="150.327" y2="142.165" gradientUnits="userSpaceOnUse">
<stop stop-color="#09005D"/>
<stop offset="1" stop-color="#1A0F91"/>
</linearGradient>
<linearGradient id="paint60_linear_2194_29859" x1="157.339" y1="128.088" x2="149.293" y2="140.206" gradientUnits="userSpaceOnUse">
<stop stop-color="#4F52FF"/>
<stop offset="1" stop-color="#4042E2"/>
</linearGradient>
<linearGradient id="paint61_linear_2194_29859" x1="34.5362" y1="139.189" x2="59.1614" y2="147.266" gradientUnits="userSpaceOnUse">
<stop stop-color="#09005D"/>
<stop offset="1" stop-color="#1A0F91"/>
</linearGradient>
<linearGradient id="paint62_linear_2194_29859" x1="68.3639" y1="123.042" x2="86.098" y2="141.786" gradientUnits="userSpaceOnUse">
<stop stop-color="#09005D"/>
<stop offset="1" stop-color="#1A0F91"/>
</linearGradient>
<linearGradient id="paint63_linear_2194_29859" x1="79.0855" y1="127.71" x2="87.1321" y2="139.828" gradientUnits="userSpaceOnUse">
<stop stop-color="#4F52FF"/>
<stop offset="1" stop-color="#4042E2"/>
</linearGradient>
</defs>
</svg>
