<svg id="Layer_2_00000071539223317261515580000003682674422648049555_" enable-background="new 0 0 512 512" viewBox="0 0 512 512" xmlns="http://www.w3.org/2000/svg"><g id="Icon"><g id="_13"><g><path d="m318.5 378.2h-125l20-65h85z" fill="#ff7129"/><path d="m161 378.2h190c11 0 20 9 20 20v35h-230v-35c0-11 9-20 20-20z" fill="#b24e1d"/><path d="m128.5 433.2h255c15.2 0 27.5 12.3 27.5 27.5 0 15.2-12.3 27.5-27.5 27.5h-255c-15.2 0-27.5-12.3-27.5-27.5 0-15.1 12.3-27.5 27.5-27.5z" fill="#ffa017"/></g><g fill="#ff7129"><path d="m422.6 155.2c5 0 6.4 1.4 7.3 2.3 1.1 1.1 1.6 2 1.9 3.5.4 1.8.8 5.7-.8 12.4-3.7 15.9-15.5 34.6-32.3 51.4-24.7 24.7-47.8 33.5-60 33.5-5 0-6.4-1.4-7.3-2.3-1.1-1.1-1.6-2-1.9-3.5-.4-1.8-.8-5.7.8-12.4 3.7-15.9 15.5-34.6 32.3-51.4 24.7-24.7 47.7-33.5 60-33.5m0-55c-31.3 0-67.7 18.4-98.9 49.6-48.7 48.7-66.2 110.1-31.2 145.1 12.6 12.6 28.6 18.4 46.1 18.4 31.3 0 67.7-18.4 98.9-49.6 48.7-48.7 66.2-110.1 31.2-145.1-12.5-12.6-28.5-18.4-46.1-18.4z"/><path d="m89.4 155.2c12.3 0 35.3 8.8 60 33.5 16.8 16.8 28.6 35.6 32.3 51.4 1.6 6.7 1.2 10.6.8 12.4-.3 1.5-.8 2.4-1.9 3.5-.9.9-2.3 2.3-7.3 2.3-12.3 0-35.3-8.8-60-33.5-16.8-16.8-28.6-35.5-32.3-51.4-1.6-6.7-1.2-10.6-.8-12.4.3-1.5.8-2.4 1.9-3.5.9-.9 2.3-2.3 7.3-2.3m0-55c-17.6 0-33.6 5.8-46.2 18.4-35 35-17.5 96.4 31.2 145.1 31.2 31.2 67.6 49.6 98.9 49.6 17.6 0 33.6-5.8 46.1-18.4 35-35 17.5-96.4-31.2-145.1-31.1-31.2-67.5-49.6-98.8-49.6z"/></g><path d="m143.9 229.1v-26.7c0-23.3-3.8-46.5-11.9-68.4-5.2-14.1-8.1-29.3-8.1-45.3h264.2c0 15.9-2.9 31.2-8.1 45.3-8.1 21.8-11.9 45.1-11.9 68.4v26.7c0 61.9-50.2 112.1-112.1 112.1-61.9 0-112.1-50.2-112.1-112.1z" fill="#ffa017"/><path d="m123.5 23.8h265c17.9 0 32.5 14.6 32.5 32.5 0 17.9-14.6 32.5-32.5 32.5h-265c-17.9 0-32.5-14.6-32.5-32.6 0-17.9 14.6-32.4 32.5-32.4z" fill="#ffb031"/><g><circle cx="256" cy="195" fill="#fff0c5" r="70"/><path d="m255.5 242.5c-6.1 0-11.6-1.1-16.7-3.1-5.1-2.1-9.1-5.2-12.2-9.2-3-4.1-4.4-9-4.3-14.9l.1-.4h21.7c0 1.9.5 3.7 1.4 5.4.9 1.6 2.2 2.9 4 3.9 1.7 1 3.7 1.5 6.1 1.5 3.6 0 6.5-1.1 8.7-3.2 2.1-2.1 3.2-4.9 3.2-8.2s-1.2-6.3-3.5-8.5-5.7-3.3-10.2-3.3h-9.5v-16.4h10.1c2.5 0 4.6-.4 6.3-1.4 1.7-.9 3-2.2 3.9-3.8s1.3-3.5 1.3-5.7c0-3.1-.9-5.6-2.7-7.6s-4.4-3-7.7-3c-1.9 0-3.6.4-5.1 1.1s-2.7 1.8-3.6 3.1-1.3 2.9-1.3 4.7h-21.6l-.1-.4c-.2-5.1 1.1-9.5 3.8-13.4s6.4-6.8 11.3-9c4.8-2.1 10.3-3.2 16.4-3.2 9.9 0 17.9 2.3 23.9 6.8 6 4.6 9 11 9 19.3 0 4.6-1.2 8.6-3.6 11.8s-6.1 6.1-10.9 8.4c4.9 1.8 8.8 4.6 11.6 8.2s4.4 8.1 4.4 13.2c0 5.6-1.5 10.5-4.4 14.6-3 4.1-7 7.2-12.2 9.4s-11 3.4-17.6 3.3z" fill="#ffa017"/></g></g></g></svg>