<svg id="Layer_2_00000005955112023413250620000001194324022988722077_" enable-background="new 0 0 512 512" viewBox="0 0 512 512" xmlns="http://www.w3.org/2000/svg" xmlns:xlink="http://www.w3.org/1999/xlink"><linearGradient id="SVGID_1_" gradientTransform="matrix(1 0 0 -1 0 513.5)" gradientUnits="userSpaceOnUse" x1="256.005" x2="256.005" y1="200.25" y2="135.25"><stop offset="0" stop-color="#de5709"/><stop offset=".8" stop-color="#fdac33"/></linearGradient><linearGradient id="SVGID_00000103968412054719128150000011785702727485708683_" gradientTransform="matrix(1 0 0 -1 0 513.5)" gradientUnits="userSpaceOnUse" x1="256.005" x2="256.005" y1="80.25" y2="135.25"><stop offset="0" stop-color="#3d5969"/><stop offset="1" stop-color="#698999"/></linearGradient><linearGradient id="SVGID_00000094620407446844852260000008012105688359878786_" gradientTransform="matrix(1 0 0 -1 0 513.5)" gradientUnits="userSpaceOnUse" x1="256.005" x2="256.005" y1="25.25" y2="80.25"><stop offset="0" stop-color="#f90"/><stop offset="1" stop-color="#fcd34f"/></linearGradient><linearGradient id="lg1"><stop offset="0" stop-color="#de5709"/><stop offset=".21" stop-color="#e46912"/><stop offset=".64" stop-color="#f69929"/><stop offset=".8" stop-color="#fdac33"/></linearGradient><linearGradient id="SVGID_00000151524703475915494180000005333165152972319383_" gradientTransform="matrix(1 0 0 -1 0 513.5)" gradientUnits="userSpaceOnUse" x1="269.644" x2="491.576" xlink:href="#lg1" y1="291.195" y2="322.385"/><linearGradient id="SVGID_00000090976809541498817560000012075198418259211654_" gradientTransform="matrix(-1 0 0 -1 459.78 513.5)" gradientUnits="userSpaceOnUse" x1="217.429" x2="439.363" xlink:href="#lg1" y1="291.195" y2="322.384"/><linearGradient id="SVGID_00000002342615560430948330000013899370522028309427_" gradientTransform="matrix(1 0 0 -1 0 513.5)" gradientUnits="userSpaceOnUse" x1="256" x2="256" y1="424.75" y2="172.25"><stop offset="0" stop-color="#f90"/><stop offset=".11" stop-color="#ffa200"/><stop offset=".37" stop-color="#ffb300"/><stop offset=".65" stop-color="#ffbd00"/><stop offset="1" stop-color="#ffc100"/></linearGradient><linearGradient id="SVGID_00000103984233337916959820000005440382139228586393_" gradientTransform="matrix(1 0 0 -1 0 513.5)" gradientUnits="userSpaceOnUse" x1="256.005" x2="256.005" y1="424.75" y2="489.75"><stop offset="0" stop-color="#ffb300"/><stop offset="1" stop-color="#ffdf3d"/></linearGradient><linearGradient id="SVGID_00000099641785291644909400000007142070219164777103_" gradientTransform="matrix(1 0 0 -1 0 513.5)" gradientUnits="userSpaceOnUse" x1="256.005" x2="256.005" y1="248.5" y2="388.5"><stop offset="0" stop-color="#ffe187"/><stop offset="1" stop-color="#fff8e0"/></linearGradient><linearGradient id="SVGID_00000152261608242851487980000011594760201059275690_" gradientTransform="matrix(1 0 0 -1 0 513.5)" gradientUnits="userSpaceOnUse" x1="255.995" x2="255.995" y1="272.28" y2="364.7"><stop offset="0" stop-color="#fd7600"/><stop offset=".71" stop-color="#fdbf30"/></linearGradient><g id="Icon"><g id="_11"><g><path d="m318.5 378.2h-125l20-65h85z" fill="url(#SVGID_1_)"/><path d="m161 378.2h190c11 0 20 9 20 20v35h-230v-35c0-11 9-20 20-20z" fill="url(#SVGID_00000103968412054719128150000011785702727485708683_)"/><path d="m128.5 433.2h255c15.2 0 27.5 12.3 27.5 27.5 0 15.2-12.3 27.5-27.5 27.5h-255c-15.2 0-27.5-12.3-27.5-27.5 0-15.1 12.3-27.5 27.5-27.5z" fill="url(#SVGID_00000094620407446844852260000008012105688359878786_)"/></g><g><path d="m422.6 155.2c5 0 6.4 1.4 7.3 2.3 1.1 1.1 1.6 2 1.9 3.5.4 1.8.8 5.7-.8 12.4-3.7 15.9-15.5 34.6-32.3 51.4-24.7 24.7-47.8 33.5-60 33.5-5 0-6.4-1.4-7.3-2.3-1.1-1.1-1.6-2-1.9-3.5-.4-1.8-.8-5.7.8-12.4 3.7-15.9 15.5-34.6 32.3-51.4 24.7-24.7 47.7-33.5 60-33.5m0-55c-31.3 0-67.7 18.4-98.9 49.6-48.7 48.7-66.2 110.1-31.2 145.1 12.6 12.6 28.6 18.4 46.1 18.4 31.3 0 67.7-18.4 98.9-49.6 48.7-48.7 66.2-110.1 31.2-145.1-12.5-12.6-28.5-18.4-46.1-18.4z" fill="url(#SVGID_00000151524703475915494180000005333165152972319383_)"/><path d="m89.4 155.2c12.3 0 35.3 8.8 60 33.5 16.8 16.8 28.6 35.6 32.3 51.4 1.6 6.7 1.2 10.6.8 12.4-.3 1.5-.8 2.4-1.9 3.5-.9.9-2.3 2.3-7.3 2.3-12.3 0-35.3-8.8-60-33.5-16.8-16.8-28.6-35.5-32.3-51.4-1.6-6.7-1.2-10.6-.8-12.4.3-1.5.8-2.4 1.9-3.5.9-.9 2.3-2.3 7.3-2.3m0-55c-17.6 0-33.6 5.8-46.2 18.4-35 35-17.5 96.4 31.2 145.1 31.2 31.2 67.6 49.6 98.9 49.6 17.6 0 33.6-5.8 46.1-18.4 35-35 17.5-96.4-31.2-145.1-31.1-31.2-67.5-49.6-98.8-49.6z" fill="url(#SVGID_00000090976809541498817560000012075198418259211654_)"/></g><path d="m143.9 229.1v-26.7c0-23.3-3.8-46.5-11.9-68.4-5.2-14.1-8.1-29.3-8.1-45.3h264.2c0 15.9-2.9 31.2-8.1 45.3-8.1 21.8-11.9 45.1-11.9 68.4v26.7c0 61.9-50.2 112.1-112.1 112.1-61.9 0-112.1-50.2-112.1-112.1z" fill="url(#SVGID_00000002342615560430948330000013899370522028309427_)"/><path d="m123.5 23.8h265c17.9 0 32.5 14.6 32.5 32.5 0 17.9-14.6 32.5-32.5 32.5h-265c-17.9 0-32.5-14.6-32.5-32.6 0-17.9 14.6-32.4 32.5-32.4z" fill="url(#SVGID_00000103984233337916959820000005440382139228586393_)"/><g><circle cx="256" cy="195" fill="url(#SVGID_00000099641785291644909400000007142070219164777103_)" r="70"/><path d="m228.5 241.2v-13l16.4-2v-58.4l-16.6-.2v-12.3l38.8-6.5v77.4l16.4 2v13z" fill="url(#SVGID_00000152261608242851487980000011594760201059275690_)"/></g></g></g></svg>