 <svg
              width="142"
              height="30"
              viewBox="0 0 142 30"
              fill="none"
              xmlns="http://www.w3.org/2000/svg"
            >
              <path
                d="M12.8 29.4C10.8533 29.4 9.13333 29.1467 7.64 28.64C6.17333 28.1333 4.93333 27.3867 3.92 26.4C2.90667 25.3867 2.14667 24.1333 1.64 22.64C1.13333 21.1467 0.88 19.4133 0.88 17.44V3.08C0.88 2.2 1.09333 1.54666 1.52 1.12C1.97333 0.693331 2.61333 0.479998 3.44 0.479998C4.26667 0.479998 4.89333 0.693331 5.32 1.12C5.77333 1.54666 6 2.2 6 3.08V17.4C6 19.9333 6.57333 21.84 7.72 23.12C8.89333 24.3733 10.5867 25 12.8 25C15.0133 25 16.6933 24.3733 17.84 23.12C18.9867 21.84 19.56 19.9333 19.56 17.4V3.08C19.56 2.2 19.7733 1.54666 20.2 1.12C20.6533 0.693331 21.2933 0.479998 22.12 0.479998C22.92 0.479998 23.5333 0.693331 23.96 1.12C24.4133 1.54666 24.64 2.2 24.64 3.08V17.44C24.64 20.0533 24.1867 22.2533 23.28 24.04C22.4 25.8267 21.08 27.1733 19.32 28.08C17.56 28.96 15.3867 29.4 12.8 29.4ZM42.9331 29.32C42.1598 29.32 41.5598 29.1067 41.1331 28.68C40.7331 28.2533 40.5331 27.64 40.5331 26.84V3.04C40.5331 2.21333 40.7331 1.58667 41.1331 1.16C41.5598 0.706665 42.1065 0.479998 42.7731 0.479998C43.3865 0.479998 43.8398 0.599998 44.1331 0.839998C44.4531 1.05333 44.8265 1.42666 45.2531 1.96L60.5731 21.84H59.5331V2.92C59.5331 2.14667 59.7331 1.54666 60.1331 1.12C60.5598 0.693331 61.1598 0.479998 61.9331 0.479998C62.7065 0.479998 63.2931 0.693331 63.6931 1.12C64.0931 1.54666 64.2931 2.14667 64.2931 2.92V26.92C64.2931 27.6667 64.1065 28.2533 63.7331 28.68C63.3598 29.1067 62.8531 29.32 62.2131 29.32C61.5998 29.32 61.1065 29.2 60.7331 28.96C60.3865 28.72 59.9998 28.3333 59.5731 27.8L44.2931 7.92H45.2931V26.84C45.2931 27.64 45.0931 28.2533 44.6931 28.68C44.2931 29.1067 43.7065 29.32 42.9331 29.32ZM83.095 29.4C80.375 29.4 77.9883 28.8 75.935 27.6C73.9083 26.4 72.335 24.72 71.215 22.56C70.095 20.3733 69.535 17.8133 69.535 14.88C69.535 12.6667 69.855 10.68 70.495 8.92C71.135 7.13333 72.0417 5.61333 73.215 4.36C74.415 3.08 75.8417 2.10667 77.495 1.44C79.175 0.746666 81.0417 0.399999 83.095 0.399999C85.8417 0.399999 88.2283 0.999999 90.255 2.2C92.2817 3.37333 93.855 5.04 94.975 7.2C96.095 9.36 96.655 11.9067 96.655 14.84C96.655 17.0533 96.335 19.0533 95.695 20.84C95.055 22.6267 94.135 24.16 92.935 25.44C91.7617 26.72 90.335 27.7067 88.655 28.4C87.0017 29.0667 85.1483 29.4 83.095 29.4ZM83.095 25C84.8283 25 86.295 24.6 87.495 23.8C88.7217 23 89.655 21.84 90.295 20.32C90.9617 18.8 91.295 16.9867 91.295 14.88C91.295 11.68 90.575 9.2 89.135 7.44C87.7217 5.68 85.7083 4.8 83.095 4.8C81.3883 4.8 79.9217 5.2 78.695 6C77.4683 6.77333 76.5217 7.92 75.855 9.44C75.215 10.9333 74.895 12.7467 74.895 14.88C74.895 18.0533 75.615 20.5333 77.055 22.32C78.495 24.1067 80.5083 25 83.095 25ZM111.078 29.32C110.358 29.32 109.771 29.1467 109.318 28.8C108.891 28.4533 108.545 27.9067 108.278 27.16L99.9181 3.52C99.6248 2.66667 99.6781 1.94667 100.078 1.36C100.505 0.773331 101.211 0.479998 102.198 0.479998C102.918 0.479998 103.478 0.653331 103.878 0.999998C104.278 1.32 104.598 1.84 104.838 2.56L112.038 23.92H110.438L117.958 2.6C118.225 1.88 118.558 1.34667 118.958 0.999998C119.358 0.653331 119.878 0.479998 120.518 0.479998C121.158 0.479998 121.665 0.653331 122.038 0.999998C122.411 1.34667 122.731 1.89333 122.998 2.64L130.278 23.92H128.878L136.198 2.56C136.438 1.86667 136.758 1.34667 137.158 0.999998C137.558 0.653331 138.105 0.479998 138.798 0.479998C139.651 0.479998 140.278 0.773331 140.678 1.36C141.078 1.94667 141.131 2.66667 140.838 3.52L132.398 27.2C132.131 27.92 131.785 28.4533 131.358 28.8C130.931 29.1467 130.358 29.32 129.638 29.32C128.918 29.32 128.345 29.1467 127.918 28.8C127.491 28.4533 127.145 27.9067 126.878 27.16L119.918 7.32H120.838L113.798 27.2C113.531 27.92 113.185 28.4533 112.758 28.8C112.358 29.1467 111.798 29.32 111.078 29.32Z"
                fill="#1C4B82"
              />
              <path
                d="M32.5312 20.88C32.0246 20.88 31.6246 20.72 31.3313 20.4C31.0646 20.08 30.9046 19.6267 30.8513 19.04L29.6513 3.76C29.5713 2.77333 29.7846 1.98666 30.2913 1.4C30.7979 0.786664 31.5446 0.479998 32.5312 0.479998C33.4913 0.479998 34.2113 0.786664 34.6913 1.4C35.1979 1.98666 35.4113 2.77333 35.3313 3.76L34.1313 19.04C34.1046 19.6267 33.9446 20.08 33.6513 20.4C33.3846 20.72 33.0113 20.88 32.5312 20.88ZM32.5312 29.2C31.6246 29.2 30.8913 28.92 30.3313 28.36C29.7979 27.8 29.5313 27.08 29.5313 26.2C29.5313 25.3467 29.7979 24.6533 30.3313 24.12C30.8913 23.56 31.6246 23.28 32.5312 23.28C33.4646 23.28 34.1846 23.56 34.6913 24.12C35.2246 24.6533 35.4913 25.3467 35.4913 26.2C35.4913 27.08 35.2246 27.8 34.6913 28.36C34.1846 28.92 33.4646 29.2 32.5312 29.2Z"
                fill="#CD6214"
              />
            </svg>