<svg width="17" height="17" viewBox="0 0 17 17" fill="none" xmlns="http://www.w3.org/2000/svg">
<path d="M9.71436 2.42859L5.46436 6.67859M9.71436 2.42859V4.81921M9.71436 2.42859H7.32373M9.18311 6.94421V9.22859C9.18311 9.82364 9.18311 10.1212 9.06729 10.3485C8.96545 10.5484 8.80289 10.7109 8.60298 10.8128C8.37571 10.9286 8.07816 10.9286 7.48311 10.9286H2.91436C2.3193 10.9286 2.02177 10.9286 1.79449 10.8128C1.59457 10.7109 1.43202 10.5484 1.33016 10.3485C1.21436 10.1212 1.21436 9.82364 1.21436 9.22859V4.65984C1.21436 4.06479 1.21436 3.76725 1.33016 3.53997C1.43202 3.34005 1.59457 3.17751 1.79449 3.07565C2.02177 2.95984 2.3193 2.95984 2.91436 2.95984H5.19873" stroke="#CD6214" stroke-width="1.5" stroke-linecap="round" stroke-linejoin="round"/>
</svg>
