<svg width="131" height="132" viewBox="0 0 131 132" fill="none" xmlns="http://www.w3.org/2000/svg">
<path d="M96.6763 39.6375C96.6845 40.8747 96.6845 42.12 96.6927 43.3571C95.9799 43.9715 95.8242 44.7744 95.8242 45.6839C95.8488 50.7798 95.8078 55.8758 95.857 60.9718C95.8652 61.8894 95.603 62.2007 94.669 62.3728C90.5726 63.1265 87.1807 65.1501 84.5426 68.3781C84.0265 69.009 83.5022 69.263 82.6829 69.263C56.99 69.2384 31.2889 69.2384 5.59607 69.2712C4.48184 69.2712 4.25244 68.9189 4.25244 67.8784C4.28521 52.2873 4.26883 36.6963 4.27702 21.1052C4.27702 18.7375 4.87509 18.164 7.29199 18.164C12.519 18.164 17.7461 18.1968 22.965 18.1394C24.1284 18.123 24.6281 18.3442 24.8657 19.6387C26.2094 26.8812 34.1974 30.7237 40.6862 27.2499C44.8727 25.0132 46.6178 21.3019 46.6178 16.6647C47.8467 16.6647 49.0675 16.6647 50.2964 16.6565C50.321 18.6228 50.3783 20.5891 50.3538 22.5554C50.3374 23.7761 50.6733 24.7429 51.8203 25.3082C51.8203 27.3564 51.8203 29.3964 51.8203 31.4447C51.4598 32.182 50.7962 32.1083 50.1408 32.1083C43.4472 32.1083 36.7536 32.0755 30.06 32.1164C22.8503 32.1574 18.2541 36.1146 17.0497 43.226C16.3369 47.4371 15.6405 51.6401 14.8868 55.843C14.2477 59.4561 16.3779 62.0614 20.0565 62.0614C27.3563 62.0696 34.648 62.0696 41.9479 62.0614C45.2086 62.0614 47.1831 60.0787 47.1995 56.8262C47.2159 53.5408 47.2241 50.2637 47.1831 46.9783C47.1749 46.2082 47.3552 45.8969 48.1826 45.9379C49.387 46.0034 50.5995 45.9378 51.8121 45.9542C55.1302 46.0034 57.9486 44.8646 60.3327 42.5378C62.0286 40.8828 63.659 39.1541 65.5188 37.6712C67.0181 37.6794 68.5174 37.6876 70.0167 37.6958C70.4345 39.0968 71.3521 39.7194 72.8268 39.5965C73.6871 39.531 74.5555 39.5802 75.4158 39.5884C82.5108 39.5966 89.5976 39.6211 96.6763 39.6375Z" fill="white"/>
<path d="M46.6258 16.6567C46.6258 21.2938 44.8807 24.997 40.6942 27.2419C34.2054 30.7157 26.2091 26.8732 24.8737 19.6307C24.6361 18.3362 24.1445 18.1232 22.973 18.1314C17.7459 18.1887 12.5189 18.156 7.29999 18.156C4.8749 18.156 4.28501 18.7377 4.28501 21.0972C4.28501 36.6883 4.2932 52.2793 4.26043 67.8703C4.26043 68.9108 4.48983 69.2631 5.60406 69.2631C31.2969 69.2304 56.998 69.2386 82.6908 69.2549C83.5101 69.2549 84.0345 69.001 84.5506 68.3701C87.1887 65.1421 90.5806 63.1185 94.677 62.3647C95.611 62.1927 95.8732 61.8896 95.865 60.9638C95.824 55.8678 95.8568 50.7718 95.8322 45.6758C95.8322 44.7664 95.9879 43.9635 96.7007 43.3491C98.8308 42.6363 99.9778 43.4228 99.986 45.6676C100.002 50.7636 100.011 55.8596 99.9696 60.9638C99.9614 61.8486 100.133 62.2009 101.108 62.3647C109.203 63.7657 115.159 71.0164 115.151 79.3404C115.143 87.6725 109.154 94.915 101.067 96.2914C94.6524 97.3811 89.2288 95.4558 84.8538 90.6384C84.4687 90.2123 84.1 90.0403 83.5347 90.0485C75.2435 90.0649 66.9441 90.073 58.6529 90.0403C57.7927 90.0403 57.5715 90.2779 57.5879 91.1217C57.637 94.4071 57.6452 97.6924 57.5797 100.97C57.5633 101.887 57.8992 102.026 58.6939 102.002C60.2506 101.953 61.8072 101.969 63.3556 101.994C64.7894 102.018 65.6415 102.821 65.6415 104.075C65.6333 105.32 64.773 106.131 63.3393 106.131C54.4828 106.139 45.6263 106.139 36.7698 106.131C35.3196 106.131 34.4594 105.345 34.443 104.099C34.4266 102.805 35.3033 102.01 36.8271 101.994C38.3838 101.977 39.9404 101.945 41.4889 102.01C42.2836 102.043 42.5048 101.822 42.4966 101.011C42.4474 97.7252 42.4392 94.4398 42.4966 91.1627C42.513 90.2205 42.2098 90.0485 41.3332 90.0485C29.9287 90.0812 18.5242 89.9829 7.11975 90.114C3.34283 90.1632 -0.0244449 87.5906 0.000133722 82.9207C0.0902554 62.3156 0.0820665 41.7105 0.106645 21.1054C0.114838 16.46 2.5645 14.0022 7.21806 13.994C12.8302 13.9858 18.4505 13.9858 24.0626 14.0022C24.759 14.0022 25.1932 13.9121 25.5455 13.1419C27.6593 8.51296 32.3128 5.94038 37.0975 6.64496C42.0378 7.37413 45.6181 11.02 46.4619 16.1733C46.4947 16.3371 46.5766 16.4928 46.6258 16.6567ZM43.0373 73.3923C30.6005 73.3923 18.1555 73.4087 5.71876 73.3596C4.53898 73.3514 4.30139 73.6791 4.33416 74.7851C4.41609 77.5461 4.35875 80.3153 4.35875 83.0763C4.36694 85.2065 5.00598 85.8701 7.11975 85.8701C31.6574 85.8783 56.1869 85.8701 80.7245 85.8947C81.8224 85.8947 81.7487 85.567 81.4701 84.7313C80.3723 81.405 80.2494 78.0213 81.2653 74.6704C81.6422 73.4333 81.2653 73.376 80.2248 73.376C67.829 73.4005 55.4331 73.3923 43.0373 73.3923ZM110.997 79.324C110.997 72.0815 105.172 66.2318 97.946 66.2154C90.6461 66.199 84.7718 72.0405 84.7636 79.3322C84.7554 86.5993 90.6625 92.4654 97.9542 92.4408C105.197 92.408 110.997 86.5747 110.997 79.324ZM28.7735 17.5907C28.7817 21.3348 31.9032 24.4153 35.6555 24.3744C39.4079 24.3334 42.4966 21.1955 42.4474 17.4759C42.3983 13.699 39.3341 10.7004 35.5408 10.725C31.7557 10.7414 28.7571 13.7892 28.7735 17.5907ZM53.4505 96.1604C53.4505 94.3907 53.4259 92.621 53.4669 90.8514C53.4832 90.2287 53.2866 90.0403 52.6639 90.0567C50.8943 90.0976 49.1246 90.0894 47.355 90.0567C46.7978 90.0485 46.6176 90.2123 46.6176 90.7858C46.6422 94.2842 46.6422 97.7743 46.6176 101.273C46.6176 101.838 46.7897 102.01 47.3468 102.002C49.1164 101.969 50.8861 101.969 52.6557 102.002C53.2702 102.018 53.475 101.838 53.4587 101.207C53.4259 99.5276 53.4505 97.8399 53.4505 96.1604Z" fill="#040404"/>
<path d="M97.7982 131.349C88.9499 131.349 80.0934 131.373 71.2451 131.34C66.9766 131.324 64.1582 128.047 64.7973 123.967C64.9365 123.098 65.3052 122.32 65.7231 121.566C71.9497 110.277 81.3961 103.624 94.2507 102.223C109.244 100.584 123.655 108.622 130.234 122.017C132.151 125.917 130.332 130.103 126.285 131.144C125.564 131.332 124.826 131.308 124.097 131.308C115.331 131.316 106.565 131.308 97.7982 131.308C97.7982 131.324 97.7982 131.34 97.7982 131.349ZM97.8637 127.187C97.8637 127.178 97.8637 127.17 97.8637 127.162C106.671 127.162 115.487 127.17 124.294 127.162C126.473 127.162 127.481 125.696 126.498 123.868C120.738 113.07 111.759 106.827 99.5433 106.27C86.1233 105.664 76.0707 111.718 69.4672 123.426C68.1727 125.728 69.0658 127.195 71.6875 127.195C80.4129 127.187 89.1383 127.187 97.8637 127.187Z" fill="#020304"/>
<path d="M96.675 39.6376C89.5964 39.6212 82.5095 39.5966 75.4309 39.5802C74.5706 39.5802 73.7022 39.5229 72.8419 39.5884C71.3672 39.7031 70.4496 39.0886 70.0318 37.6877C70.5315 35.8115 71.0395 35.4182 73.0468 35.4182C82.7225 35.4182 92.3983 35.4182 102.066 35.4182C104.188 35.4182 104.909 34.7628 104.909 32.6572C104.925 24.1039 104.925 15.5587 104.909 7.00533C104.909 4.88338 104.204 4.21156 102.107 4.21156C87.204 4.21156 72.3094 4.21156 57.4066 4.21156C55.1863 4.21156 54.5882 4.81785 54.5882 7.07089C54.58 12.2078 54.5964 17.3529 54.58 22.4899C54.5718 24.6774 53.9655 25.2836 51.8354 25.3082C50.6802 24.7429 50.3525 23.7762 50.3689 22.5554C50.3935 20.5891 50.3361 18.6228 50.3115 16.6565C50.3361 13.5105 50.4836 10.3562 50.3607 7.21015C50.1886 2.85154 53.22 -0.0405348 57.5622 0.000429599C72.3258 0.131516 87.0894 0.131516 101.853 0.000429599C106.285 -0.0405348 109.153 2.91709 109.087 7.19378C108.964 15.6079 108.964 24.0301 109.087 32.4442C109.153 36.7127 106.285 39.8997 101.845 39.6048C100.132 39.4901 98.4037 39.6212 96.675 39.6376Z" fill="#030405"/>
<path d="M51.8364 25.3081C53.9584 25.2835 54.5729 24.6772 54.581 22.4897C54.5974 17.3528 54.5811 12.2077 54.5892 7.07076C54.5892 4.81772 55.1873 4.21143 57.4076 4.21143C72.3104 4.21143 87.2051 4.21143 102.108 4.21143C104.205 4.21143 104.91 4.88324 104.91 7.0052C104.926 15.5586 104.926 24.1037 104.91 32.6571C104.902 34.7545 104.189 35.4181 102.067 35.4181C92.3912 35.4181 82.7154 35.4181 73.0478 35.4181C71.0405 35.4181 70.5326 35.8114 70.0328 37.6875C68.5335 37.6793 67.0342 37.6712 65.5349 37.663C67.6978 35.2297 68.427 32.5178 67.0424 29.4455C66.8212 28.9621 67.0588 28.6016 67.1981 28.2247C68.3451 25.0705 69.5003 21.9163 70.6637 18.7702C70.9422 18.0246 71.1634 17.2873 70.6964 16.5417C70.254 15.8289 69.615 15.4029 68.7711 15.4766C67.8207 15.5586 67.2145 16.1157 66.8868 17.0087C65.879 19.7533 64.8467 22.4979 63.8636 25.2508C63.6588 25.8324 63.4949 26.07 62.7821 25.857C60.0375 25.0623 57.7107 25.8734 55.6953 27.8233C54.4336 29.0522 53.1309 30.2402 51.8446 31.4446C51.8364 29.3963 51.8364 27.3481 51.8364 25.3081ZM84.1328 13.8299C86.9429 13.8299 89.7449 13.8381 92.555 13.8299C94.2182 13.8217 95.1358 13.1007 95.1604 11.7898C95.1849 10.4462 94.2919 9.68429 92.637 9.68429C87.0248 9.67609 81.4045 9.67609 75.7924 9.68429C74.1948 9.68429 73.2117 10.5036 73.228 11.7735C73.2444 13.0352 74.2276 13.8217 75.8416 13.8299C78.6026 13.8381 81.3636 13.8381 84.1328 13.8299ZM85.8041 21.8835C88.1391 21.8835 90.4658 21.8998 92.8008 21.8753C94.2591 21.8671 95.1276 21.0888 95.1522 19.8516C95.1768 18.5572 94.2919 17.7461 92.7681 17.7379C88.1882 17.7215 83.6084 17.7215 79.0368 17.7379C77.5703 17.7461 76.7182 18.508 76.6936 19.7533C76.6772 21.0642 77.5457 21.8589 79.0777 21.8671C81.3144 21.8999 83.5593 21.8917 85.8041 21.8835ZM87.9179 29.9371C89.5974 29.9371 91.2851 29.9617 92.9647 29.9289C94.3083 29.9043 95.144 29.085 95.1522 27.8807C95.1604 26.6845 94.3247 25.816 92.9975 25.7997C89.6302 25.7669 86.2629 25.7669 82.9038 25.7997C81.5028 25.8079 80.6016 26.7091 80.6344 27.9216C80.6672 29.0932 81.5274 29.9043 82.871 29.9289C84.5506 29.9617 86.2383 29.9371 87.9179 29.9371Z" fill="#CD6214"/>
<path d="M51.837 31.4444C53.1232 30.2401 54.4259 29.0521 55.6876 27.8232C57.7031 25.8733 60.0298 25.054 62.7744 25.8569C63.4872 26.0617 63.6511 25.8323 63.8559 25.2506C64.8391 22.4978 65.8714 19.7532 66.8791 17.0086C67.2068 16.1155 67.8213 15.5502 68.7634 15.4765C69.6073 15.4028 70.2464 15.8288 70.6888 16.5416C71.1558 17.2871 70.9264 18.0245 70.656 18.7701C69.4926 21.9161 68.3292 25.0704 67.1904 28.2246C67.0511 28.6097 66.8135 28.962 67.0348 29.4454C68.4112 32.5177 67.6902 35.2295 65.5273 37.6628C63.6675 39.1457 62.0371 40.8744 60.3412 42.5294C57.9652 44.8562 55.1469 46.0032 51.8206 45.9458C50.608 45.9294 49.4037 45.995 48.1911 45.9294C47.3637 45.8885 47.1834 46.1998 47.1916 46.9699C47.2326 50.2471 47.2162 53.5324 47.208 56.8178C47.1916 60.0786 45.2171 62.053 41.9563 62.053C34.6565 62.0612 27.3648 62.0612 20.065 62.053C16.3864 62.0448 14.2562 59.4395 14.8953 55.8346C15.6408 51.6317 16.3454 47.4206 17.0582 43.2176C18.2626 36.1062 22.8587 32.149 30.0685 32.1081C36.7621 32.0753 43.4556 32.0999 50.1492 32.0999C50.8046 32.0999 51.4765 32.1818 51.837 31.4444ZM56.892 32.7635C55.8187 33.2632 55.0158 34.1153 54.2621 34.9674C53.3199 36.0324 52.2138 36.3765 50.821 36.3683C43.5703 36.3274 36.3115 36.3356 29.0608 36.3602C25.3658 36.3766 22.2361 38.7689 21.4905 42.3901C20.5238 47.1502 19.7864 51.9594 18.9589 56.744C18.836 57.4814 19.1228 57.9156 19.9339 57.9074C20.7532 57.8992 21.5889 57.8091 22.3918 57.932C23.6043 58.1122 23.9402 57.4978 24.1041 56.4737C24.612 53.2457 25.1528 50.0177 25.6935 46.7979C25.8983 45.569 26.7422 44.8808 27.9383 44.9381C29.3475 45.0037 30.0685 46.2408 29.7572 48.0268C29.2492 50.9517 28.7904 53.8847 28.2251 56.7932C28.0366 57.76 28.2988 57.932 29.2082 57.9238C33.3129 57.8746 37.4093 57.8665 41.5139 57.9238C42.7019 57.9402 43.0951 57.5633 43.0788 56.3672C43.0214 52.3527 43.0378 48.3382 43.0624 44.3236C43.0706 42.5212 43.7998 41.8248 45.5858 41.8166C47.4866 41.8084 49.3955 41.7101 51.2798 41.833C55.7613 42.1361 58.1045 38.9983 60.6689 36.1717C61.7667 35.672 62.5205 34.7707 63.1841 33.8367C63.8805 32.8618 63.6675 31.5264 62.84 30.6252C61.9798 29.683 60.7426 29.347 59.6775 29.9943C58.5551 30.6907 57.5392 31.5591 56.892 32.7635Z" fill="#010203"/>
<path d="M43.0381 73.392C55.434 73.392 67.8298 73.4002 80.2338 73.3757C81.2743 73.3757 81.6512 73.4248 81.2743 74.6701C80.2502 78.021 80.3731 81.4129 81.4791 84.731C81.7577 85.5748 81.8314 85.9026 80.7336 85.8944C56.1959 85.8698 31.6664 85.878 7.12875 85.8698C5.01499 85.8698 4.36775 85.2062 4.36775 83.076C4.35956 80.315 4.42511 77.5458 4.34318 74.7848C4.3104 73.6788 4.548 73.3511 5.72777 73.3593C18.1564 73.4084 30.6013 73.392 43.0381 73.392ZM50.0512 77.5786C49.1009 77.5786 48.1505 77.554 47.2001 77.5868C46.0039 77.6277 45.201 78.3815 45.1109 79.4548C45.0208 80.5772 45.7909 81.6177 46.9871 81.675C49.0107 81.7734 51.0426 81.7734 53.0662 81.675C54.2788 81.6177 55.0325 80.6018 54.9588 79.4712C54.885 78.3897 54.0821 77.6277 52.886 77.5868C51.952 77.5458 51.0016 77.5786 50.0512 77.5786Z" fill="#E4E7FB"/>
<path d="M110.997 79.3239C110.997 86.5746 105.197 92.408 97.9542 92.4407C90.6625 92.4735 84.7637 86.5992 84.7637 79.3321C84.7719 72.0487 90.6462 66.2071 97.946 66.2153C105.172 66.2317 110.997 72.0814 110.997 79.3239Z" fill="#F8C5A4"/>
<path d="M28.7749 17.5906C28.7667 13.781 31.7571 10.7414 35.534 10.725C39.3273 10.7004 42.3915 13.699 42.4406 17.4759C42.4898 21.1955 39.4011 24.3334 35.6488 24.3743C31.9046 24.4153 28.7831 21.343 28.7749 17.5906Z" fill="#F7C4A3"/>
<path d="M53.4519 96.1602C53.4519 97.8398 53.4273 99.5275 53.4683 101.207C53.4847 101.838 53.2798 102.01 52.6654 102.002C50.8957 101.969 49.126 101.969 47.3564 102.002C46.7911 102.01 46.619 101.838 46.6272 101.273C46.6518 97.7742 46.6518 94.284 46.6272 90.7857C46.6272 90.2122 46.8075 90.0483 47.3646 90.0565C49.1342 90.0893 50.9039 90.0893 52.6736 90.0565C53.288 90.0401 53.4928 90.2286 53.4765 90.8512C53.4273 92.6209 53.4519 94.3906 53.4519 96.1602Z" fill="#CFD4FC"/>
<path d="M97.8635 127.187C89.1381 127.187 80.4127 127.187 71.6955 127.187C69.0737 127.187 68.1807 125.72 69.4752 123.418C76.0786 111.71 86.1313 105.648 99.5512 106.262C111.767 106.819 120.746 113.07 126.506 123.86C127.481 125.687 126.481 127.154 124.302 127.154C115.495 127.162 106.679 127.154 97.8717 127.154C97.8635 127.17 97.8635 127.178 97.8635 127.187Z" fill="#3E4678"/>
<path d="M84.1334 13.838C81.3724 13.838 78.6032 13.8462 75.8422 13.838C74.2283 13.8298 73.2451 13.0433 73.2287 11.7816C73.2123 10.5117 74.1955 9.69242 75.7931 9.69242C81.4052 9.68423 87.0255 9.68423 92.6376 9.69242C94.2926 9.69242 95.1856 10.4544 95.161 11.798C95.1365 13.1007 94.2271 13.8298 92.5557 13.838C89.7456 13.838 86.9354 13.8298 84.1334 13.838Z" fill="#010102"/>
<path d="M85.8035 21.8836C83.5586 21.8836 81.3138 21.8999 79.0689 21.8754C77.5369 21.8672 76.6684 21.0643 76.6848 19.7616C76.7012 18.5163 77.5532 17.7462 79.0279 17.7462C83.6078 17.7298 88.1876 17.7298 92.7592 17.7462C94.2831 17.7544 95.1761 18.5655 95.1434 19.8599C95.1188 21.0971 94.2503 21.8754 92.792 21.8836C90.4734 21.9 88.1384 21.8836 85.8035 21.8836Z" fill="#000101"/>
<path d="M87.9191 29.9371C86.2395 29.9371 84.5518 29.9617 82.8723 29.9289C81.5286 29.9043 80.6684 29.0932 80.6356 27.9216C80.6029 26.7091 81.5041 25.8161 82.905 25.7997C86.2723 25.7751 89.6396 25.7669 92.9987 25.7997C94.3259 25.8161 95.1616 26.6845 95.1534 27.8807C95.1452 29.0768 94.3095 29.8961 92.9659 29.9289C91.2864 29.9699 89.6068 29.9371 87.9191 29.9371Z" fill="#010203"/>
<path d="M60.6674 36.1802C58.1112 39.0068 55.7681 42.1446 51.2784 41.8415C49.3858 41.7186 47.4769 41.8087 45.5844 41.8251C43.7901 41.8333 43.0691 42.5379 43.0609 44.3321C43.0364 48.3466 43.02 52.3611 43.0773 56.3757C43.0937 57.5718 42.7005 57.9487 41.5125 57.9323C37.4079 57.8749 33.3114 57.8831 29.2068 57.9323C28.2892 57.9405 28.0352 57.7684 28.2236 56.8017C28.7889 53.8932 29.2478 50.9602 29.7557 48.0353C30.067 46.2493 29.3379 45.0121 27.9369 44.9466C26.7407 44.8892 25.8969 45.5774 25.692 46.8064C25.1513 50.0262 24.6106 53.2542 24.1026 56.4822C23.9388 57.4981 23.6029 58.1207 22.3903 57.9405C21.5874 57.8176 20.7517 57.9077 19.9324 57.9159C19.1295 57.9241 18.8346 57.4899 18.9575 56.7525C19.785 51.9679 20.5223 47.1587 21.4891 42.3986C22.2264 38.7692 25.3561 36.385 29.0593 36.3686C36.31 36.3359 43.5689 36.3359 50.8196 36.3768C52.2124 36.385 53.3184 36.0327 54.2606 34.9759C55.0225 34.1238 55.8173 33.2717 56.8905 32.772C57.9638 34.1074 59.2828 35.1807 60.6674 36.1802Z" fill="#3E4678"/>
<path d="M60.6685 36.1801C59.2839 35.1806 57.9649 34.1073 56.8916 32.7637C57.5388 31.5593 58.5548 30.6909 59.6854 30.0027C60.7504 29.3555 61.9876 29.6914 62.8478 30.6335C63.6753 31.5348 63.8883 32.8702 63.1919 33.8452C62.5201 34.7791 61.7664 35.6804 60.6685 36.1801Z" fill="#F7C4A3"/>
<path d="M50.0522 77.5788C51.0025 77.5788 51.9529 77.546 52.9033 77.587C54.0913 77.6362 54.9024 78.3981 54.9761 79.4714C55.0498 80.602 54.2961 81.6179 53.0835 81.6753C51.0599 81.7654 49.0281 81.7654 47.0044 81.6753C45.8083 81.6179 45.0381 80.5774 45.1282 79.455C45.2102 78.3735 46.0213 77.628 47.2174 77.587C48.1514 77.546 49.1018 77.5788 50.0522 77.5788Z" fill="#050505"/>
</svg>
