<svg width="140" height="131" viewBox="0 0 140 131" fill="none" xmlns="http://www.w3.org/2000/svg">
<path d="M52.2993 107.753C52.7203 105.186 53.1976 102.284 53.7012 99.2286C52.9871 99.2286 52.4308 99.2286 51.8746 99.2286C39.3812 99.2286 26.884 99.2323 14.3905 99.2286C5.73837 99.2248 0.00281891 93.493 0.00281891 84.8446C-0.000939637 61.3574 -0.000939637 37.874 0.00281891 14.3868C0.00281891 5.73461 5.73461 0.00281891 14.3905 0.00281891C51.4048 -0.000939638 88.419 -0.000939638 125.433 0.00281891C134.097 0.00281891 139.821 5.72333 139.821 14.383C139.825 37.9153 139.836 61.4476 139.81 84.9837C139.806 89.6067 139.911 94.256 139.513 98.8527C138.178 114.24 125.347 127.775 110.042 130.24C99.1233 131.999 89.3924 129.38 80.7628 122.498C80.2366 122.077 79.4323 121.814 78.752 121.81C69.8292 121.765 60.9026 121.791 51.9798 121.772C48.9128 121.765 46.3382 119.889 45.4399 117.112C44.5454 114.338 45.4474 111.23 47.8867 109.621C49.0932 108.824 50.5854 108.46 52.2993 107.753ZM135.311 94.7296C135.318 77.3463 121.171 63.169 103.788 63.1465C86.3969 63.1239 72.2121 77.2486 72.167 94.6281C72.1256 112.072 86.3179 126.294 103.758 126.286C121.137 126.279 135.299 112.113 135.311 94.7296ZM63.0487 76.6134C63.0487 55.5354 63.0487 34.574 63.0487 13.6464C46.4923 13.6464 30.0412 13.6464 13.6088 13.6464C13.6088 34.6905 13.6088 55.6219 13.6088 76.6134C30.105 76.6134 46.5262 76.6134 63.0487 76.6134ZM9.02334 76.6209C9.02334 75.9255 9.02334 75.3693 9.02334 74.8093C9.02334 54.0019 9.02334 33.1946 9.02334 12.3835C9.02334 9.61719 9.62471 9.02335 12.4248 9.02335C50.7545 9.02335 89.0805 9.02335 127.41 9.02335C130.195 9.02335 130.8 9.62471 130.8 12.3985C130.8 30.5298 130.842 48.661 130.755 66.7923C130.744 69.4759 130.996 71.8325 133.04 73.802C133.894 74.6251 134.431 75.779 135.311 77.0757C135.311 76.245 135.311 75.8241 135.311 75.4031C135.311 55.0167 135.314 34.6303 135.311 14.2477C135.311 8.24157 131.56 4.51684 125.531 4.51684C88.4716 4.51684 51.4085 4.51684 14.3492 4.51684C8.24156 4.51684 4.51308 8.23405 4.51308 14.3304C4.50932 34.574 4.51308 54.8213 4.51308 75.0648C4.51308 75.5647 4.51308 76.0684 4.51308 76.6209C6.0616 76.6209 7.45227 76.6209 9.02334 76.6209ZM67.1869 94.7183C68.1153 90.0314 68.9835 85.6414 69.848 81.2589C48.2814 81.2589 26.4593 81.2589 4.51308 81.2589C4.51308 82.4917 4.51308 83.6531 4.51308 84.8183C4.51684 91.0124 8.21901 94.7145 14.4131 94.7183C31.6085 94.7221 48.8038 94.7183 65.9992 94.7183C66.5029 94.7183 67.0103 94.7183 67.1869 94.7183ZM94.6168 42.7789C94.6168 32.9879 94.6168 23.2946 94.6168 13.6464C85.5775 13.6464 76.6359 13.6464 67.7357 13.6464C67.7357 23.4186 67.7357 33.0781 67.7357 42.7488C69.2428 42.7488 70.6636 42.7488 72.1219 42.7488C72.4526 37.8251 70.8703 32.488 75.7527 28.9512C73.7606 25.0235 74.1929 21.8062 76.9291 19.5586C79.2932 17.6192 82.7248 17.5289 85.1641 19.3481C88.1145 21.5431 88.6069 24.6213 86.6525 28.9812C91.516 32.5443 89.8848 37.9003 90.2607 42.7751C91.734 42.7789 93.1247 42.7789 94.6168 42.7789ZM126.204 42.8165C126.204 33.0179 126.204 23.3246 126.204 13.6351C117.179 13.6351 108.238 13.6351 99.2962 13.6351C99.2962 23.396 99.2962 33.0518 99.2962 42.7676C100.788 42.7676 102.209 42.7676 103.739 42.7676C103.739 41.05 103.81 39.4112 103.724 37.78C103.536 34.2432 104.434 31.1762 107.309 28.9399C105.332 24.9183 105.78 21.7272 108.584 19.5022C111.027 17.5628 114.503 17.5628 116.931 19.5022C119.743 21.746 120.19 24.922 118.209 28.9399C121.081 31.18 121.979 34.247 121.795 37.7838C121.708 39.4488 121.78 41.1214 121.78 42.8202C123.343 42.8165 124.7 42.8165 126.204 42.8165ZM75.7263 62.7781C73.8771 58.858 74.1177 56.118 76.4743 53.8102C78.5753 51.7543 81.7175 51.1642 84.262 52.6564C88.4077 55.0919 88.8287 58.6475 86.784 62.6616C89.2346 61.7671 91.6175 60.9365 93.9591 59.9968C94.3199 59.854 94.677 59.2075 94.6882 58.7828C94.7596 56.4375 94.7221 54.0884 94.7221 51.743C94.7221 50.3073 94.7221 48.8715 94.7221 47.462C85.5963 47.462 76.6585 47.462 67.7732 47.462C67.7732 57.2531 67.7732 66.9426 67.7732 76.5946C69.2804 76.5946 70.6711 76.5946 72.1708 76.5946C72.1708 74.8356 72.2422 73.1517 72.1557 71.4754C71.9715 67.9875 72.9074 64.9806 75.7263 62.7781ZM105.851 58.764C106.742 53.8816 109.959 51.2243 113.883 51.961C115.717 52.3068 117.217 53.2201 118.284 54.7574C119.867 57.0313 119.852 59.4631 118.784 61.7746C121.351 63.3457 123.768 64.8228 126.204 66.3112C126.204 59.9968 126.204 53.7275 126.204 47.462C117.176 47.462 108.238 47.462 99.3451 47.462C99.3451 51.3371 99.3451 55.1069 99.3451 58.7602C101.57 58.764 103.675 58.764 105.851 58.764ZM75.4858 117.266C74.501 115.777 73.6817 114.473 72.7796 113.233C72.5842 112.962 72.0881 112.782 71.731 112.778C65.1535 112.752 58.5798 112.748 52.0024 112.771C50.5666 112.778 49.6194 113.74 49.627 115.018C49.6307 116.296 50.5779 117.247 52.0212 117.251C59.7713 117.277 67.5177 117.266 75.4858 117.266ZM56.8133 108.17C61.3574 108.17 65.7361 108.17 70.0848 108.17C69.3105 105.178 68.555 102.25 67.7845 99.2737C64.6988 99.2737 61.5604 99.2737 58.2904 99.2737C57.798 102.232 57.3132 105.167 56.8133 108.17ZM85.6865 42.7939C85.6865 40.3659 85.7579 38.0694 85.6677 35.7805C85.5813 33.5328 83.6982 31.725 81.4844 31.5859C79.203 31.4393 76.9704 33.0518 76.7787 35.337C76.5758 37.7913 76.7336 40.2719 76.7336 42.7977C79.7292 42.7939 82.6233 42.7939 85.6865 42.7939ZM117.262 42.7902C117.262 40.3809 117.318 38.1296 117.247 35.8819C117.172 33.5592 115.289 31.7062 113.019 31.5822C110.79 31.4581 108.584 32.9991 108.377 35.2317C108.148 37.7236 108.324 40.2531 108.324 42.7902C111.331 42.7902 114.221 42.7902 117.262 42.7902ZM83.4314 24.7529C83.4013 23.5313 82.3489 22.5353 81.1311 22.5654C79.9096 22.5992 78.9136 23.6441 78.9437 24.8656C78.9775 26.0872 80.0224 27.0869 81.2439 27.0531C82.4617 27.0193 83.4614 25.9669 83.4314 24.7529ZM115.003 24.8656C115.037 23.6479 114.037 22.5955 112.819 22.5654C111.602 22.5316 110.553 23.5276 110.519 24.7491C110.485 25.9669 111.481 27.0193 112.703 27.0531C113.917 27.0869 114.969 26.0872 115.003 24.8656ZM83.4314 58.6512C83.4426 57.4335 82.4241 56.3999 81.2026 56.3924C79.981 56.3811 78.9549 57.3959 78.9437 58.6212C78.9324 59.8427 79.9472 60.8725 81.1687 60.8801C82.3865 60.8913 83.4201 59.8728 83.4314 58.6512ZM115.003 59.1211C115.007 57.426 113.996 56.4074 112.786 56.3924C111.587 56.3773 110.279 57.4936 110.564 58.5686C111.012 60.2674 112.819 59.5195 113.955 60.0194C114.176 60.1171 114.808 59.2977 115.003 59.1211ZM82.1835 65.6872C79.1128 64.7514 76.2601 67.4087 76.8539 70.5734C78.6242 68.9534 80.3907 67.3335 82.1835 65.6872Z" fill="#2C2C2C"/>
<path d="M135.311 94.7296C135.304 112.109 121.138 126.279 103.762 126.286C86.3224 126.294 72.1301 112.072 72.1715 94.6281C72.2128 77.2486 86.3976 63.124 103.792 63.1465C121.168 63.1691 135.319 77.3463 135.311 94.7296ZM90.2088 94.5755C90.2088 99.6495 90.2012 104.72 90.2125 109.794C90.2163 112.504 91.84 113.473 94.1627 112.124C102.804 107.103 111.433 102.066 120.059 97.0186C122.386 95.658 122.386 93.7862 120.059 92.4219C111.433 87.3741 102.804 82.3377 94.1627 77.3162C91.8362 75.9632 90.2163 76.9329 90.2125 79.6428C90.2012 84.6191 90.2088 89.5992 90.2088 94.5755Z" fill="white"/>
<path d="M63.0493 76.6134C46.5268 76.6134 30.1057 76.6134 13.6094 76.6134C13.6094 55.6181 13.6094 34.6905 13.6094 13.6464C30.038 13.6464 46.4929 13.6464 63.0493 13.6464C63.0493 34.574 63.0493 55.5392 63.0493 76.6134ZM46.1622 42.1249C50.6912 35.5587 50.6724 30.0863 46.1659 25.7263C42.2157 21.9077 36.1344 21.4905 31.7068 24.7341C29.5005 26.3503 28.0422 28.4926 27.3995 31.1387C26.3772 35.3558 27.7039 38.9602 30.6243 42.1099C25.3962 44.4477 21.7354 48.1048 19.5479 53.2126C17.9881 56.8547 17.9731 60.6997 18.0369 64.5597C18.0745 66.9501 18.7473 67.6492 21.149 67.653C32.6051 67.6567 44.0574 67.653 55.5135 67.653C55.8404 67.653 56.175 67.6755 56.4982 67.6342C57.731 67.4876 58.5992 66.781 58.5879 65.5595C58.5579 62.6579 58.6932 59.6924 58.1557 56.8697C56.8289 49.9314 52.5931 45.1468 46.1622 42.1249Z" fill="white"/>
<path d="M9.02344 76.6209C7.45237 76.6209 6.06171 76.6209 4.51318 76.6209C4.51318 76.0646 4.51318 75.5647 4.51318 75.0648C4.51318 54.8213 4.51318 34.574 4.51318 14.3304C4.51318 8.23406 8.23791 4.51685 14.3493 4.51685C51.4086 4.51685 88.4717 4.51685 125.531 4.51685C131.56 4.51685 135.307 8.24533 135.311 14.2477C135.314 34.6341 135.311 55.0205 135.311 75.4031C135.311 75.8241 135.311 76.245 135.311 77.0757C134.431 75.779 133.894 74.6251 133.041 73.802C130.996 71.8287 130.744 69.4759 130.755 66.7923C130.842 48.661 130.8 30.5298 130.8 12.3985C130.8 9.62472 130.195 9.02336 127.41 9.02336C89.0806 9.02336 50.7546 9.02336 12.4249 9.02336C9.62481 9.02336 9.02344 9.6172 9.02344 12.3835C9.02344 33.1908 9.02344 53.9982 9.02344 74.8093C9.02344 75.3655 9.02344 75.9255 9.02344 76.6209Z" fill="#E4E7FB"/>
<path d="M67.187 94.7184C67.0104 94.7184 66.503 94.7184 65.9993 94.7184C48.8039 94.7184 31.6086 94.7184 14.4132 94.7184C8.21911 94.7184 4.51694 91.0125 4.51318 84.8184C4.51318 83.657 4.51318 82.4918 4.51318 81.259C26.4631 81.259 48.2815 81.259 69.8481 81.259C68.9836 85.6415 68.1154 90.0315 67.187 94.7184Z" fill="#E4E7FB"/>
<path d="M94.617 42.7789C93.1211 42.7789 91.7304 42.7789 90.2608 42.7789C89.8887 37.9041 91.5162 32.5444 86.6526 28.985C88.6071 24.6251 88.1147 21.5469 85.1642 19.3519C82.7249 17.5365 79.2934 17.6229 76.9293 19.5623C74.193 21.8062 73.757 25.0273 75.7528 28.955C70.8705 32.4918 72.4528 37.8251 72.1221 42.7526C70.6638 42.7526 69.243 42.7526 67.7358 42.7526C67.7358 33.0818 67.7358 23.4224 67.7358 13.6501C76.6361 13.6501 85.5777 13.6501 94.617 13.6501C94.617 23.2983 94.617 32.9879 94.617 42.7789Z" fill="white"/>
<path d="M126.203 42.8165C124.7 42.8165 123.343 42.8165 121.78 42.8165C121.78 41.1214 121.708 39.4451 121.795 37.78C121.979 34.247 121.084 31.1763 118.209 28.9362C120.186 24.9183 119.739 21.7423 116.931 19.4985C114.503 17.559 111.026 17.559 108.583 19.4985C105.779 21.7273 105.332 24.9145 107.309 28.9362C104.434 31.1725 103.536 34.2395 103.723 37.7763C103.81 39.4075 103.739 41.0462 103.739 42.7639C102.209 42.7639 100.784 42.7639 99.2959 42.7639C99.2959 33.048 99.2959 23.3923 99.2959 13.6313C108.237 13.6313 117.179 13.6313 126.203 13.6313C126.203 23.3246 126.203 33.018 126.203 42.8165Z" fill="white"/>
<path d="M75.727 62.7781C72.9119 64.9806 71.976 67.9875 72.1564 71.4754C72.2428 73.1517 72.1714 74.8356 72.1714 76.5946C70.6718 76.5946 69.2811 76.5946 67.7739 76.5946C67.7739 66.9426 67.7739 57.2568 67.7739 47.462C76.6591 47.462 85.597 47.462 94.7227 47.462C94.7227 48.8715 94.7227 50.3073 94.7227 51.743C94.7227 54.0884 94.7603 56.4375 94.6889 58.7828C94.6776 59.2075 94.3168 59.854 93.9598 59.9968C91.6182 60.9364 89.2353 61.7671 86.7847 62.6616C88.8293 58.6475 88.4084 55.0919 84.2627 52.6564C81.7219 51.1642 78.576 51.7505 76.475 53.8102C74.1146 56.118 73.8741 58.858 75.727 62.7781Z" fill="white"/>
<path d="M105.851 58.764C103.675 58.764 101.57 58.764 99.3447 58.764C99.3447 55.107 99.3447 51.3371 99.3447 47.4658C108.234 47.4658 117.175 47.4658 126.203 47.4658C126.203 53.7313 126.203 59.9968 126.203 66.3149C123.768 64.8266 121.351 63.3495 118.784 61.7784C119.851 59.4669 119.866 57.0351 118.284 54.7612C117.217 53.2239 115.717 52.3106 113.883 51.9648C109.959 51.2244 106.742 53.8817 105.851 58.764Z" fill="white"/>
<path d="M75.4853 117.266C67.5172 117.266 59.767 117.277 52.0207 117.255C50.5774 117.251 49.6302 116.3 49.6265 115.022C49.6227 113.74 50.5661 112.778 52.0019 112.774C58.5793 112.748 65.153 112.756 71.7305 112.782C72.0876 112.782 72.5837 112.966 72.7791 113.237C73.6812 114.477 74.5006 115.781 75.4853 117.266Z" fill="#E4E7FB"/>
<path d="M56.813 108.17C57.3129 105.167 57.7977 102.232 58.2901 99.2737C61.56 99.2737 64.6947 99.2737 67.7842 99.2737C68.5547 102.25 69.3102 105.178 70.0844 108.17C65.7358 108.17 61.3571 108.17 56.813 108.17Z" fill="#E4E7FB"/>
<path d="M85.6871 42.7939C82.6239 42.7939 79.7336 42.7939 76.7343 42.7939C76.7343 40.2719 76.5764 37.7875 76.7794 35.3332C76.9711 33.0518 79.2036 31.4393 81.4851 31.5822C83.6989 31.725 85.5819 33.5291 85.6684 35.7767C85.7548 38.0694 85.6871 40.3659 85.6871 42.7939Z" fill="#3E4678"/>
<path d="M117.262 42.7902C114.221 42.7902 111.331 42.7902 108.324 42.7902C108.324 40.2532 108.147 37.7236 108.376 35.2317C108.583 32.9991 110.786 31.4581 113.018 31.5822C115.288 31.7062 117.171 33.5592 117.247 35.882C117.318 38.1296 117.262 40.3809 117.262 42.7902Z" fill="#3E4678"/>
<path d="M83.4298 24.7529C83.4598 25.9706 82.4601 27.023 81.2423 27.0531C80.0245 27.0869 78.9759 26.0872 78.9421 24.8656C78.912 23.6479 79.908 22.5992 81.1295 22.5654C82.3473 22.5316 83.396 23.5313 83.4298 24.7529Z" fill="white"/>
<path d="M115.003 24.8656C114.969 26.0834 113.917 27.0869 112.699 27.0531C111.478 27.0193 110.482 25.9707 110.515 24.7491C110.549 23.5276 111.598 22.5316 112.816 22.5654C114.037 22.5992 115.037 23.6516 115.003 24.8656Z" fill="white"/>
<path d="M83.4313 58.6513C83.42 59.8728 82.3902 60.8876 81.1724 60.8801C79.9509 60.8688 78.9361 59.8427 78.9474 58.6212C78.9586 57.3997 79.9847 56.3849 81.2062 56.3924C82.424 56.3999 83.4388 57.4335 83.4313 58.6513Z" fill="white"/>
<path d="M115.004 59.1211C114.809 59.2977 114.177 60.1171 113.955 60.0194C112.82 59.5195 111.012 60.2674 110.565 58.5686C110.279 57.4899 111.587 56.3773 112.786 56.3924C113.997 56.4074 115.004 57.426 115.004 59.1211Z" fill="white"/>
<path d="M82.183 65.6873C80.3901 67.3298 78.6236 68.9497 76.8534 70.5734C76.2595 67.4125 79.1122 64.7514 82.183 65.6873Z" fill="#3E4678"/>
<path d="M90.2075 94.5755C90.2075 89.5954 90.2 84.6191 90.2113 79.639C90.2151 76.9253 91.835 75.9594 94.1615 77.3124C102.802 82.3339 111.432 87.3703 120.058 92.4181C122.384 93.7787 122.384 95.6504 120.058 97.0148C111.432 102.063 102.802 107.099 94.1615 112.12C91.835 113.473 90.2151 112.504 90.2113 109.79C90.2 104.724 90.2075 99.6495 90.2075 94.5755ZM115.059 94.7183C108.173 90.7042 101.536 86.8329 94.8343 82.924C94.8343 90.8771 94.8343 98.6159 94.8343 106.516C101.581 102.581 108.17 98.7362 115.059 94.7183Z" fill="#2C2C2C"/>
<path d="M46.1614 42.125C52.5961 45.1468 56.8282 49.9315 58.155 56.8735C58.6924 59.6962 58.5571 62.6617 58.5872 65.5633C58.5985 66.7848 57.7302 67.4914 56.4974 67.638C56.1742 67.6756 55.8397 67.6568 55.5127 67.6568C44.0566 67.6568 32.6043 67.6568 21.1483 67.6568C18.7466 67.6568 18.0738 66.9577 18.0362 64.5635C17.9723 60.7035 17.9873 56.8622 19.5471 53.2164C21.7346 48.1086 25.3954 44.4515 30.6236 42.1137C27.7032 38.964 26.3764 35.3596 27.3987 31.1425C28.0377 28.4964 29.496 26.3541 31.706 24.7379C36.1336 21.4943 42.2149 21.9115 46.1652 25.7302C50.6717 30.0863 50.6867 35.5625 46.1614 42.125ZM54.0957 63.0901C54.4716 55.9489 51.9947 50.3562 45.7142 47.0036C39.8358 43.8689 33.98 44.4327 28.6804 48.4769C23.9033 52.1227 22.1668 57.1667 22.6216 63.0864C33.1606 63.0902 43.5605 63.0901 54.0957 63.0901ZM38.3662 40.5915C42.0458 40.5802 45.0827 37.5508 45.1015 33.8712C45.1203 30.1277 42.0571 27.0569 38.3136 27.0682C34.6302 27.0795 31.6008 30.1051 31.5782 33.7847C31.5594 37.5282 34.6264 40.6027 38.3662 40.5915Z" fill="#2C2C2C"/>
<path d="M115.06 94.7183C108.17 98.7362 101.582 102.581 94.835 106.516C94.835 98.6159 94.835 90.877 94.835 82.924C101.533 86.8328 108.174 90.7042 115.06 94.7183Z" fill="#CD6214"/>
<path d="M54.0962 63.0901C43.561 63.0901 33.1611 63.0901 22.6221 63.0901C22.1673 57.1667 23.9038 52.1264 28.6809 48.4807C33.9805 44.4365 39.84 43.8727 45.7147 47.0073C51.9952 50.3562 54.4721 55.9489 54.0962 63.0901Z" fill="#3E4678"/>
<path d="M38.3662 40.5914C34.6264 40.6027 31.5594 37.5282 31.5782 33.7847C31.597 30.1051 34.6302 27.0794 38.3135 27.0681C42.057 27.0569 45.1203 30.1276 45.1015 33.8711C45.0789 37.5507 42.0458 40.5764 38.3662 40.5914Z" fill="white"/>
</svg>
