<svg width="50" height="50" viewBox="0 0 50 50" fill="none" xmlns="http://www.w3.org/2000/svg">
<path d="M0 0H50V50H0V0Z" fill="#012169"/>
<path d="M5.85938 0L24.9219 18.8542L43.9062 0H50V6.45833L31.25 25.1042L50 43.6458V50H43.75L25 31.3542L6.32812 50H0V43.75L18.6719 25.2083L0 6.66667V0H5.85938Z" fill="white"/>
<path d="M33.125 29.2708L50 45.8333V50L28.8281 29.2708H33.125ZM18.75 31.3542L19.2188 35L4.21875 50H0L18.75 31.3542ZM50 0V0.3125L30.5469 19.8958L30.7031 15.3125L46.0938 0H50ZM0 0L18.6719 18.3333H13.9844L0 4.375V0Z" fill="#C8102E"/>
<path d="M18.8281 0V50H31.3281V0H18.8281ZM0 16.6667V33.3333H50V16.6667H0Z" fill="white"/>
<path d="M0 20.1042V30.1042H50V20.1042H0ZM21.3281 0V50H28.8281V0H21.3281Z" fill="#C8102E"/>
</svg>
