<?xml version="1.0" encoding="UTF-8"?>
<svg width="326px" height="139px" viewBox="0 0 326 139" version="1.1" xmlns="http://www.w3.org/2000/svg" xmlns:xlink="http://www.w3.org/1999/xlink">
    <title>Night Blue</title>
    <g id="Page-1" stroke="none" stroke-width="1" fill="none" fill-rule="evenodd">
        <g id="Night-Blue" transform="translate(0.882800, 0.821492)" fill="#002A5A" fill-rule="nonzero">
            <path d="M79.5612,79.4935084 L9.1467,79.4935084 C7.9649,79.4405084 6.7848,79.6285084 5.6776,80.0445084 C4.5703,80.4605084 3.5588,81.0965084 2.7041,81.9145084 C1.8494,82.7325084 1.1691,83.7145084 0.7043,84.8025084 C0.2396,85.8905084 1.42108547e-14,87.0605084 1.42108547e-14,88.2435084 C1.42108547e-14,89.4265084 0.2396,90.5975084 0.7043,91.6845084 C1.1691,92.7725084 1.8494,93.7555084 2.7041,94.5725084 C3.5588,95.3905084 4.5703,96.0265084 5.6776,96.4425084 C6.7848,96.8585084 7.9649,97.0465084 9.1467,96.9935084 L79.5612,96.9935084 C80.7432,97.0465084 81.9232,96.8585084 83.0302,96.4425084 C84.1372,96.0265084 85.1492,95.3905084 86.0042,94.5725084 C86.8582,93.7555084 87.5392,92.7725084 88.0032,91.6845084 C88.4682,90.5975084 88.7082,89.4265084 88.7082,88.2435084 C88.7082,87.0605084 88.4682,85.8905084 88.0032,84.8025084 C87.5392,83.7145084 86.8582,82.7325084 86.0042,81.9145084 C85.1492,81.0965084 84.1372,80.4605084 83.0302,80.0445084 C81.9232,79.6285084 80.7432,79.4405084 79.5612,79.4935084 Z" id="Path"></path>
            <path d="M9.0948,29.3105084 L42.3442,29.3105084 C44.6672,29.3105084 46.8952,28.3875084 48.5372,26.7445084 C50.1802,25.1021084 51.1032,22.8742084 51.1032,20.5512084 C51.1032,18.2282084 50.1802,16.0004084 48.5372,14.3578084 C46.8952,12.7151084 44.6672,11.7923084 42.3442,11.7923084 L9.0948,11.7923084 C6.7718,11.7923084 4.544,12.7151084 2.9014,14.3578084 C1.2588,16.0004084 0.336,18.2282084 0.336,20.5512084 C0.336,22.8742084 1.2588,25.1021084 2.9014,26.7445084 C4.544,28.3875084 6.7718,29.3105084 9.0948,29.3105084" id="Path"></path>
            <path d="M204.5212,18.2671084 C204.5082,17.0756084 204.2272,15.9023084 203.6982,14.8348084 C203.1682,13.7672084 202.4052,12.8329084 201.4642,12.1015084 C200.0242,10.8882084 198.1952,10.2356084 196.3122,10.2639084 C194.7592,10.2949084 193.2322,10.6680084 191.8402,11.3567084 C190.4472,12.0454084 189.2242,13.0327084 188.2572,14.2483084 L159.1812,49.7135084 C157.8802,51.3485084 157.172199,53.3765084 157.172199,55.4665084 C157.1712,57.5585084 157.8722,59.5905084 159.1642,61.2375084 L186.6432,94.3315084 C187.5182,95.4135084 188.6252,96.2845084 189.8832,96.8785084 C191.1412,97.4735084 192.5162,97.7775084 193.9082,97.7667966 C195.1282,97.7695084 196.3362,97.5305084 197.4632,97.0635084 C198.5912,96.5975084 199.6152,95.9125084 200.4762,95.0495084 C201.3382,94.1865084 202.0212,93.1605084 202.4852,92.0325084 C202.9492,90.9045084 203.1862,89.6955084 203.1822,88.4755084 C203.1852,86.3885084 202.4832,84.3605084 201.1892,82.7225084 L177.5232,54.3335084 L202.0482,24.6216084 C203.5692,22.8314084 204.4402,20.5801084 204.5212,18.2327084" id="Path"></path>
            <path d="M225.0272,10.5897902 C223.8372,10.5787084 222.6562,10.8045084 221.5542,11.2542084 C220.4522,11.7039084 219.4502,12.3686084 218.6082,13.2095084 C217.7652,14.0504084 217.0992,15.0507084 216.6472,16.1520084 C216.1952,17.2533084 215.9672,18.4335084 215.9762,19.6238084 L215.9762,88.5615084 C215.9232,89.7825084 216.1172,91.0005084 216.5482,92.1445084 C216.9782,93.2875084 217.6362,94.3325084 218.4812,95.2145084 C219.3262,96.0975084 220.3402,96.7995084 221.4642,97.2795084 C222.5882,97.7595084 223.7972,98.0065084 225.0182,98.0065084 C226.2402,98.0065084 227.4492,97.7595084 228.5732,97.2795084 C229.6972,96.7995084 230.7112,96.0975084 231.5562,95.2145084 C232.4012,94.3325084 233.0592,93.2875084 233.4892,92.1445084 C233.9192,91.0005084 234.1142,89.7825084 234.0612,88.5615084 L234.0612,19.6238084 C234.0702,18.4350084 233.8422,17.2562084 233.3922,16.1560084 C232.9412,15.0559084 232.2762,14.0564084 231.4352,13.2157084 C230.5952,12.3750084 229.5952,11.7099084 228.4952,11.2592084 C227.3952,10.8084084 226.2162,10.5810084 225.0272,10.5897902" id="Path"></path>
            <path d="M315.4152,10.3669084 C313.0482,10.3714084 310.7792,11.3138084 309.1052,12.9876084 C307.4312,14.6614084 306.4892,16.9304084 306.4852,19.2975084 L306.4852,65.4965084 L268.7012,16.0000084 C266.1252,12.7026084 263.5492,10.6245084 259.1872,10.6245084 L257.3152,10.6245084 C256.1262,10.6153084 254.9472,10.8427084 253.8472,11.2935084 C252.7472,11.7442084 251.7472,12.4093084 250.9062,13.2500084 C250.0662,14.0907084 249.4012,15.0902084 248.9502,16.1903084 C248.4992,17.2905084 248.272584,18.4693084 248.2812,19.6582084 L248.2812,88.6815084 C248.2282,89.8865084 248.4202,91.0895084 248.8442,92.2175084 C249.2692,93.3465084 249.9172,94.3775084 250.7512,95.2485084 C251.5852,96.1195084 252.5862,96.8125084 253.6952,97.2865084 C254.8042,97.7595084 255.9972,98.0035084 257.2032,98.0035084 C258.4092,98.0035084 259.6022,97.7595084 260.7112,97.2865084 C261.8202,96.8125084 262.8212,96.1195084 263.6552,95.2485084 C264.4882,94.3775084 265.1372,93.3465084 265.5622,92.2175084 C265.9862,91.0895084 266.1782,89.8865084 266.1252,88.6815084 L266.1252,40.7485084 L305.1792,91.9795084 C307.7732,95.2765084 310.3322,97.3545084 314.7112,97.3715084 L315.3122,97.3715084 C316.5032,97.3805084 317.6842,97.1535084 318.7862,96.7015084 C319.8892,96.2495084 320.8902,95.5835084 321.7322,94.7415084 C322.5752,93.8995084 323.2412,92.8975084 323.6932,91.7955084 C324.1442,90.6935084 324.3722,89.5125084 324.363456,88.3205084 L324.363456,19.2975084 C324.3652,18.1255084 324.1362,16.9646084 323.6892,15.8812084 C323.2422,14.7978084 322.5862,13.8131084 321.7582,12.9836084 C320.9302,12.1541084 319.9472,11.4960084 318.8642,11.0470084 C317.7822,10.5980084 316.6212,10.3669084 315.4492,10.3669084" id="Path"></path>
            <path d="M158.4942,65.5135084 L150.3532,55.0205084 L112.2092,9.35360839 C109.5092,6.05600839 106.0272,3.48710839 102.0792,1.88120839 C98.1312,0.275308388 93.8442,-0.316491612 89.6092,0.160008388 C85.3742,0.636408388 81.3262,2.16590839 77.8332,4.60880839 C74.3412,7.05170839 71.5172,10.3302084 69.6172,14.1452084 C69.5642,14.2816084 69.5012,14.4137084 69.4282,14.5402084 C68.1882,17.1770084 67.4042,20.0051084 67.1092,22.9041084 C67.1092,23.7800084 66.9722,24.6215084 66.9722,25.5146084 C66.9852,29.4765084 67.9202,33.3805084 69.7032,36.9185084 C70.3042,37.8455084 70.4242,38.6355084 71.4202,39.1165084 C69.5232,35.6835084 68.9102,31.6855084 69.6922,27.8415084 C70.4752,23.9976084 72.6012,20.5578084 75.6892,18.1390084 C78.7782,15.7202084 82.6272,14.4807084 86.5472,14.6426084 C90.4662,14.8046084 94.2002,16.3574084 97.0792,19.0227084 C97.6652,19.4465084 98.1962,19.9428084 98.6592,20.4997084 L139.2592,68.9825084 L139.2592,69.1025084 C139.7782,69.7205084 140.0752,70.4945084 140.1002,71.3015084 C140.0832,72.1135084 139.7652,72.8915084 139.2072,73.4825084 L139.2072,73.6545084 L97.0612,123.545508 C95.7362,125.114508 95.0172,127.107508 95.0352,129.161508 C95.0412,130.955508 95.5972,132.703508 96.6282,134.170508 C97.6602,135.638508 99.1172,136.753508 100.8032,137.365508 C102.4882,137.978508 104.3212,138.058508 106.0542,137.595508 C107.7872,137.132508 109.3362,136.148508 110.4922,134.777508 L150.3702,87.4965084 L158.4772,77.0375084 C159.7762,75.3985084 160.4842,73.3675084 160.4842,71.2755084 C160.4842,69.1835084 159.7762,67.1525084 158.4772,65.5135084" id="Path"></path>
            <path d="M90.5692,63.1095084 C91.7512,63.1615084 92.9312,62.9735084 94.0382,62.5575084 C95.1462,62.1415084 96.1572,61.5055084 97.0122,60.6875084 C97.8672,59.8705084 98.5472,58.8875084 99.0122,57.8005084 C99.4762,56.7125084 99.7162,55.5415084 99.7162,54.3585084 C99.7162,53.1755084 99.4762,52.0055084 99.0122,50.9175084 C98.5472,49.8295084 97.8672,48.8475084 97.0122,48.0295084 C96.1572,47.2125084 95.1462,46.5755084 94.0382,46.1595084 C92.9312,45.7435084 91.7512,45.5565084 90.5692,45.6085084 L9.318,45.6085084 C8.1363,45.5565084 6.9562,45.7435084 5.849,46.1595084 C4.7417,46.5755084 3.7302,47.2125084 2.8754,48.0295084 C2.0207,48.8475084 1.3404,49.8295084 0.8757,50.9175084 C0.411,52.0055084 0.1714,53.1755084 0.1714,54.3585084 C0.1714,55.5415084 0.411,56.7125084 0.8757,57.8005084 C1.3404,58.8875084 2.0207,59.8705084 2.8754,60.6875084 C3.7302,61.5055084 4.7417,62.1415084 5.849,62.5575084 C6.9562,62.9735084 8.1363,63.1615084 9.318,63.1095084 L90.5692,63.1095084" id="Path"></path>
        </g>
    </g>
</svg>