<?xml version="1.0" encoding="UTF-8"?> <svg xmlns="http://www.w3.org/2000/svg" id="Layer_1" viewBox="0 0 864 185.33"><defs><style>.cls-1{fill:#033947;}</style></defs><g><path class="cls-1" d="m458.96,118.98l7.2-7.82c4.74,5.01,11.35,7.9,18.72,7.9,9.07,0,13.13-3.57,13.13-9.09,0-6.03-5.68-7.65-15.42-9.94-10.84-2.63-21.35-6.37-21.35-19.03,0-11.3,8.64-19.46,24.06-19.46,10.08,0,17.79,3.31,23.64,9.09l-6.69,7.9c-4.49-4.59-10.17-7.39-17.11-7.39-7.88,0-11.78,3.74-11.78,8.67,0,5.95,5.42,7.22,15,9.6,11.44,2.89,21.69,6.46,21.69,19.37,0,11.72-8.98,19.88-25.25,19.88-11.18,0-19.57-3.4-25.84-9.69Z"></path><path class="cls-1" d="m533.86,127.73v-55.39h-21.52v-9.86h55.06v9.86h-21.52v55.39h-12.03Z"></path><path class="cls-1" d="m615.1,62.48h11.69v42.23c0,14.95-10.08,23.96-27.2,23.96-15.5,0-26.77-8.5-26.77-23.96v-42.23h12.03v41.97c0,8.67,5.59,14.53,15.08,14.53s15.16-5.52,15.16-14.53v-41.97Z"></path><path class="cls-1" d="m637.21,62.48h23.21c22.62,0,32.79,14.95,32.79,32.54,0,19.2-11.78,32.71-32.28,32.71h-23.72V62.48Zm22.62,55.48c13.13,0,21.1-7.56,21.1-22.77s-8.81-22.94-21.69-22.94h-10v45.71h10.59Z"></path><path class="cls-1" d="m701.35,127.73V62.48h12.03v65.25h-12.03Z"></path><path class="cls-1" d="m752.77,61.55c20.5,0,31.26,14.87,31.26,33.47s-10.76,33.64-31.18,33.64-31.26-14.87-31.26-33.47,10.76-33.64,31.18-33.64Zm.08,57.43c12.71,0,18.89-11.04,18.89-23.87s-6.02-23.87-18.98-23.87-18.89,11.04-18.89,23.87,6.02,23.87,18.98,23.87Z"></path></g><g><g><g><polygon class="cls-1" points="142.69 84.07 141.59 76.98 79.32 128.29 90.24 128.29 142.69 84.07"></polygon><polygon class="cls-1" points="93.98 128.29 104.61 128.29 144.54 95.7 143.13 86.66 93.98 128.29"></polygon></g><g><polygon class="cls-1" points="183.95 75.51 182.72 67.56 109.07 128.29 120.03 128.29 183.95 75.51"></polygon><polygon class="cls-1" points="124.17 128.29 133.69 128.29 185.88 87.63 184.43 78.33 124.17 128.29"></polygon></g><g><polygon class="cls-1" points="239.88 59.59 237.82 50 138.16 128.29 152.51 128.29 239.88 59.59"></polygon><polygon class="cls-1" points="156.78 128.29 171.49 128.29 242.74 72.6 240.51 62.25 156.78 128.29"></polygon></g></g><g><path class="cls-1" d="m300.04,77.69l-.4,2.33h-11.7l.3-1.72c.2-1.21.4-2.43.4-3.54,0-2.93-1.21-5.36-5.95-5.36-5.14,0-7.26,2.83-7.87,5.97,0,.4-.1.81-.1,1.21,0,9.51,20.57,16.69,20.57,32.57,0,1.11-.1,2.22-.3,3.44-2.02,11.02-8.87,16.89-23.2,16.89-9.58,0-15.83-4.75-15.83-13.96,0-1.32.1-2.73.4-4.25l.71-3.84h11.6l-.5,2.93c-.2,1.21-.3,2.22-.3,3.24,0,4.35,2.32,5.97,6.56,5.97,4.64,0,7.76-2.23,8.47-6.37.1-.5.2-1.11.2-1.62,0-10.82-20.17-16.49-20.17-32.06,0-1.11.1-2.23.3-3.44,1.92-10.92,9.48-16.38,22.19-16.38,9.58,0,15.03,4.65,15.03,13.55,0,1.31-.1,2.83-.4,4.45Z"></path><path class="cls-1" d="m325.98,128.3l-.2-16.79h-13.72l-6.05,16.79h-11.8l25.82-67.46h15.93l2.22,67.46h-12.2Zm.1-46.22c0-4.55,0-9.1.1-12.54-3.63,11.02-11.19,32.47-11.19,32.47h11.3s-.2-10.11-.2-19.93Z"></path><path class="cls-1" d="m384.48,70.55h-18.76l-3.23,18.1h16.24l-1.72,9.71h-16.24l-5.24,29.94h-12l11.9-67.46h30.76l-1.71,9.71Z"></path><path class="cls-1" d="m419.06,92.56l-2.22,12.74h-24l-1.41,8.19c-.1.51-.1,1.01-.1,1.52,0,3.14,2.02,4.75,5.34,4.75,4.24,0,6.96-1.62,7.66-7.18l.1-.81h11.3l-.1.81c-1.31,10.82-8.87,16.89-20.67,16.89-9.58,0-14.82-4.75-14.82-13.35,0-1.42.1-2.83.4-4.45l3.33-18.61c2.22-12.24,9.28-18.21,20.67-18.21s15.13,4.65,15.13,12.34c0,1.62-.3,3.44-.6,5.36Zm-16.14-8.5c-4.13,0-6.86,2.63-7.56,6.88l-.91,5.36h12.81l.91-5.36c.1-.71.2-1.31.2-1.82,0-3.34-1.92-5.06-5.45-5.06Z"></path><path class="cls-1" d="m429.12,72.49c1.05,0,2.05.26,3.01.79.96.52,1.72,1.28,2.26,2.25.55.98.82,2,.82,3.07s-.27,2.08-.81,3.05c-.54.97-1.29,1.72-2.25,2.26-.96.54-1.97.81-3.04.81s-2.07-.27-3.04-.81c-.96-.54-1.71-1.29-2.25-2.26-.54-.97-.81-1.98-.81-3.05s.27-2.09.82-3.07c.55-.98,1.31-1.73,2.26-2.25.96-.52,1.96-.79,3.01-.79Zm0,1.2c-.84,0-1.64.21-2.41.63-.77.42-1.37,1.02-1.82,1.81-.44.79-.66,1.61-.66,2.47s.22,1.67.65,2.45c.43.78,1.04,1.38,1.81,1.82.78.44,1.59.65,2.44.65s1.67-.22,2.44-.65c.77-.44,1.38-1.04,1.81-1.82.44-.78.65-1.59.65-2.45s-.22-1.69-.66-2.47c-.44-.79-1.05-1.39-1.82-1.81-.77-.42-1.58-.63-2.42-.63Zm-2.76,8.19v-6.49h1.31c1.23,0,1.92,0,2.07.02.44.04.77.12,1.01.26.24.14.44.34.6.62.16.28.24.59.24.93,0,.47-.15.87-.46,1.2-.3.33-.73.54-1.29.62.2.07.35.16.45.24.11.09.25.25.44.5.05.06.21.33.48.79l.76,1.31h-1.62l-.54-1.05c-.37-.71-.67-1.15-.91-1.34-.24-.18-.54-.28-.91-.28h-.34v2.67h-1.31Zm1.31-3.69h.53c.76,0,1.23-.03,1.41-.09.18-.06.33-.16.43-.31.11-.15.16-.31.16-.5s-.05-.34-.16-.48c-.1-.14-.25-.24-.44-.3-.19-.06-.66-.09-1.41-.09h-.53v1.77Z"></path></g><path class="cls-1" d="m250.88,115.52c0-1.83.16-3.53.49-5.21l.7-3.81.77-4.18h18.06c-5.83-5.39-13.06-12.1-13.06-22.81,0-1.38.12-2.78.38-4.32,1.86-10.61,8.41-17.4,18.7-19.71l-1.26-5.72-99.66,78.52h79.33c-2.87-3.21-4.45-7.54-4.45-12.75Z"></path></g></svg> 